<?xml version="1.0" encoding="utf-8"?>
<!-- Generator: Adobe Illustrator 25.4.1, SVG Export Plug-In . SVG Version: 6.00 Build 0)  -->
<svg version="1.1" id="Layer_1" xmlns="http://www.w3.org/2000/svg" xmlns:xlink="http://www.w3.org/1999/xlink" x="0px" y="0px"
	 viewBox="0 0 508.21 609.82" style="enable-background:new 0 0 508.21 609.82;" xml:space="preserve">
<style type="text/css">
	.st0{fill:#EBE9E1;}
	.st1{fill:#8BCDEA;}
	.st2{fill:#B6FCF5;}
	.st3{fill:#F4FF66;}
	.st4{fill:none;}
	.st5{fill:#124BD8;}
	.st6{font-family:'Poppins-Light';}
	.st7{font-size:16px;}
	.st8{font-family:'Poppins-ExtraBold';}
</style>
<polygon class="st0" points="508.21,609.82 508.21,406.61 305.01,203.21 305.01,406.61 "/>
<polygon class="st1" points="406.61,304.91 203.4,304.91 0,101.71 203.4,101.71 "/>
<polygon class="st2" points="508.21,0 508.21,203.21 305.01,406.61 305.01,203.21 "/>
<polygon class="st3" points="406.61,304.92 305.01,406.62 305.01,203.21 "/>
<g>
	<rect x="366.59" y="388.7" class="st4" width="125.33" height="73.72"/>
	<text transform="matrix(1 0 0 1 366.5897 402.3451)"><tspan x="0" y="0" class="st5 st6 st7">What can be </tspan><tspan x="0" y="21" class="st5 st6 st7">fnancially </tspan><tspan x="0" y="42" class="st5 st8 st7">viable</tspan><tspan x="51.84" y="42" class="st5 st6 st7">?</tspan></text>
</g>
<g>
	<rect x="366.59" y="169.8" class="st4" width="96.8" height="71.64"/>
	<text transform="matrix(1 0 0 1 366.5902 183.4398)"><tspan x="0" y="0" class="st5 st6 st7">What do </tspan><tspan x="0" y="21" class="st5 st6 st7">people </tspan><tspan x="0" y="42" class="st5 st8 st7">desire</tspan><tspan x="51.82" y="42" class="st5 st6 st7">?</tspan></text>
</g>
<rect x="155.51" y="169.8" class="st4" width="109.39" height="78.72"/>
<text transform="matrix(1 0 0 1 155.5059 183.4398)"><tspan x="0" y="0" class="st5 st6 st7">What is </tspan><tspan x="0" y="21" class="st5 st6 st7">technically </tspan><tspan x="0" y="42" class="st5 st8 st7">feasible</tspan><tspan x="66.4" y="42" class="st5 st6 st7">?</tspan></text>
<g>
	<rect x="313.99" y="278.79" class="st4" width="76.48" height="47.59"/>
	<text transform="matrix(1 0 0 1 313.9947 292.4877)"><tspan x="0" y="0" class="st5 st8 st7">Your </tspan><tspan x="0" y="21" class="st5 st8 st7">Product</tspan></text>
</g>
</svg>
