<?xml version="1.0" encoding="utf-8"?>
<!-- Generator: Adobe Illustrator 25.3.1, SVG Export Plug-In . SVG Version: 6.00 Build 0)  -->
<svg version="1.1" id="Layer_1" xmlns="http://www.w3.org/2000/svg" xmlns:xlink="http://www.w3.org/1999/xlink" x="0px" y="0px"
	 viewBox="0 0 100 100" style="enable-background:new 0 0 100 100;" xml:space="preserve">
<style type="text/css">
	.st0{fill:#124BD8;}
	.st1{fill:#F4FF66;}
	.st2{fill:#8BCDEA;}
	.st3{fill:#112849;}
</style>
<g id="Group_195" transform="translate(-720.618 -440.292)">
	<path id="Path_210" class="st0" d="M820.6,473.6L820.6,473.6L820.6,473.6L820.6,473.6l-66.7,0l33.3-33.3h33.3L820.6,473.6z"/>
	<path id="Path_211" class="st0" d="M820.6,473.6L820.6,473.6h-33.3H820.6z"/>
	<path id="Path_212" class="st0" d="M753.9,506.9L753.9,506.9L753.9,506.9L753.9,506.9z"/>
	<path id="Path_213" class="st1" d="M754,473.6V507h-33.3l0,0L754,473.6z"/>
	<path id="Path_214" class="st2" d="M820.6,473.6L820.6,473.6L787.3,507v-33.3H820.6z"/>
	<path id="Path_215" class="st3" d="M787.3,440.3v33.3H754L787.3,440.3z"/>
	<path id="Path_216" class="st0" d="M720.6,506.9L720.6,506.9L720.6,506.9L720.6,506.9l66.7,0L754,540.3h-33.3L720.6,506.9z"/>
	<path id="Path_217" class="st3" d="M754,540.3V507h33.3L754,540.3z"/>
</g>
</svg>
