<?xml version="1.0" encoding="utf-8"?>
<!-- Generator: Adobe Illustrator 25.4.1, SVG Export Plug-In . SVG Version: 6.00 Build 0)  -->
<svg version="1.1" id="Layer_1" xmlns="http://www.w3.org/2000/svg" xmlns:xlink="http://www.w3.org/1999/xlink" x="0px" y="0px"
	 viewBox="0 0 90.01 90.01" style="enable-background:new 0 0 90.01 90.01;" xml:space="preserve">
<style type="text/css">
	.st0{fill:#F4FF66;}
	.st1{fill:#EBE9E1;}
	.st2{fill:#124BD8;}
	.st3{clip-path:url(#SVGID_00000023981761644256745850000007590918949563458184_);}
	.st4{fill:#B6FCF5;}
</style>
<g>
	<path class="st0" d="M76.82,76.83c-3.01,3.01-6.34,5.5-9.88,7.48c-2.03,1.13-4.11,2.09-6.25,2.88C44.7,93.1,26,89.65,13.18,76.83
		c-17.55-17.55-17.55-46.1,0-63.65s46.1-17.55,63.65,0C94.37,30.73,94.37,59.28,76.82,76.83z"/>
	<ellipse transform="matrix(0.858 -0.5137 0.5137 0.858 -16.7266 29.507)" class="st0" cx="45" cy="45.01" rx="40.82" ry="40.82"/>
	<circle class="st1" cx="45" cy="45.01" r="39.1"/>
	<g>
		<g>
			<path class="st2" d="M68.64,21.99c-0.19-0.19-0.19-0.49,0-0.67l2.18-2.18c0.19-0.19,0.49-0.19,0.67,0c0.19,0.19,0.19,0.49,0,0.67
				l-2.18,2.18C69.12,22.17,68.82,22.17,68.64,21.99z"/>
		</g>
		<g>
			<path class="st2" d="M53.75,13.13c-0.12-0.12-0.17-0.29-0.12-0.46l0.8-2.97c0.07-0.25,0.33-0.4,0.58-0.34
				c0.25,0.07,0.4,0.33,0.34,0.58l-0.8,2.97c-0.07,0.25-0.33,0.4-0.58,0.34C53.88,13.23,53.81,13.19,53.75,13.13z"/>
		</g>
		<g>
			<path class="st2" d="M36.43,12.91c-0.06-0.06-0.1-0.13-0.12-0.21l-0.8-2.97c-0.07-0.25,0.08-0.51,0.34-0.58
				c0.25-0.07,0.51,0.08,0.58,0.34l0.8,2.97c0.07,0.25-0.08,0.51-0.34,0.58C36.72,13.07,36.54,13.02,36.43,12.91z"/>
		</g>
		<g>
			<path class="st2" d="M21.32,21.37l-2.18-2.18c-0.19-0.19-0.19-0.49,0-0.67c0.19-0.19,0.49-0.19,0.67,0l2.18,2.18
				c0.19,0.19,0.19,0.49,0,0.67C21.8,21.56,21.5,21.56,21.32,21.37z"/>
		</g>
		<g>
			<path class="st2" d="M9.49,35.46C9.37,35.35,9.32,35.17,9.36,35c0.07-0.25,0.33-0.4,0.58-0.34l2.97,0.8
				c0.25,0.07,0.4,0.33,0.34,0.58c-0.07,0.25-0.33,0.4-0.58,0.34l-2.97-0.8C9.62,35.56,9.54,35.52,9.49,35.46z"/>
		</g>
		<g>
			<path class="st2" d="M9.26,54.38c-0.06-0.06-0.1-0.13-0.12-0.21c-0.07-0.25,0.08-0.51,0.34-0.58l2.97-0.8
				c0.25-0.07,0.51,0.08,0.58,0.34c0.07,0.25-0.08,0.51-0.34,0.58l-2.97,0.8C9.55,54.54,9.38,54.49,9.26,54.38z"/>
		</g>
		<g>
			<path class="st2" d="M18.52,70.87c-0.19-0.19-0.19-0.49,0-0.67l2.18-2.18c0.19-0.19,0.49-0.19,0.67,0c0.19,0.19,0.19,0.49,0,0.67
				l-2.18,2.18C19.01,71.05,18.71,71.05,18.52,70.87z"/>
		</g>
		<g>
			<path class="st2" d="M34.79,80.52c-0.12-0.12-0.17-0.29-0.12-0.46l0.8-2.97c0.07-0.25,0.33-0.4,0.58-0.34
				c0.25,0.07,0.4,0.33,0.34,0.58l-0.8,2.97c-0.07,0.25-0.33,0.4-0.58,0.34C34.92,80.62,34.85,80.58,34.79,80.52z"/>
		</g>
		<g>
			<path class="st2" d="M53.7,80.75c-0.06-0.06-0.1-0.13-0.12-0.21l-0.8-2.97c-0.07-0.25,0.08-0.51,0.34-0.58
				c0.25-0.07,0.51,0.08,0.58,0.34l0.8,2.97c0.07,0.25-0.08,0.51-0.34,0.58C53.99,80.92,53.82,80.86,53.7,80.75z"/>
		</g>
		<g>
			<path class="st2" d="M70.2,71.49l-2.18-2.18c-0.19-0.19-0.19-0.49,0-0.67c0.19-0.19,0.49-0.19,0.67,0l2.18,2.18
				c0.19,0.19,0.19,0.49,0,0.67C70.68,71.67,70.38,71.67,70.2,71.49z"/>
		</g>
		<g>
			<path class="st2" d="M76.88,54.42c-0.12-0.12-0.17-0.29-0.12-0.46c0.07-0.25,0.33-0.4,0.58-0.34l2.97,0.8
				c0.25,0.07,0.4,0.33,0.34,0.58c-0.07,0.25-0.33,0.4-0.58,0.34l-2.97-0.8C77.01,54.52,76.93,54.48,76.88,54.42z"/>
		</g>
		<g>
			<path class="st2" d="M77.1,37.1c-0.06-0.06-0.1-0.13-0.12-0.21c-0.07-0.25,0.08-0.51,0.34-0.58l2.97-0.8
				c0.25-0.07,0.51,0.08,0.58,0.34c0.07,0.25-0.08,0.51-0.34,0.58l-2.97,0.8C77.39,37.27,77.22,37.22,77.1,37.1z"/>
		</g>
	</g>
</g>
<g>
	<defs>
		<path id="SVGID_1_" d="M76.82,76.83c-3.01,3.01-6.34,5.5-9.88,7.48c-2.03,1.13-4.11,2.09-6.25,2.88
			C44.7,93.1,26,89.65,13.18,76.83c-17.55-17.55-17.55-46.1,0-63.65s46.1-17.55,63.65,0C94.37,30.73,94.37,59.28,76.82,76.83z"/>
	</defs>
	<clipPath id="SVGID_00000135680895271125691020000007417567834493415057_">
		<use xlink:href="#SVGID_1_"  style="overflow:visible;"/>
	</clipPath>
	<g style="clip-path:url(#SVGID_00000135680895271125691020000007417567834493415057_);">
		<g>
			<path class="st4" d="M83.55,12.98c0,0.55-0.21,1.08-0.61,1.47L47.3,50.09c-0.41,0.41-0.94,0.61-1.48,0.61
				c-0.53,0-1.06-0.2-1.47-0.61L29.19,34.93c-0.82-0.81-0.82-2.14,0-2.95c0.81-0.82,2.13-0.82,2.95,0l13.69,13.69L79.99,11.5
				c0.39-0.39,0.92-0.61,1.47-0.61h0.01c0.55,0,1.08,0.22,1.47,0.61C83.34,11.89,83.55,12.42,83.55,12.98z"/>
		</g>
	</g>
</g>
<g>
	<g>
		<path class="st2" d="M83.04,9.68c0,0.55-0.21,1.08-0.61,1.47L46.79,46.79c-0.41,0.41-0.94,0.61-1.48,0.61
			c-0.53,0-1.06-0.2-1.47-0.61L28.68,31.63c-0.82-0.81-0.82-2.14,0-2.95c0.81-0.82,2.13-0.82,2.95,0l13.69,13.69L79.48,8.2
			c0.39-0.39,0.92-0.61,1.47-0.61h0.01c0.55,0,1.08,0.22,1.47,0.61C82.83,8.59,83.04,9.12,83.04,9.68z"/>
	</g>
</g>
</svg>
