<?xml version="1.0" encoding="utf-8"?>
<!-- Generator: Adobe Illustrator 25.4.1, SVG Export Plug-In . SVG Version: 6.00 Build 0)  -->
<svg version="1.1" id="Layer_1" xmlns="http://www.w3.org/2000/svg" xmlns:xlink="http://www.w3.org/1999/xlink" x="0px" y="0px"
	 viewBox="0 0 539.37 918.82" style="enable-background:new 0 0 539.37 918.82;" xml:space="preserve">
<style type="text/css">
	.st0{fill:none;stroke:#F4FF66;stroke-miterlimit:10;}
	.st1{fill:none;stroke:#124BD8;stroke-width:0.8004;stroke-miterlimit:10;}
	.st2{fill:#124BD8;}
	.st3{fill:none;stroke:#F4FF66;stroke-width:0.8004;stroke-miterlimit:10;}
	.st4{fill:#E2FF66;}
	.st5{fill:none;stroke:#124BD8;stroke-miterlimit:10;}
	.st6{opacity:0.3;}
	.st7{fill-rule:evenodd;clip-rule:evenodd;fill:#124BD8;}
</style>
<g>
	<path class="st0" d="M142.06,585.8v102.47H42.39c-23.14,0-41.89-18.75-41.89-41.88c0-23.14,18.75-41.89,41.89-41.89
		c7.81,0,15.13,2.15,21.39,5.88c2.51-22.41,21.51-39.82,44.58-39.82C121.79,570.56,133.83,576.46,142.06,585.8z"/>
</g>
<path class="st1" d="M226.35,351.54c-1.41,0-2.56-1.15-2.56-2.56s1.15-2.56,2.56-2.56c1.41,0,2.56,1.15,2.56,2.56
	C228.91,350.39,227.76,351.54,226.35,351.54L226.35,351.54z M198.03,351.54c-1.41,0-2.56-1.15-2.56-2.56s1.15-2.56,2.56-2.56
	c1.41,0,2.56,1.15,2.56,2.56C200.59,350.39,199.44,351.54,198.03,351.54L198.03,351.54z M227.27,336.11l5.12-8.87
	c0.29-0.51,0.12-1.16-0.39-1.46c-0.51-0.29-1.16-0.12-1.46,0.39l-5.19,8.98c-3.97-1.81-8.42-2.82-13.17-2.82
	c-4.75,0-9.21,1.01-13.17,2.82l-5.19-8.98c-0.29-0.51-0.95-0.68-1.46-0.39c-0.51,0.29-0.68,0.95-0.39,1.46l5.12,8.87
	c-8.79,4.78-14.81,13.69-15.69,24.21h61.54C242.08,349.79,236.06,340.89,227.27,336.11L227.27,336.11z"/>
<g>
	<path class="st2" d="M492.9,634.97l-1.23-3.32l-0.01-0.02c-0.3-0.8-1.12-1.08-1.84-0.64c-0.72,0.44-1.06,1.45-0.77,2.25l0,0
		l1.25,3.35c0.3,0.8,1.12,1.08,1.84,0.64c0.72-0.44,1.06-1.45,0.76-2.25L492.9,634.97z"/>
	<path class="st2" d="M488.92,623.84l-1.12-3.38l-0.01-0.02c-0.27-0.82-1.08-1.14-1.82-0.72c-0.73,0.42-1.11,1.42-0.83,2.23l0,0
		l1.13,3.41c0.27,0.82,1.08,1.14,1.81,0.72c0.73-0.42,1.1-1.42,0.83-2.23L488.92,623.84z"/>
	<path class="st2" d="M485.31,612.5l-1.01-3.44l0-0.02c-0.25-0.83-1.05-1.19-1.79-0.81c-0.74,0.39-1.15,1.38-0.9,2.21l0,0l1.03,3.47
		c0.25,0.83,1.05,1.19,1.79,0.8c0.74-0.39,1.15-1.38,0.9-2.21L485.31,612.5z"/>
	<path class="st2" d="M482.06,600.97l-0.91-3.49l0-0.02c-0.22-0.85-1.01-1.25-1.77-0.88c-0.75,0.36-1.19,1.34-0.97,2.19l0,0
		l0.92,3.52c0.22,0.85,1.01,1.24,1.77,0.88c0.75-0.36,1.18-1.34,0.96-2.19L482.06,600.97z"/>
	<path class="st2" d="M479.15,589.27l-0.8-3.54l0-0.02c-0.2-0.86-0.98-1.29-1.74-0.96c-0.76,0.33-1.23,1.31-1.03,2.17l0,0l0.81,3.57
		c0.2,0.86,0.98,1.29,1.74,0.96c0.76-0.33,1.22-1.31,1.03-2.17L479.15,589.27z"/>
	<path class="st2" d="M476.59,577.41l-0.7-3.58l0-0.02c-0.17-0.88-0.94-1.34-1.71-1.03c-0.77,0.31-1.26,1.27-1.09,2.15l0,0
		l0.71,3.61c0.17,0.88,0.94,1.34,1.71,1.03c0.77-0.31,1.26-1.27,1.09-2.15L476.59,577.41z"/>
	<path class="st2" d="M474.36,565.42l-0.6-3.62l0-0.02c-0.15-0.89-0.9-1.39-1.68-1.11c-0.78,0.28-1.29,1.23-1.15,2.12l0,0l0.61,3.65
		c0.15,0.89,0.9,1.38,1.68,1.1c0.78-0.28,1.29-1.23,1.14-2.12L474.36,565.42z"/>
	<path class="st2" d="M472.46,553.31l-0.51-3.66l0-0.01c-0.12-0.9-0.87-1.43-1.65-1.17c-0.79,0.25-1.33,1.19-1.2,2.1l0,0l0.51,3.68
		c0.13,0.9,0.87,1.43,1.65,1.17c0.79-0.25,1.32-1.19,1.2-2.09L472.46,553.31z"/>
	<path class="st2" d="M470.89,541.09l-0.41-3.69l0-0.01c-0.1-0.91-0.83-1.47-1.62-1.24c-0.8,0.23-1.36,1.15-1.26,2.07l0,0l0.42,3.71
		c0.1,0.91,0.83,1.47,1.62,1.24c0.79-0.23,1.36-1.15,1.25-2.07L470.89,541.09z"/>
	<path class="st2" d="M469.64,528.77l-0.31-3.71l0-0.01c-0.08-0.92-0.79-1.51-1.59-1.31c-0.8,0.2-1.39,1.11-1.31,2.04l0,0l0.32,3.74
		c0.08,0.92,0.79,1.51,1.59,1.3c0.8-0.2,1.38-1.11,1.31-2.04L469.64,528.77z"/>
	<path class="st2" d="M468.7,516.37l-0.22-3.73l0-0.01c-0.06-0.93-0.75-1.55-1.56-1.37s-1.41,1.07-1.36,2.01l0,0l0.23,3.76
		c0.06,0.93,0.75,1.54,1.56,1.37c0.8-0.18,1.41-1.07,1.36-2L468.7,516.37z"/>
	<path class="st2" d="M468.08,503.91l-0.13-3.75l0-0.01c-0.03-0.94-0.71-1.58-1.53-1.43c-0.81,0.15-1.44,1.03-1.41,1.97v0l0.13,3.78
		c0.03,0.94,0.72,1.58,1.52,1.43c0.81-0.15,1.44-1.03,1.41-1.97L468.08,503.91z"/>
	<path class="st2" d="M467.76,491.38l-0.04-3.77l0-0.01c-0.01-0.95-0.68-1.62-1.49-1.49c-0.81,0.12-1.47,0.99-1.46,1.94l0,0
		l0.04,3.79c0.01,0.95,0.68,1.61,1.49,1.49c0.81-0.12,1.46-0.99,1.45-1.94L467.76,491.38z"/>
	<path class="st2" d="M467.74,478.81l0.05-3.78l0-0.01c0.01-0.95-0.64-1.65-1.45-1.55c-0.82,0.1-1.49,0.95-1.5,1.9l0,0l-0.05,3.81
		c-0.01,0.95,0.64,1.65,1.45,1.55c0.82-0.1,1.49-0.95,1.5-1.9L467.74,478.81z"/>
	<path class="st2" d="M468.02,466.2l0.14-3.79l0-0.01c0.04-0.96-0.6-1.68-1.42-1.61c-0.82,0.07-1.51,0.91-1.55,1.87l0,0l-0.14,3.82
		c-0.03,0.96,0.6,1.68,1.42,1.61c0.82-0.07,1.51-0.91,1.55-1.87L468.02,466.2z"/>
	<path class="st2" d="M468.59,453.56l0.23-3.79l0-0.01c0.06-0.97-0.56-1.71-1.38-1.67c-0.82,0.04-1.53,0.86-1.59,1.83l0,0
		l-0.23,3.82c-0.06,0.96,0.56,1.71,1.38,1.66c0.82-0.05,1.53-0.86,1.59-1.83L468.59,453.56z"/>
	<path class="st2" d="M469.46,440.91l0.32-3.8l0-0.01c0.08-0.97-0.52-1.74-1.34-1.72c-0.82,0.02-1.55,0.82-1.64,1.79l0,0l-0.32,3.83
		c-0.08,0.97,0.52,1.74,1.34,1.72c0.82-0.02,1.55-0.82,1.63-1.79L469.46,440.91z"/>
	<path class="st2" d="M470.62,428.25l0.4-3.8l0-0.01c0.1-0.97-0.48-1.77-1.3-1.78c-0.82-0.01-1.57,0.78-1.68,1.75l0,0l-0.4,3.83
		c-0.1,0.97,0.48,1.77,1.3,1.77c0.82,0.01,1.57-0.78,1.67-1.75L470.62,428.25z"/>
	<path class="st2" d="M472.07,415.59l0.49-3.8l0-0.01c0.13-0.98-0.44-1.8-1.26-1.83c-0.82-0.03-1.59,0.73-1.72,1.71l0,0l-0.49,3.83
		c-0.13,0.98,0.44,1.79,1.26,1.83c0.82,0.03,1.59-0.73,1.71-1.71L472.07,415.59z"/>
	<path class="st2" d="M473.81,402.94l0.58-3.79l0-0.01c0.15-0.98-0.4-1.82-1.22-1.88c-0.82-0.06-1.61,0.68-1.76,1.66l0,0l-0.58,3.82
		c-0.15,0.98,0.4,1.82,1.22,1.88c0.82,0.06,1.61-0.69,1.75-1.66L473.81,402.94z"/>
	<path class="st2" d="M475.83,390.3l0.66-3.78l0-0.01c0.17-0.98-0.35-1.85-1.18-1.93c-0.82-0.09-1.62,0.64-1.8,1.62l0,0l-0.66,3.81
		c-0.17,0.98,0.36,1.84,1.18,1.93c0.82,0.09,1.62-0.64,1.79-1.62L475.83,390.3z"/>
	<path class="st2" d="M478.13,377.7l0.75-3.77l0-0.01c0.19-0.98-0.31-1.87-1.13-1.98c-0.82-0.11-1.64,0.59-1.83,1.57l0,0l-0.75,3.8
		c-0.19,0.98,0.31,1.87,1.13,1.98c0.82,0.11,1.64-0.59,1.83-1.57L478.13,377.7z"/>
	<path class="st2" d="M480.72,365.14l0.75-3.41l0-0.01c0.22-0.98-0.27-1.89-1.08-2.03c-0.82-0.14-1.65,0.54-1.87,1.52l0,0
		l-0.76,3.44c-0.22,0.98,0.27,1.89,1.09,2.03c0.82,0.14,1.65-0.54,1.87-1.52L480.72,365.14z"/>
</g>
<g>
	<path class="st2" d="M100.95,360.5c-0.63,1.06-1.2,2.16-1.72,3.28h10.16c0.73-1.14,1.53-2.24,2.4-3.28H100.95z M184.46,373.88
		h-3.09c-0.9,0-1.7-0.61-1.9-1.49c-0.24-1.07-0.53-2.12-0.86-3.15c-0.4-1.33-0.88-2.62-1.41-3.89c-0.23-0.53-0.46-1.06-0.71-1.57
		c-0.52-1.12-1.1-2.22-1.73-3.28c-0.2-0.36-0.42-0.72-0.64-1.08c-0.02-0.03-0.03-0.05-0.04-0.08c-0.44-0.78-0.33-1.74,0.3-2.37
		l2.17-2.17c0.83-0.83,0.83-2.18,0-3.01l-8.48-8.48c-0.83-0.83-2.17-0.83-3,0l-2.17,2.17c-0.66,0.65-1.67,0.75-2.46,0.26
		c-3.93-2.46-8.31-4.28-12.97-5.35c-0.88-0.2-1.49-1-1.49-1.91v-3.07c0-1.18-0.95-2.13-2.13-2.13h-11.99
		c-1.17,0-2.12,0.95-2.12,2.13v3.07c0,0.91-0.62,1.71-1.5,1.91c-4.66,1.07-9.03,2.89-12.97,5.35c-0.79,0.49-1.8,0.4-2.45-0.26
		l-2.17-2.17c-0.83-0.83-2.18-0.83-3.01,0l-8.48,8.48c-0.83,0.83-0.83,2.18,0,3.01l2.17,2.17c0.64,0.63,0.74,1.6,0.3,2.37
		c-0.01,0.03-0.02,0.05-0.04,0.08c-0.22,0.36-0.44,0.72-0.64,1.08c-0.63,1.06-1.2,2.16-1.72,3.28c-0.25,0.51-0.49,1.04-0.71,1.57
		c-0.53,1.27-1.01,2.56-1.41,3.89c-0.33,1.03-0.62,2.08-0.86,3.15c-0.2,0.88-1,1.49-1.91,1.49h-3.08c-1.18,0-2.13,0.96-2.13,2.13
		V388c0,1.18,0.95,2.13,2.13,2.13h3.09c0.9,0,1.7,0.61,1.9,1.49c1.07,4.66,2.89,9.03,5.34,12.97c0.49,0.78,0.4,1.8-0.25,2.45
		l-2.18,2.17c-0.83,0.83-0.83,2.18,0,3.01l8.48,8.48c0.83,0.83,2.18,0.83,3.01,0l2.17-2.18c0.66-0.65,1.67-0.74,2.46-0.25
		c3.93,2.45,8.3,4.27,12.96,5.34c0.88,0.2,1.5,1,1.5,1.9v3.1c0,1.17,0.95,2.12,2.12,2.12h11.99c1.18,0,2.13-0.95,2.13-2.12v-3.1
		c0-0.9,0.61-1.7,1.49-1.9c4.66-1.07,9.03-2.89,12.97-5.34c0.78-0.49,1.8-0.4,2.45,0.26l2.18,2.17c0.83,0.83,2.17,0.83,3,0
		l8.48-8.48c0.83-0.83,0.83-2.18,0-3.01l-2.17-2.17c-0.66-0.65-0.75-1.67-0.26-2.45c2.46-3.94,4.28-8.31,5.35-12.97
		c0.2-0.88,1-1.49,1.9-1.49h3.09c1.17,0,2.12-0.95,2.12-2.13v-11.99C186.58,374.84,185.63,373.88,184.46,373.88z M137.86,415.82
		c-18.68,0-33.8-15.15-33.8-33.82c0-4.52,0.89-8.82,2.5-12.76c0.54-1.34,1.17-2.64,1.89-3.89c0.3-0.53,0.61-1.06,0.94-1.57
		c0.73-1.14,1.53-2.24,2.4-3.28c0.32-0.39,0.65-0.78,1-1.16c6.18-6.84,15.12-11.14,25.07-11.14c9.95,0,18.89,4.3,25.07,11.14
		c0.35,0.38,0.68,0.77,1,1.16c0.87,1.04,1.67,2.14,2.4,3.28c0.33,0.51,0.64,1.04,0.94,1.57c0.72,1.25,1.35,2.55,1.89,3.89
		c1.61,3.94,2.5,8.24,2.5,12.76C171.66,400.67,156.54,415.82,137.86,415.82z"/>
	<path class="st3" d="M98.93,418.98h-2.1c-0.62,0-1.16-0.42-1.3-1.02c-0.73-3.17-1.97-6.15-3.64-8.84
		c-0.33-0.53-0.27-1.22,0.18-1.67l1.47-1.48c0.57-0.56,0.57-1.48,0-2.04l-5.78-5.78c-0.56-0.57-1.48-0.57-2.04,0l-1.48,1.47
		c-0.45,0.45-1.14,0.51-1.67,0.18c-2.69-1.67-5.67-2.92-8.84-3.64c-0.6-0.14-1.02-0.69-1.02-1.3v-2.1c0-0.8-0.65-1.45-1.45-1.45
		h-8.17c-0.8,0-1.45,0.65-1.45,1.45v2.1c0,0.61-0.42,1.16-1.02,1.3c-3.17,0.72-6.15,1.97-8.84,3.64c-0.53,0.33-1.22,0.27-1.67-0.17
		l-1.48-1.48c-0.56-0.57-1.48-0.57-2.05,0l-5.78,5.78c-0.56,0.56-0.56,1.48,0,2.04l1.48,1.48c0.45,0.45,0.51,1.14,0.18,1.68
		c-1.67,2.68-2.91,5.66-3.64,8.83c-0.14,0.6-0.68,1.02-1.3,1.02h-2.1c-0.8,0-1.45,0.65-1.45,1.45v8.17c0,0.8,0.65,1.45,1.45,1.45
		h2.1c0.62,0,1.16,0.42,1.3,1.02c0.73,3.17,1.97,6.15,3.64,8.84c0.34,0.53,0.27,1.22-0.17,1.67l-1.49,1.48
		c-0.56,0.56-0.56,1.48,0,2.05l5.78,5.78c0.57,0.56,1.49,0.56,2.05,0l1.48-1.49c0.45-0.44,1.14-0.51,1.68-0.17
		c2.68,1.67,5.66,2.91,8.83,3.64c0.6,0.13,1.02,0.68,1.02,1.3v2.1c0,0.8,0.65,1.45,1.45,1.45h8.17c0.8,0,1.45-0.65,1.45-1.45v-2.1
		c0-0.62,0.42-1.16,1.02-1.3c3.17-0.73,6.15-1.97,8.83-3.64c0.54-0.33,1.23-0.27,1.68,0.18l1.48,1.48c0.56,0.56,1.48,0.56,2.04,0
		l5.78-5.78c0.57-0.57,0.57-1.49,0-2.05l-1.48-1.48c-0.44-0.45-0.51-1.14-0.17-1.67c1.67-2.69,2.91-5.67,3.64-8.84
		c0.14-0.6,0.68-1.02,1.3-1.02h2.1c0.8,0,1.45-0.65,1.45-1.45v-8.17C100.38,419.63,99.73,418.98,98.93,418.98z M67.18,446.26
		c-12.02,0-21.74-9.74-21.74-21.75c0-11.99,9.72-21.73,21.74-21.73c12.01,0,21.73,9.74,21.73,21.73
		C88.91,436.52,79.19,446.26,67.18,446.26z"/>
</g>
<circle class="st2" cx="511.65" cy="616.06" r="4.75"/>
<path class="st4" d="M254.2,525.67c0,1.64,1.33,2.98,2.98,2.98c1.64,0,2.98-1.33,2.98-2.98c0-1.64-1.33-2.98-2.98-2.98
	C255.53,522.69,254.2,524.02,254.2,525.67z"/>
<g>
	<path class="st2" d="M178.88,275.11c0,1.64,1.33,2.98,2.98,2.98c1.64,0,2.98-1.33,2.98-2.98c0-1.64-1.33-2.98-2.98-2.98
		C180.21,272.13,178.88,273.46,178.88,275.11z"/>
	<circle class="st2" cx="164.7" cy="259.2" r="4.75"/>
</g>
<g>
	<path class="st4" d="M512.42,508.21c0,1.64,1.33,2.98,2.98,2.98s2.98-1.33,2.98-2.98c0-1.64-1.33-2.98-2.98-2.98
		S512.42,506.57,512.42,508.21z"/>
	<path class="st4" d="M494.41,497.59c0,3.51,2.84,6.35,6.35,6.35c3.51,0,6.35-2.84,6.35-6.35s-2.84-6.35-6.35-6.35
		C497.26,491.24,494.41,494.08,494.41,497.59z"/>
</g>
<g>
	<path class="st4" d="M256.44,385.71h6.63c0.08,0,0.14-0.06,0.14-0.14v-6.63c0-0.08-0.06-0.14-0.14-0.14h-6.63
		c-0.08,0-0.14,0.06-0.14,0.14v6.63C256.31,385.65,256.37,385.71,256.44,385.71z"/>
	<path class="st4" d="M245.21,385.71h6.63c0.08,0,0.14-0.06,0.14-0.14v-6.63c0-0.08-0.06-0.14-0.14-0.14h-6.63
		c-0.08,0-0.14,0.06-0.14,0.14v6.63C245.08,385.65,245.14,385.71,245.21,385.71z"/>
	<path class="st4" d="M233.99,385.71h6.63c0.08,0,0.14-0.06,0.14-0.14v-6.63c0-0.08-0.06-0.14-0.14-0.14h-6.63
		c-0.08,0-0.14,0.06-0.14,0.14v6.63C233.85,385.65,233.91,385.71,233.99,385.71z"/>
</g>
<g>
	<path class="st2" d="M388.89,700.15H314.5c-4.77,0-8.64,3.87-8.64,8.64v17.57c0,4.4,3.29,8.03,7.55,8.56
		c0.62,0.08,1.09,0.61,1.09,1.24v9.62c0,0.56,0.71,0.79,1.03,0.33l7.58-10.59c0.24-0.33,0.62-0.53,1.02-0.53h64.76
		c4.77,0,8.63-3.86,8.63-8.63v-17.57C397.52,704.02,393.66,700.15,388.89,700.15z M323.07,720.39c-1.57,0-2.85-1.27-2.85-2.84
		s1.28-2.85,2.85-2.85c1.57,0,2.84,1.28,2.84,2.85S324.64,720.39,323.07,720.39z M337.38,720.39c-1.57,0-2.84-1.27-2.84-2.84
		s1.27-2.85,2.84-2.85c1.57,0,2.84,1.28,2.84,2.85S338.95,720.39,337.38,720.39z M351.69,720.39c-1.57,0-2.84-1.27-2.84-2.84
		s1.27-2.85,2.84-2.85s2.85,1.28,2.85,2.85S353.26,720.39,351.69,720.39z M366.01,720.39c-1.57,0-2.85-1.27-2.85-2.84
		s1.28-2.85,2.85-2.85c1.57,0,2.84,1.28,2.84,2.85S367.58,720.39,366.01,720.39z M380.32,720.39c-1.57,0-2.84-1.27-2.84-2.84
		s1.27-2.85,2.84-2.85c1.57,0,2.84,1.28,2.84,2.85S381.89,720.39,380.32,720.39z"/>
</g>
<g>
	<path class="st2" d="M276.59,447.46h-60.8c-1.32,0-2.39,1.07-2.39,2.38v60.8c0,1.32,1.07,2.39,2.39,2.39h60.8
		c1.32,0,2.39-1.07,2.39-2.39v-60.8C278.98,448.53,277.91,447.46,276.59,447.46z M277.98,510.64c0,0.77-0.63,1.39-1.39,1.39h-60.8
		c-0.77,0-1.39-0.62-1.39-1.39v-60.8c0-0.76,0.62-1.38,1.39-1.38h60.8c0.76,0,1.39,0.62,1.39,1.38V510.64z"/>
	<g>
		<path class="st2" d="M257.44,472.85h-0.08v-3.7c0-6.07-4.93-11.01-11.01-11.01c-6.07,0-11.01,4.94-11.01,11.01v3.7h-0.33
			c-1.71,0-3.09,1.38-3.09,3.09v13.94c0,1.7,1.38,3.09,3.09,3.09h22.43c1.7,0,3.09-1.39,3.09-3.09v-13.94
			C260.53,474.23,259.14,472.85,257.44,472.85z M248,483.11c-0.26,0.15-0.4,0.43-0.33,0.72l0.63,2.31c0.37,1.37-0.66,2.72-2.08,2.72
			s-2.46-1.35-2.09-2.72l0.62-2.28c0.08-0.29-0.07-0.58-0.33-0.73c-1.09-0.62-1.82-1.78-1.82-3.12c0-2.22,2.02-3.98,4.33-3.52
			c1.36,0.28,2.49,1.39,2.77,2.75C250.04,480.88,249.27,482.37,248,483.11z M254.58,472.85h-16.45v-3.7c0-4.53,3.69-8.22,8.22-8.22
			c4.54,0,8.23,3.69,8.23,8.22V472.85z"/>
		<path class="st2" d="M233.24,497.86h25.96c0.73,0,1.32-0.59,1.32-1.32l0,0c0-0.73-0.59-1.32-1.32-1.32h-25.96
			c-0.73,0-1.32,0.59-1.32,1.32l0,0C231.92,497.27,232.51,497.86,233.24,497.86z"/>
		<path class="st2" d="M233.24,502.35h25.96c0.73,0,1.32-0.59,1.32-1.32l0,0c0-0.73-0.59-1.32-1.32-1.32h-25.96
			c-0.73,0-1.32,0.59-1.32,1.32l0,0C231.92,501.76,232.51,502.35,233.24,502.35z"/>
	</g>
</g>
<g>
	<path class="st4" d="M306.79,670.7h23.38c1.06,0,1.92-0.86,1.92-1.92l0,0c0-1.06-0.86-1.92-1.92-1.92h-23.38
		c-1.06,0-1.92,0.86-1.92,1.92l0,0C304.86,669.84,305.72,670.7,306.79,670.7z"/>
	<path class="st4" d="M289.14,679.23h41.03c1.06,0,1.92-0.86,1.92-1.92l0,0c0-1.06-0.86-1.92-1.92-1.92h-41.03
		c-1.06,0-1.92,0.86-1.92,1.92l0,0C287.21,678.37,288.07,679.23,289.14,679.23z"/>
	<path class="st4" d="M320.15,687.76h10.01c1.06,0,1.92-0.86,1.92-1.92l0,0c0-1.06-0.86-1.92-1.92-1.92h-10.01
		c-1.06,0-1.92,0.86-1.92,1.92l0,0C318.23,686.9,319.09,687.76,320.15,687.76z"/>
	<path class="st4" d="M289.14,687.76h24.49c1.06,0,1.92-0.86,1.92-1.92l0,0c0-1.06-0.86-1.92-1.92-1.92h-24.49
		c-1.06,0-1.92,0.86-1.92,1.92l0,0C287.21,686.9,288.07,687.76,289.14,687.76z"/>
	<path class="st4" d="M289.14,670.7h10.62c1.06,0,1.92-0.86,1.92-1.92l0,0c0-1.06-0.86-1.92-1.92-1.92h-10.62
		c-1.06,0-1.92,0.86-1.92,1.92l0,0C287.21,669.84,288.07,670.7,289.14,670.7z"/>
</g>
<path class="st2" d="M296.38,161.93c2.16,0,4.17,0.59,5.9,1.62c0.69-6.18,5.93-10.98,12.3-10.98c6.84,0,12.38,5.54,12.38,12.38
	c0,0.46-0.03,0.91-0.08,1.36c0.57-0.11,1.15-0.16,1.75-0.16c5.22,0,9.45,4.23,9.45,9.45c0,5.22-4.23,9.45-9.45,9.45h-32.25
	c-6.38,0-11.55-5.17-11.55-11.55C284.83,167.11,290,161.93,296.38,161.93z"/>
<g>
	<path class="st2" d="M470.46,655.12h-7.82v-70.66c3.78-2.2,7.3-4.97,10.46-8.31c17.81-18.83,16.98-48.53-1.84-66.34
		c-10.05-9.5-23.19-13.7-35.97-12.68l-95.14-79.81l1.88-2.3c3.17-3.88,2.6-9.59-1.27-12.77l-12.37-10.13l-6.06,7.4
		c-1.6-4.07-4.24-7.79-7.86-10.76c-11.31-9.27-27.99-7.61-37.26,3.7c-2.03,2.48-3.54,5.21-4.53,8.07l-117,53.38
		c-16.44-10.09-38.25-7.25-51.48,7.69c-4.24,4.79-2.32,12.59,2.94,20.91l-26.29,43.93l8.71,4.61l30.55-33.04
		c2.88,2.78,5.96,5.43,9.1,7.85l-34.07,26.89l3.91,9.04l49.81-24.73c6.76,2.28,12.58,2.15,15.99-1.69
		c9.51-10.72,12.3-25.08,8.67-37.92l106.43-48.57c0.31,0.3,0.63,0.57,0.96,0.84c3.62,2.97,7.79,4.82,12.1,5.58l-6.06,7.4
		l12.37,10.14c3.87,3.17,9.59,2.6,12.76-1.27l1.63-1.99l84.59,70.96c-10.56,18.37-7.61,42.24,8.46,57.45
		c2.67,2.53,5.57,4.68,8.62,6.46v70.67h-7.82c-2.67,0-4.84,2.16-4.84,4.84v1.29c0,2.67,2.17,4.84,4.84,4.84h7.82v8.44h-7.82
		c-2.67,0-4.84,2.17-4.84,4.84v1.29c0,2.67,2.17,4.84,4.84,4.84h7.82v233.32h47.26V685.5h7.82c2.67,0,4.84-2.17,4.84-4.84v-1.29
		c0-2.67-2.17-4.84-4.84-4.84h-7.82v-8.44h7.82c2.67,0,4.84-2.17,4.84-4.84v-1.29C475.3,657.28,473.13,655.12,470.46,655.12z
		 M303.47,412.66c-1.62,3.41-5.7,4.85-9.11,3.23c-3.41-1.62-4.85-5.7-3.23-9.11c1.62-3.41,5.7-4.86,9.11-3.23
		C303.65,405.17,305.1,409.25,303.47,412.66z M445.43,549.97c-3.35,3.54-8.94,3.69-12.48,0.34c-3.54-3.35-3.7-8.93-0.35-12.47
		s8.94-3.7,12.48-0.35C448.62,540.84,448.77,546.42,445.43,549.97z"/>
</g>
<g>
	<g>
		<g>
			<polygon class="st4" points="220.54,298.41 213.9,291.76 220.55,285.11 221.25,285.82 215.31,291.76 221.25,297.7 			"/>
			<polygon class="st4" points="226.62,299.3 225.68,298.96 230.67,285.3 231.61,285.64 			"/>
			<polygon class="st4" points="236.37,297.7 242.31,291.76 236.37,285.82 237.07,285.11 243.72,291.76 237.08,298.41 			"/>
			<path class="st2" d="M203.03,242.48v72.22h120.52v-72.22H203.03z M315.65,304.14H209.48v-23.68h106.17V304.14z M269.26,261.4
				v3.29h-59.78v-3.29H269.26z M209.48,257.61v-3.28h12.77v3.28H209.48z M231.12,268.69v3.28h-21.64v-3.28H231.12z"/>
			<path class="st2" d="M322.44,228.63H204.2c-0.61,0-1.11,0.5-1.11,1.11v13.03h120.46v-13.03
				C323.55,229.13,323.06,228.63,322.44,228.63z M232.79,233.28c1.34,0,2.42,1.09,2.42,2.42c0,1.34-1.08,2.42-2.42,2.42
				c-1.33,0-2.42-1.08-2.42-2.42C230.37,234.37,231.46,233.28,232.79,233.28z M221.73,233.28c1.33,0,2.42,1.09,2.42,2.42
				c0,1.34-1.09,2.42-2.42,2.42c-1.34,0-2.42-1.08-2.42-2.42C219.31,234.37,220.39,233.28,221.73,233.28z M210.66,233.28
				c1.34,0,2.42,1.09,2.42,2.42c0,1.34-1.08,2.42-2.42,2.42c-1.33,0-2.42-1.08-2.42-2.42C208.24,234.37,209.33,233.28,210.66,233.28
				z"/>
		</g>
	</g>
	<g>
		<g>
			<polygon class="st4" points="221.25,285.82 215.31,291.76 221.25,297.7 220.54,298.41 213.9,291.76 220.55,285.11 			"/>
			<polygon class="st4" points="230.67,285.3 231.61,285.64 226.62,299.3 225.68,298.96 			"/>
			<polygon class="st4" points="243.72,291.76 237.08,298.41 236.37,297.7 242.31,291.76 236.37,285.82 237.07,285.11 			"/>
		</g>
		<g>
			<g>
				<polygon class="st4" points="215.31,291.76 221.25,297.7 220.54,298.41 213.9,291.76 220.55,285.11 221.25,285.82 				"/>
				<polygon class="st4" points="243.72,291.76 237.08,298.41 236.37,297.7 242.31,291.76 236.37,285.82 237.07,285.11 				"/>
				<polygon class="st4" points="231.61,285.64 226.62,299.3 225.68,298.96 230.67,285.3 				"/>
			</g>
		</g>
	</g>
</g>
<g>
	<g>
		<path class="st2" d="M105.64,249.81c-0.24,0.01-0.48,0.01-0.72,0.01v-0.02C105.16,249.8,105.4,249.81,105.64,249.81z"/>
		<path class="st2" d="M106.44,249.79v0.02c-0.27,0-0.54,0-0.8-0.01C105.91,249.81,106.17,249.8,106.44,249.79z"/>
		<path class="st2" d="M141.41,159.71c-1.98-1.98-4.25-3.5-6.66-4.62l16.77-36.28c6.56,3.03,12.71,7.24,18.12,12.65
			c12.28,12.28,18.42,28.37,18.42,44.46h-39.92C148.13,170.05,145.88,164.19,141.41,159.71z"/>
		<path class="st2" d="M127.87,186.94h39.92c0,16.09-6.13,32.18-18.41,44.46c-11.89,11.89-27.36,18.02-42.93,18.4
			c-0.27,0.01-0.54,0.01-0.8,0.01c-0.24,0-0.48-0.01-0.72-0.01c-8.53-0.2-17.04-2.14-24.93-5.8l16.7-36.12
			c2.81,1.3,5.81,2.03,8.84,2.14c5.66-0.16,11.28-2.4,15.6-6.73c0.02-0.02,0.04-0.05,0.06-0.07
			C125.66,198.72,127.89,192.83,127.87,186.94z"/>
		<path class="st5" d="M90.1,203.29c1.97,1.97,4.2,3.48,6.59,4.58L79.99,244c-6.52-3.02-12.62-7.22-18-12.6
			c-24.55-24.55-24.55-64.35,0-88.91c19.14-19.14,47.56-23.36,70.79-12.66L116,166.12c-8.48-3.91-18.83-2.4-25.84,4.55
			c-0.02,0.02-0.04,0.04-0.07,0.06C81.1,179.72,81.1,194.29,90.1,203.29z"/>
	</g>
</g>
<g>
	<g>
		<g>
			<g>
				<path class="st2" d="M162.09,570.85v128.3h88.42v-128.3H162.09z M241.05,683.3c0,1.11-0.89,2-2,2h-65.66c-1.1,0-2-0.89-2-2
					v-30.07c0-1.1,0.9-2,2-2h65.66c1.11,0,2,0.9,2,2V683.3z M241.05,639.26c0,1.11-0.89,2-2,2h-65.66c-1.1,0-2-0.89-2-2v-6.37
					c0-1.1,0.9-2,2-2h65.66c1.11,0,2,0.9,2,2V639.26z"/>
				<path class="st2" d="M161.99,708.33v64.95h88.3l0.33-1.36v-63.59H161.99z M210.05,720.13c2.4,0,4.35,1.95,4.35,4.36
					c0,2.4-1.95,4.35-4.35,4.35c-2.41,0-4.36-1.95-4.36-4.35C205.69,722.08,207.64,720.13,210.05,720.13z M244.11,765.84h-77.08
					v-34.63l18.74-15.06l23.39,28.16l15.92-13.68l19.03,23.77V765.84z"/>
				<path class="st2" d="M251.76,537.05L160.91,537c-10.93-0.01-19.8,8.85-19.8,19.78l-0.05,227.77c0,10.92,8.86,19.78,19.78,19.79
					l90.85,0.05c10.94,0.01,19.8-8.85,19.81-19.78l0.04-227.77C271.54,545.92,262.69,537.06,251.76,537.05z M265.47,781.28
					c0,7.66-6.21,13.86-13.86,13.86l-90.67-0.05c-7.66-0.01-13.86-6.21-13.86-13.87l0.05-222.31c0-7.66,6.21-13.86,13.87-13.86
					l90.67,0.06c7.65,0,13.85,6.21,13.85,13.86L265.47,781.28z"/>
			</g>
		</g>
	</g>
	<g>
		<g>
			<path class="st2" d="M161.99,708.33v64.95h88.3l0.33-1.36v-63.59H161.99z M210.05,720.13c2.4,0,4.35,1.95,4.35,4.36
				c0,2.4-1.95,4.35-4.35,4.35c-2.41,0-4.36-1.95-4.36-4.35C205.69,722.08,207.64,720.13,210.05,720.13z M244.11,765.84h-77.08
				v-34.63l18.74-15.06l23.39,28.16l15.92-13.68l19.03,23.77V765.84z"/>
		</g>
	</g>
	<path class="st2" d="M162.09,570.85v128.3h88.42v-128.3H162.09z M241.05,683.3c0,1.11-0.89,2-2,2h-65.66c-1.1,0-2-0.89-2-2v-30.07
		c0-1.1,0.9-2,2-2h65.66c1.11,0,2,0.9,2,2V683.3z M241.05,639.26c0,1.11-0.89,2-2,2h-65.66c-1.1,0-2-0.89-2-2v-6.37c0-1.1,0.9-2,2-2
		h65.66c1.11,0,2,0.9,2,2V639.26z"/>
</g>
<g>
	<path class="st2" d="M312.97,470.01h37.64c4.39,0,7.95,3.56,7.95,7.95v21.78c0,5.76,1.07,11.47,3.15,16.85l0.03,0.09l-59.9-0.05
		l0,0c2.1-5.4,3.18-11.14,3.18-16.94v-21.73C305.02,473.57,308.58,470.01,312.97,470.01z"/>
	<path class="st2" d="M350.61,652.59h-37.64c-4.39,0-7.95-3.56-7.95-7.95v-21.78c0-5.76-1.07-11.47-3.15-16.85l-0.03-0.09l59.9,0.05
		l0,0c-2.1,5.4-3.18,11.14-3.18,16.94v21.73C358.56,649.03,355,652.59,350.61,652.59z"/>
	<g>
		<path class="st2" d="M314.36,538.62c0.18,0.17,0.2,0.45,0.03,0.64l-2.93,3.27h-0.01l-2.28-1.99c-0.18-0.15-0.24-0.42-0.11-0.61
			c0.15-0.24,0.47-0.28,0.68-0.1l1.63,1.42c0,0,0.01,0,0.02,0l2.32-2.6C313.88,538.47,314.17,538.45,314.36,538.62z"/>
		<path class="st2" d="M362.34,532.93h-61.16c0,0-0.01,0-0.01,0.01v15.16l0.01,0.01h61.16c0.01,0,0.01-0.01,0.01-0.01v-15.16
			C362.35,532.93,362.35,532.93,362.34,532.93z M315.89,544.65c0,0.01,0,0.02-0.01,0.02h-8.27c-0.01,0-0.01-0.01-0.01-0.02v-8.27
			c0,0,0-0.01,0.01-0.01h8.27c0.01,0,0.01,0.01,0.01,0.01V544.65z"/>
		<path class="st2" d="M314.36,557.76c0.18,0.17,0.2,0.46,0.03,0.65l-2.93,3.26c0,0.01-0.01,0.01-0.01,0l-2.28-1.98
			c-0.18-0.16-0.24-0.42-0.11-0.62c0.15-0.23,0.47-0.27,0.68-0.09l1.63,1.42c0,0,0.01,0,0.02-0.01l2.32-2.59
			C313.88,557.61,314.17,557.6,314.36,557.76z"/>
		<path class="st2" d="M362.34,552.08h-61.16c0,0-0.01,0-0.01,0.01v15.15c0,0.01,0.01,0.01,0.01,0.01h61.16c0.01,0,0.01,0,0.01-0.01
			v-15.15C362.35,552.08,362.35,552.08,362.34,552.08z M315.89,563.8c0,0.01,0,0.01-0.01,0.01h-8.27c-0.01,0-0.01,0-0.01-0.01v-8.27
			c0-0.01,0-0.01,0.01-0.01h8.27c0.01,0,0.01,0,0.01,0.01V563.8z"/>
		<path class="st2" d="M314.36,576.86c0.18,0.17,0.2,0.46,0.03,0.65l-2.93,3.26c0,0.01-0.01,0.01-0.01,0l-2.28-1.98
			c-0.18-0.16-0.24-0.42-0.11-0.62c0.15-0.23,0.47-0.27,0.68-0.09l1.63,1.42c0,0,0.01,0,0.02-0.01l2.32-2.59
			C313.88,576.71,314.17,576.7,314.36,576.86z"/>
		<path class="st2" d="M362.34,571.18h-61.16c0,0-0.01,0-0.01,0.01v15.15c0,0.01,0.01,0.01,0.01,0.01h61.16c0.01,0,0.01,0,0.01-0.01
			v-15.15C362.35,571.18,362.35,571.18,362.34,571.18z M315.89,582.9c0,0.01,0,0.01-0.01,0.01h-8.27c-0.01,0-0.01,0-0.01-0.01v-8.27
			c0-0.01,0-0.01,0.01-0.01h8.27c0.01,0,0.01,0,0.01,0.01V582.9z"/>
		<path class="st2" d="M361.38,515.7c-0.66-0.08-1.34-0.12-2.02-0.12l-55.13-0.04c-0.69,0-1.37,0.04-2.03,0.12
			c-8.75,0.99-15.53,8.42-15.53,17.42l-0.04,56.07c0,8.99,6.75,16.4,15.46,17.42c0.68,0.09,1.38,0.13,2.08,0.13l55.13,0.05
			c0.75,0,1.48-0.05,2.2-0.14c8.65-1.08,15.35-8.46,15.35-17.41l0.04-52.91v-3.15C376.9,524.13,370.12,516.71,361.38,515.7z
			 M371.51,587.84c0,6.79-5.5,12.3-12.29,12.29l-54.97-0.04c-6.78-0.01-12.28-5.51-12.28-12.3l0.04-54.41
			c0-6.79,5.5-12.29,12.29-12.29l54.97,0.05c6.79,0,12.28,5.5,12.28,12.29L371.51,587.84z"/>
		<path class="st2" d="M314.36,538.62c0.18,0.17,0.2,0.45,0.03,0.64l-2.93,3.27h-0.01l-2.28-1.99c-0.18-0.15-0.24-0.42-0.11-0.61
			c0.15-0.24,0.47-0.28,0.68-0.1l1.63,1.42c0,0,0.01,0,0.02,0l2.32-2.6C313.88,538.47,314.17,538.45,314.36,538.62z"/>
		<path class="st2" d="M362.34,532.93h-61.16c0,0-0.01,0-0.01,0.01v15.16l0.01,0.01h61.16c0.01,0,0.01-0.01,0.01-0.01v-15.16
			C362.35,532.93,362.35,532.93,362.34,532.93z M315.89,544.65c0,0.01,0,0.02-0.01,0.02h-8.27c-0.01,0-0.01-0.01-0.01-0.02v-8.27
			c0,0,0-0.01,0.01-0.01h8.27c0.01,0,0.01,0.01,0.01,0.01V544.65z"/>
		<path class="st2" d="M314.36,557.76c0.18,0.17,0.2,0.46,0.03,0.65l-2.93,3.26c0,0.01-0.01,0.01-0.01,0l-2.28-1.98
			c-0.18-0.16-0.24-0.42-0.11-0.62c0.15-0.23,0.47-0.27,0.68-0.09l1.63,1.42c0,0,0.01,0,0.02-0.01l2.32-2.59
			C313.88,557.61,314.17,557.6,314.36,557.76z"/>
		<path class="st2" d="M362.34,552.08h-61.16c0,0-0.01,0-0.01,0.01v15.15c0,0.01,0.01,0.01,0.01,0.01h61.16c0.01,0,0.01,0,0.01-0.01
			v-15.15C362.35,552.08,362.35,552.08,362.34,552.08z M315.89,563.8c0,0.01,0,0.01-0.01,0.01h-8.27c-0.01,0-0.01,0-0.01-0.01v-8.27
			c0-0.01,0-0.01,0.01-0.01h8.27c0.01,0,0.01,0,0.01,0.01V563.8z"/>
		<path class="st2" d="M314.36,576.86c0.18,0.17,0.2,0.46,0.03,0.65l-2.93,3.26c0,0.01-0.01,0.01-0.01,0l-2.28-1.98
			c-0.18-0.16-0.24-0.42-0.11-0.62c0.15-0.23,0.47-0.27,0.68-0.09l1.63,1.42c0,0,0.01,0,0.02-0.01l2.32-2.59
			C313.88,576.71,314.17,576.7,314.36,576.86z"/>
		<path class="st2" d="M362.34,571.18h-61.16c0,0-0.01,0-0.01,0.01v15.15c0,0.01,0.01,0.01,0.01,0.01h61.16c0.01,0,0.01,0,0.01-0.01
			v-15.15C362.35,571.18,362.35,571.18,362.34,571.18z M315.89,582.9c0,0.01,0,0.01-0.01,0.01h-8.27c-0.01,0-0.01,0-0.01-0.01v-8.27
			c0-0.01,0-0.01,0.01-0.01h8.27c0.01,0,0.01,0,0.01,0.01V582.9z"/>
	</g>
	<path class="st2" d="M376.89,555.77L376.89,555.77l0-19.48h0c2.47,0,4.47,2,4.47,4.47v10.53
		C381.37,553.77,379.37,555.77,376.89,555.77z"/>
	<g>
		<g class="st6">
			<path class="st2" d="M362.34,532.93h-61.16c0,0-0.01,0-0.01,0.01v15.16l0.01,0.01h61.16c0.01,0,0.01-0.01,0.01-0.01v-15.16
				C362.35,532.93,362.35,532.93,362.34,532.93z M315.89,544.65c0,0.01,0,0.02-0.01,0.02h-8.27c-0.01,0-0.01-0.01-0.01-0.02v-8.27
				c0,0,0-0.01,0.01-0.01h8.27c0.01,0,0.01,0.01,0.01,0.01V544.65z"/>
			<path class="st2" d="M362.34,552.08h-61.16c0,0-0.01,0-0.01,0.01v15.15c0,0.01,0.01,0.01,0.01,0.01h61.16
				c0.01,0,0.01,0,0.01-0.01v-15.15C362.35,552.08,362.35,552.08,362.34,552.08z M315.89,563.8c0,0.01,0,0.01-0.01,0.01h-8.27
				c-0.01,0-0.01,0-0.01-0.01v-8.27c0-0.01,0-0.01,0.01-0.01h8.27c0.01,0,0.01,0,0.01,0.01V563.8z"/>
			<path class="st2" d="M362.34,571.18h-61.16c0,0-0.01,0-0.01,0.01v15.15c0,0.01,0.01,0.01,0.01,0.01h61.16
				c0.01,0,0.01,0,0.01-0.01v-15.15C362.35,571.18,362.35,571.18,362.34,571.18z M315.89,582.9c0,0.01,0,0.01-0.01,0.01h-8.27
				c-0.01,0-0.01,0-0.01-0.01v-8.27c0-0.01,0-0.01,0.01-0.01h8.27c0.01,0,0.01,0,0.01,0.01V582.9z"/>
		</g>
		<g>
			<g>
				<path class="st2" d="M314.39,539.26l-2.93,3.27h-0.01l-2.28-1.99c-0.18-0.15-0.24-0.42-0.11-0.61c0.15-0.24,0.47-0.28,0.68-0.1
					l1.63,1.42c0,0,0.01,0,0.02,0l2.32-2.6c0.17-0.18,0.46-0.2,0.65-0.03C314.54,538.79,314.56,539.07,314.39,539.26z"/>
			</g>
		</g>
		<g>
			<g>
				<path class="st2" d="M314.39,558.41l-2.93,3.26c0,0.01-0.01,0.01-0.01,0l-2.28-1.98c-0.18-0.16-0.24-0.42-0.11-0.62
					c0.15-0.23,0.47-0.27,0.68-0.09l1.63,1.42c0,0,0.01,0,0.02-0.01l2.32-2.59c0.17-0.19,0.46-0.2,0.65-0.04
					C314.54,557.93,314.56,558.22,314.39,558.41z"/>
			</g>
		</g>
		<g>
			<g>
				<path class="st2" d="M314.39,577.51l-2.93,3.26c0,0.01-0.01,0.01-0.01,0l-2.28-1.98c-0.18-0.16-0.24-0.42-0.11-0.62
					c0.15-0.23,0.47-0.27,0.68-0.09l1.63,1.42c0,0,0.01,0,0.02-0.01l2.32-2.59c0.17-0.19,0.46-0.2,0.65-0.04
					C314.54,577.03,314.56,577.32,314.39,577.51z"/>
			</g>
		</g>
	</g>
</g>
<g>
	<g>
		<path class="st2" d="M370.1,0.63l-1.6,3.97c-0.22,0.54-0.04,1.17,0.39,1.41c0.43,0.24,0.96,0,1.18-0.54l0,0l0.01-0.02l1.58-3.93
			l0.01-0.02c0.22-0.54,0.04-1.17-0.39-1.4C370.85-0.15,370.32,0.1,370.1,0.63z"/>
		<path class="st2" d="M365.05,14.01l-1.37,4.08c-0.19,0.56,0.03,1.18,0.48,1.38c0.45,0.2,0.97-0.09,1.16-0.64l0,0l0.01-0.02
			l1.36-4.04l0.01-0.02c0.19-0.56-0.03-1.17-0.48-1.37C365.75,13.16,365.23,13.45,365.05,14.01z"/>
		<path class="st2" d="M360.72,27.71l-1.16,4.16c-0.16,0.57,0.09,1.18,0.55,1.35c0.47,0.17,0.98-0.16,1.14-0.73l0,0l0.01-0.02
			l1.15-4.13l0.01-0.02c0.16-0.57-0.09-1.18-0.55-1.34C361.38,26.81,360.88,27.14,360.72,27.71z"/>
		<path class="st2" d="M357.06,41.66l-0.97,4.22c-0.14,0.59,0.14,1.18,0.62,1.31c0.48,0.14,0.98-0.23,1.11-0.82l0,0l0-0.02
			l0.96-4.19l0-0.02c0.13-0.59-0.14-1.17-0.62-1.31C357.69,40.71,357.2,41.07,357.06,41.66z"/>
		<path class="st2" d="M354.04,55.8l-0.79,4.27c-0.11,0.6,0.2,1.17,0.69,1.28c0.49,0.11,0.98-0.29,1.09-0.89l0,0l0-0.02l0.78-4.24
			l0-0.02c0.11-0.6-0.2-1.17-0.69-1.28C354.64,54.8,354.15,55.2,354.04,55.8z"/>
		<path class="st2" d="M351.63,70.07l-0.61,4.3c-0.09,0.61,0.25,1.17,0.75,1.24c0.5,0.08,0.97-0.35,1.06-0.96l0,0l0-0.02l0.6-4.27
			l0-0.02c0.09-0.61-0.25-1.16-0.75-1.24C352.19,69.04,351.71,69.47,351.63,70.07z"/>
		<path class="st2" d="M349.8,84.45l-0.43,4.32c-0.06,0.62,0.3,1.16,0.8,1.2c0.51,0.05,0.97-0.42,1.03-1.03l0,0l0-0.02l0.43-4.29
			l0-0.02c0.06-0.62-0.3-1.15-0.8-1.2C350.32,83.37,349.87,83.83,349.8,84.45z"/>
		<path class="st2" d="M348.56,98.88l-0.26,4.34c-0.04,0.62,0.35,1.14,0.86,1.16c0.51,0.02,0.96-0.47,1-1.1l0,0l0-0.02l0.26-4.3
			l0-0.02c0.04-0.62-0.35-1.14-0.86-1.16C349.04,97.76,348.59,98.25,348.56,98.88z"/>
		<path class="st2" d="M347.87,113.32l-0.13,4.33c-0.02,0.63,0.39,1.13,0.9,1.13c0.52-0.01,0.95-0.52,0.97-1.15l0,0l0-0.01
			l0.12-4.31l0-0.01c0.02-0.63-0.39-1.13-0.9-1.12C348.32,112.18,347.89,112.69,347.87,113.32z"/>
		<path class="st2" d="M347.55,127.75l-0.03,4.33c-0.01,0.63,0.41,1.13,0.93,1.1c0.52-0.02,0.95-0.55,0.95-1.19l0,0l0-0.01
			l0.03-4.31l0-0.01c0-0.63-0.41-1.12-0.93-1.1C347.98,126.59,347.56,127.12,347.55,127.75z"/>
		<path class="st2" d="M347.54,142.17l0.06,4.32c0.01,0.64,0.44,1.12,0.96,1.08c0.52-0.04,0.94-0.59,0.93-1.22v0l0-0.01l-0.06-4.3
			l0-0.01c-0.01-0.63-0.44-1.12-0.96-1.08C347.95,140.99,347.53,141.53,347.54,142.17z"/>
		<path class="st2" d="M347.83,156.56l0.14,4.31c0.02,0.64,0.47,1.11,0.99,1.06c0.53-0.05,0.94-0.62,0.92-1.25l0,0l0-0.01l-0.14-4.3
			l0-0.01c-0.02-0.64-0.47-1.11-0.99-1.05C348.22,155.37,347.81,155.93,347.83,156.56z"/>
		<path class="st2" d="M348.4,170.93l0.22,4.3c0.03,0.64,0.49,1.1,1.02,1.03c0.53-0.07,0.93-0.65,0.9-1.29l0,0l0-0.01l-0.23-4.29
			l0-0.01c-0.03-0.64-0.49-1.1-1.02-1.03C348.77,169.72,348.37,170.29,348.4,170.93z"/>
		<path class="st2" d="M349.24,185.26l0.3,4.29c0.05,0.64,0.51,1.1,1.05,1.01c0.53-0.08,0.93-0.68,0.88-1.32l0,0l0-0.01l-0.31-4.28
			l0-0.01c-0.05-0.64-0.51-1.09-1.05-1.01C349.59,184.03,349.2,184.62,349.24,185.26z"/>
		<path class="st2" d="M350.35,199.55l0.38,4.28c0.06,0.65,0.54,1.09,1.07,0.99c0.53-0.1,0.92-0.7,0.86-1.35l0,0l0-0.01l-0.38-4.26
			l0-0.01c-0.06-0.64-0.54-1.09-1.07-0.99C350.67,198.3,350.29,198.91,350.35,199.55z"/>
		<path class="st2" d="M351.7,213.79l0.45,4.26c0.07,0.65,0.56,1.08,1.1,0.97c0.54-0.11,0.92-0.73,0.85-1.38l0-0.01l-0.45-4.25
			c-0.07-0.65-0.55-1.08-1.09-0.97C352.01,212.53,351.63,213.15,351.7,213.79z"/>
		<path class="st2" d="M353.28,227.99l0.52,4.25c0.08,0.65,0.58,1.07,1.12,0.95c0.54-0.13,0.91-0.75,0.83-1.4l0-0.01l-0.52-4.23
			c-0.08-0.65-0.57-1.07-1.11-0.95C353.58,226.71,353.2,227.34,353.28,227.99z"/>
		<path class="st2" d="M357.09,256.22l0.64,4.22c0.1,0.65,0.62,1.06,1.16,0.91c0.54-0.15,0.9-0.8,0.8-1.45l0-0.01l-0.64-4.2
			c-0.1-0.65-0.61-1.06-1.16-0.91C357.35,254.91,356.99,255.57,357.09,256.22z"/>
		<path class="st2" d="M359.29,270.25l0.69,4.2c0.11,0.65,0.64,1.05,1.18,0.89c0.54-0.16,0.9-0.82,0.79-1.48l0-0.01l-0.7-4.19
			c-0.11-0.65-0.63-1.05-1.18-0.9C359.54,268.94,359.18,269.6,359.29,270.25z"/>
		<path class="st2" d="M361.66,284.24l0.75,4.18c0.12,0.66,0.65,1.05,1.2,0.88c0.55-0.17,0.89-0.84,0.78-1.5l0-0.01l-0.75-4.17
			c-0.11-0.65-0.65-1.05-1.19-0.88C361.9,282.91,361.55,283.58,361.66,284.24z"/>
		<path class="st2" d="M364.2,298.17l0.79,4.17c0.12,0.66,0.67,1.04,1.22,0.86c0.55-0.18,0.89-0.86,0.76-1.52l0-0.01l-0.79-4.16
			c-0.12-0.66-0.67-1.04-1.21-0.86C364.42,296.83,364.08,297.51,364.2,298.17z"/>
		<path class="st2" d="M366.89,312.04l0.83,4.15c0.13,0.66,0.68,1.04,1.23,0.85c0.55-0.19,0.89-0.88,0.75-1.54l0-0.01l-0.84-4.14
			c-0.13-0.66-0.68-1.04-1.23-0.85C367.1,310.7,366.76,311.39,366.89,312.04z"/>
		<path class="st2" d="M369.72,325.88l0.87,4.14c0.14,0.66,0.7,1.03,1.25,0.83c0.55-0.2,0.88-0.9,0.74-1.56l0,0l-0.87-4.13
			c-0.14-0.66-0.69-1.03-1.24-0.84C369.91,324.52,369.58,325.22,369.72,325.88z"/>
		<path class="st2" d="M372.67,339.66l0.91,4.13c0.15,0.66,0.71,1.03,1.26,0.82c0.55-0.21,0.88-0.91,0.74-1.57l0,0l-0.91-4.12
			c-0.14-0.66-0.71-1.03-1.26-0.83C372.85,338.3,372.52,339,372.67,339.66z"/>
		<path class="st2" d="M375.72,353.41l0.94,4.12c0.15,0.66,0.72,1.03,1.28,0.82c0.55-0.21,0.88-0.93,0.73-1.59l0,0l-0.94-4.11
			c-0.15-0.66-0.72-1.03-1.27-0.82C375.9,352.03,375.57,352.74,375.72,353.41z"/>
		<path class="st2" d="M378.87,367.11l0.96,4.1c0.16,0.67,0.73,1.03,1.29,0.81c0.56-0.22,0.88-0.94,0.72-1.61l0,0l-0.96-4.1
			c-0.16-0.67-0.73-1.03-1.29-0.81C379.04,365.73,378.72,366.45,378.87,367.11z"/>
		<path class="st2" d="M382.11,380.78l0.98,4.1c0.16,0.67,0.74,1.03,1.3,0.8c0.56-0.23,0.88-0.95,0.72-1.62l0,0l-0.99-4.09
			c-0.16-0.67-0.74-1.03-1.3-0.8C382.27,379.39,381.95,380.12,382.11,380.78z"/>
		<path class="st2" d="M385.41,394.43l1,4.09c0.16,0.67,0.75,1.03,1.31,0.8c0.56-0.23,0.88-0.96,0.72-1.63l0,0l-1-4.08
			c-0.16-0.67-0.75-1.03-1.31-0.8C385.57,393.03,385.24,393.76,385.41,394.43z"/>
		<path class="st2" d="M388.77,408.04l1.02,4.08c0.17,0.67,0.76,1.03,1.32,0.8c0.56-0.23,0.88-0.97,0.72-1.65l0,0l-1.02-4.08
			c-0.17-0.67-0.76-1.03-1.32-0.79C388.92,406.64,388.6,407.37,388.77,408.04z"/>
		<path class="st2" d="M392.17,421.64l1.03,4.08c0.17,0.68,0.77,1.03,1.33,0.8c0.57-0.24,0.89-0.98,0.72-1.66l0,0l-1.03-4.07
			c-0.17-0.68-0.77-1.03-1.33-0.79C392.32,420.23,392,420.97,392.17,421.64z"/>
		<path class="st2" d="M395.59,435.23l1.03,4.07c0.17,0.68,0.77,1.04,1.34,0.8c0.57-0.24,0.89-0.99,0.72-1.67l0,0l-1.03-4.07
			c-0.17-0.68-0.77-1.04-1.34-0.8C395.74,433.81,395.42,434.55,395.59,435.23z"/>
		<path class="st2" d="M399.02,448.81l1.03,4.07c0.17,0.68,0.78,1.04,1.35,0.8c0.57-0.24,0.9-0.99,0.72-1.68l0,0l-1.03-4.07
			c-0.17-0.68-0.78-1.04-1.35-0.8C399.17,447.38,398.85,448.13,399.02,448.81z"/>
		<path class="st2" d="M402.45,462.39l1.02,4.08c0.17,0.69,0.78,1.05,1.36,0.81c0.58-0.24,0.9-1,0.73-1.68l0,0l-1.03-4.08
			c-0.17-0.69-0.78-1.05-1.35-0.81C402.6,460.95,402.27,461.7,402.45,462.39z"/>
		<path class="st2" d="M405.85,475.98l1.01,4.08c0.17,0.69,0.78,1.06,1.36,0.82c0.58-0.24,0.91-1,0.74-1.69l0,0l-1.02-4.08
			c-0.17-0.69-0.78-1.06-1.36-0.82C406.01,474.53,405.68,475.29,405.85,475.98z"/>
		<path class="st2" d="M409.22,489.58l1,4.08c0.17,0.7,0.78,1.07,1.36,0.83c0.58-0.24,0.92-1,0.75-1.7l0,0l-1.01-4.09
			c-0.17-0.7-0.78-1.07-1.36-0.83C409.38,488.13,409.05,488.89,409.22,489.58z"/>
		<path class="st2" d="M412.54,503.2l0.98,4.09c0.17,0.7,0.78,1.08,1.37,0.85c0.59-0.24,0.93-1,0.76-1.7l0,0l-0.99-4.09
			c-0.17-0.7-0.78-1.08-1.37-0.84C412.7,501.74,412.37,502.5,412.54,503.2z"/>
		<path class="st2" d="M415.79,516.85l0.96,4.1c0.16,0.71,0.78,1.09,1.37,0.86c0.59-0.23,0.94-1,0.77-1.71l0,0l-0.97-4.1
			c-0.17-0.71-0.78-1.09-1.37-0.86C415.97,515.38,415.62,516.14,415.79,516.85z"/>
		<path class="st2" d="M418.97,530.52l0.94,4.11c0.16,0.71,0.78,1.11,1.37,0.88c0.6-0.23,0.95-0.99,0.79-1.71l0,0l-0.94-4.11
			c-0.16-0.71-0.78-1.1-1.37-0.87C419.15,529.04,418.8,529.81,418.97,530.52z"/>
		<path class="st2" d="M422.05,544.23l0.91,4.12c0.16,0.72,0.77,1.12,1.37,0.9c0.6-0.22,0.96-0.99,0.8-1.71l0-0.01l-0.91-4.13
			c-0.16-0.72-0.77-1.12-1.37-0.89C422.25,542.74,421.89,543.51,422.05,544.23z"/>
		<path class="st2" d="M425.03,557.98l0.87,4.13c0.15,0.73,0.77,1.14,1.37,0.92c0.61-0.22,0.97-0.98,0.82-1.71l0-0.01l-0.88-4.14
			c-0.15-0.72-0.77-1.13-1.37-0.91C425.24,556.48,424.88,557.25,425.03,557.98z"/>
		<path class="st2" d="M427.89,571.76l0.83,4.14c0.15,0.73,0.76,1.16,1.37,0.95c0.61-0.21,0.99-0.97,0.84-1.71l0-0.01l-0.84-4.15
			c-0.15-0.73-0.76-1.15-1.37-0.94C428.12,570.27,427.75,571.03,427.89,571.76z"/>
		<path class="st2" d="M430.62,585.6l0.79,4.16c0.14,0.74,0.75,1.18,1.37,0.97c0.62-0.2,1-0.96,0.87-1.7l0-0.01l-0.8-4.17
			c-0.14-0.74-0.75-1.17-1.37-0.96C430.86,584.09,430.48,584.86,430.62,585.6z"/>
		<path class="st2" d="M433.2,599.48l0.74,4.17c0.13,0.75,0.74,1.2,1.36,1c0.62-0.19,1.02-0.95,0.89-1.7l0-0.01l-0.75-4.18
			c-0.13-0.74-0.74-1.19-1.36-0.99C433.46,597.97,433.07,598.73,433.2,599.48z"/>
		<path class="st2" d="M435.62,613.41l0.69,4.19c0.12,0.75,0.73,1.22,1.35,1.03c0.63-0.18,1.04-0.94,0.91-1.69l0-0.01l-0.7-4.2
			c-0.12-0.75-0.73-1.21-1.36-1.02C435.9,611.89,435.5,612.66,435.62,613.41z"/>
		<path class="st2" d="M437.86,627.39l0.64,4.2c0.11,0.76,0.71,1.24,1.35,1.07c0.63-0.17,1.05-0.92,0.94-1.68l0-0.01l-0.64-4.22
			c-0.12-0.76-0.72-1.23-1.35-1.06C438.16,625.87,437.75,626.63,437.86,627.39z"/>
		<path class="st2" d="M439.92,641.42l0.58,4.22l0,0.01c0.1,0.77,0.71,1.26,1.34,1.09c0.64-0.16,1.07-0.91,0.96-1.68l0,0l-0.58-4.23
			c-0.11-0.76-0.71-1.25-1.34-1.09C440.24,639.9,439.81,640.65,439.92,641.42L439.92,641.42z"/>
		<path class="st2" d="M441.76,655.5l0.51,4.23l0,0.01c0.09,0.77,0.69,1.28,1.33,1.13c0.64-0.15,1.08-0.9,0.99-1.67l0,0l-0.52-4.25
			c-0.09-0.77-0.69-1.28-1.33-1.13C442.11,653.98,441.67,654.72,441.76,655.5L441.76,655.5z"/>
		<path class="st2" d="M443.4,669.63l0.45,4.25l0,0.01c0.08,0.78,0.67,1.3,1.32,1.17c0.65-0.13,1.1-0.88,1.02-1.66l0,0l-0.45-4.26
			c-0.08-0.78-0.67-1.3-1.32-1.16C443.77,668.11,443.31,668.85,443.4,669.63L443.4,669.63z"/>
		<path class="st2" d="M444.8,683.81l0.37,4.26l0,0.01c0.07,0.79,0.65,1.33,1.3,1.21c0.65-0.12,1.12-0.85,1.05-1.64l0,0l-0.38-4.28
			c-0.07-0.78-0.65-1.32-1.3-1.2C445.2,682.29,444.73,683.02,444.8,683.81L444.8,683.81z"/>
		<path class="st2" d="M445.96,698.03l0.3,4.27l0,0.01c0.06,0.79,0.63,1.35,1.29,1.25c0.66-0.1,1.14-0.83,1.09-1.62l0,0l-0.3-4.29
			c-0.06-0.79-0.63-1.35-1.29-1.24C446.39,696.51,445.9,697.24,445.96,698.03L445.96,698.03z"/>
		<path class="st2" d="M446.86,712.3l0.22,4.29l0,0.01c0.04,0.8,0.61,1.38,1.27,1.29c0.66-0.09,1.16-0.8,1.12-1.6l0,0l-0.22-4.31
			c-0.04-0.8-0.61-1.37-1.27-1.29C447.32,710.77,446.82,711.49,446.86,712.3L446.86,712.3z"/>
		<path class="st2" d="M447.5,726.59l0.14,4.3l0,0.01c0.03,0.8,0.59,1.4,1.25,1.33c0.66-0.07,1.18-0.78,1.16-1.58l0,0l-0.14-4.32
			c-0.03-0.8-0.59-1.4-1.25-1.33C447.99,725.08,447.47,725.78,447.5,726.59L447.5,726.59z"/>
		<path class="st2" d="M447.86,740.92l0.05,4.3l0,0.01c0.01,0.81,0.56,1.43,1.23,1.38c0.67-0.05,1.2-0.74,1.19-1.55l0,0l-0.05-4.33
			c-0.01-0.81-0.56-1.42-1.22-1.38c-0.67,0.05-1.2,0.74-1.19,1.55L447.86,740.92z"/>
		<path class="st2" d="M447.89,755.26l-0.06,4.31l0,0.01c-0.01,0.82,0.53,1.46,1.2,1.43c0.67-0.02,1.22-0.7,1.23-1.52l0,0l0.05-4.33
			c0.01-0.81-0.53-1.45-1.2-1.43c-0.67,0.03-1.22,0.71-1.23,1.52L447.89,755.26z"/>
		<path class="st2" d="M447.59,769.62l-0.16,4.31l0,0.01c-0.03,0.82,0.49,1.48,1.17,1.48c0.67,0,1.24-0.67,1.27-1.49l0,0l0.15-4.33
			c0.03-0.82-0.49-1.48-1.17-1.48c-0.67,0-1.24,0.67-1.27,1.49L447.59,769.62z"/>
		<path class="st2" d="M446.95,783.98l-0.26,4.31l0,0.01c-0.05,0.82,0.46,1.51,1.14,1.53c0.68,0.02,1.26-0.63,1.31-1.45l0,0
			l0.25-4.33c0.05-0.82-0.46-1.51-1.14-1.53c-0.68-0.02-1.26,0.63-1.31,1.45L446.95,783.98z"/>
		<path class="st2" d="M445.98,798.33l-0.36,4.3l0,0.01c-0.07,0.83,0.43,1.53,1.1,1.58c0.68,0.05,1.28-0.59,1.35-1.41l0,0l0.36-4.33
			c0.07-0.83-0.43-1.53-1.1-1.58s-1.28,0.59-1.35,1.41L445.98,798.33z"/>
		<path class="st2" d="M444.67,812.65l-0.46,4.29l0,0.01c-0.09,0.83,0.39,1.56,1.07,1.63c0.68,0.07,1.3-0.55,1.39-1.37l0,0
			l0.46-4.32c0.09-0.83-0.39-1.55-1.07-1.62c-0.68-0.07-1.3,0.55-1.39,1.37L444.67,812.65z"/>
		<path class="st2" d="M443.02,826.95l-0.56,4.28l0,0.01c-0.11,0.83,0.35,1.58,1.03,1.67c0.68,0.09,1.32-0.5,1.43-1.33l0,0
			l0.56-4.31c0.11-0.83-0.35-1.58-1.03-1.67c-0.68-0.09-1.32,0.5-1.42,1.33L443.02,826.95z"/>
		<path class="st2" d="M441.03,841.19l-0.67,4.26l0,0.01c-0.13,0.83,0.32,1.6,0.99,1.72c0.68,0.12,1.33-0.46,1.46-1.29l0,0
			l0.67-4.29c0.13-0.83-0.32-1.6-0.99-1.72c-0.68-0.12-1.33,0.46-1.46,1.29L441.03,841.19z"/>
		<path class="st2" d="M438.69,855.38l-0.77,4.24l0,0.01c-0.15,0.83,0.28,1.62,0.95,1.77c0.68,0.15,1.35-0.41,1.5-1.24l0,0
			l0.77-4.27c0.15-0.83-0.28-1.62-0.95-1.77c-0.68-0.14-1.35,0.41-1.5,1.24L438.69,855.38z"/>
		<path class="st2" d="M435.99,869.49l-0.88,4.22l0,0.01c-0.17,0.83,0.23,1.64,0.91,1.82c0.68,0.17,1.36-0.36,1.54-1.19l0,0
			l0.88-4.25c0.17-0.83-0.23-1.64-0.91-1.81c-0.68-0.17-1.36,0.36-1.54,1.19L435.99,869.49z"/>
		<path class="st2" d="M432.92,883.51l-0.99,4.18l0,0.02c-0.2,0.83,0.19,1.66,0.86,1.86c0.67,0.2,1.38-0.31,1.58-1.13l0,0l1-4.21
			c0.2-0.83-0.19-1.66-0.86-1.86c-0.67-0.2-1.38,0.31-1.57,1.13L432.92,883.51z"/>
		<path class="st2" d="M429.47,897.41l-1.11,4.15l0,0.02c-0.22,0.82,0.14,1.68,0.81,1.91c0.67,0.23,1.39-0.25,1.61-1.07l0,0
			l1.12-4.18c0.22-0.82-0.14-1.68-0.81-1.91c-0.67-0.23-1.39,0.25-1.61,1.07L429.47,897.41z"/>
		<path class="st2" d="M425.63,911.17l-1.23,4.1l0,0.02c-0.25,0.82,0.09,1.7,0.76,1.96c0.66,0.26,1.4-0.19,1.65-1.01l0,0l1.24-4.13
			c0.24-0.82-0.09-1.69-0.76-1.95c-0.66-0.26-1.4,0.19-1.64,1.01L425.63,911.17z"/>
	</g>
</g>
<g>
	<path class="st3" d="M435.12,198.22c-1.41-2.02-2.11-4.3-2.11-6.82c0-2.31,0.66-4.42,1.99-6.33c0.71-1.04,1.88-2.25,3.49-3.61
		c-1.06-1.31-2.12-2.32-3.18-3.06c-1.92-1.32-4.09-1.99-6.52-1.99c-1.45,0-3.21,0.35-5.29,1.04c-2,0.7-3.46,1.04-4.38,1.04
		c-0.69,0-2.1-0.3-4.22-0.92c-2.14-0.61-3.95-0.92-5.42-0.92c-3.51,0-6.41,1.47-8.7,4.41c-2.31,2.98-3.46,6.8-3.46,11.44
		c0,4.94,1.5,10.07,4.5,15.4c3.04,5.28,6.11,7.93,9.21,7.93c1.04,0,2.39-0.35,4.04-1.04c1.65-0.68,3.1-1.01,4.35-1.01
		c1.32,0,2.87,0.33,4.62,0.98c1.85,0.65,3.28,0.98,4.28,0.98c2.61,0,5.23-2,7.87-6c1.71-2.55,2.97-5.1,3.76-7.65
		C438.14,201.52,436.53,200.24,435.12,198.22z"/>
	<path class="st3" d="M421.41,175.51c-0.75,0.22-1.82,0.4-3.18,0.52c0.06-3.04,0.85-5.66,2.39-7.86c1.51-2.19,4.05-3.7,7.65-4.53
		c0.02,0.06,0.05,0.18,0.08,0.34c0.03,0.16,0.06,0.27,0.08,0.34c0,0.08,0.01,0.18,0.02,0.31c0.01,0.12,0.01,0.22,0.01,0.31
		c0,1.24-0.3,2.63-0.89,4.16c-0.61,1.53-1.56,2.94-2.84,4.22C423.62,174.41,422.51,175.14,421.41,175.51z"/>
</g>
<g>
	<g>
		<g>
			<path class="st2" d="M383.3,222.76h14.55l-15.88-15.94v14.62C381.97,222.17,382.56,222.76,383.3,222.76z"/>
			<g>
				<path class="st2" d="M370.64,240.11c-0.63-0.71-1.48-1.07-2.53-1.07c-1.05,0-1.9,0.36-2.54,1.08s-0.96,1.81-0.96,3.26
					c0,1.43,0.33,2.51,0.98,3.25c0.66,0.74,1.5,1.11,2.52,1.11s1.85-0.37,2.5-1.1s0.98-1.83,0.98-3.3
					C371.59,241.9,371.27,240.82,370.64,240.11z M370.64,240.11c-0.63-0.71-1.48-1.07-2.53-1.07c-1.05,0-1.9,0.36-2.54,1.08
					s-0.96,1.81-0.96,3.26c0,1.43,0.33,2.51,0.98,3.25c0.66,0.74,1.5,1.11,2.52,1.11s1.85-0.37,2.5-1.1s0.98-1.83,0.98-3.3
					C371.59,241.9,371.27,240.82,370.64,240.11z M397.56,224.03c-0.01,0-0.02,0-0.02,0h-15.58c-0.7,0-1.27-0.57-1.27-1.27V207.1
					c0-0.06-0.01-0.12,0-0.18c0.01-0.04,0-0.07,0-0.11h-31.25c-2.18,0-3.95,1.77-3.95,3.95v59.46c0,2.17,1.77,3.95,3.95,3.95h44.46
					c2.18,0,3.95-1.78,3.95-3.95v-46.19C397.75,224.06,397.66,224.03,397.56,224.03z M360.07,249.7h-2.55v-12.63h2.55V249.7z
					 M372.56,248.19c-1.1,1.15-2.59,1.73-4.44,1.73c-1.87,0-3.37-0.58-4.48-1.72c-1.11-1.15-1.66-2.73-1.66-4.73
					c0-1.29,0.19-2.37,0.58-3.24c0.28-0.64,0.67-1.22,1.17-1.73s1.04-0.89,1.63-1.13c0.79-0.34,1.7-0.51,2.72-0.51
					c1.86,0,3.35,0.58,4.47,1.73c1.11,1.16,1.67,2.76,1.67,4.82C374.23,245.44,373.67,247.04,372.56,248.19z M385.23,248.05
					c-0.4,0.63-0.97,1.1-1.71,1.41c-0.73,0.31-1.65,0.46-2.74,0.46c-1.6,0-2.82-0.37-3.68-1.11s-1.37-1.81-1.53-3.22l2.48-0.24
					c0.15,0.83,0.45,1.44,0.9,1.83c0.46,0.39,1.07,0.59,1.85,0.59c0.82,0,1.44-0.18,1.86-0.52c0.42-0.35,0.62-0.76,0.62-1.22
					c0-0.3-0.09-0.55-0.26-0.76c-0.18-0.21-0.48-0.39-0.92-0.55c-0.3-0.1-0.98-0.29-2.04-0.55c-1.37-0.34-2.33-0.76-2.88-1.25
					c-0.78-0.69-1.16-1.54-1.16-2.54c0-0.65,0.18-1.25,0.54-1.81c0.37-0.56,0.89-0.98,1.58-1.28c0.69-0.29,1.51-0.43,2.48-0.43
					c1.59,0,2.78,0.34,3.58,1.04c0.8,0.69,1.22,1.62,1.26,2.78l-2.55,0.11c-0.11-0.65-0.34-1.12-0.7-1.4
					c-0.36-0.28-0.9-0.42-1.61-0.42c-0.74,0-1.32,0.15-1.74,0.45c-0.27,0.2-0.41,0.46-0.41,0.79c0,0.3,0.13,0.55,0.38,0.76
					c0.32,0.27,1.1,0.55,2.34,0.85c1.24,0.29,2.16,0.59,2.75,0.9c0.6,0.31,1.06,0.74,1.4,1.29c0.33,0.54,0.5,1.21,0.5,2.01
					C385.83,246.74,385.63,247.42,385.23,248.05z M368.11,239.04c-1.05,0-1.9,0.36-2.54,1.08s-0.96,1.81-0.96,3.26
					c0,1.43,0.33,2.51,0.98,3.25c0.66,0.74,1.5,1.11,2.52,1.11s1.85-0.37,2.5-1.1s0.98-1.83,0.98-3.3c0-1.44-0.32-2.52-0.95-3.23
					C370.01,239.4,369.16,239.04,368.11,239.04z"/>
			</g>
		</g>
	</g>
</g>
<path class="st2" d="M492.05,650c0,3.51,2.84,6.35,6.35,6.35c3.51,0,6.35-2.84,6.35-6.35s-2.84-6.35-6.35-6.35
	C494.89,643.65,492.05,646.5,492.05,650z"/>
<g>
	<g>
		<path class="st2" d="M529.32,312.71h-76.68c-0.75,0-1.35,0.6-1.35,1.34v37.44c0,0.75,0.6,1.35,1.35,1.35h76.68
			c0.75,0,1.35-0.6,1.35-1.35v-37.44C530.67,313.31,530.07,312.71,529.32,312.71z M484.93,341.7c0,1.32-1.08,2.39-2.4,2.39h-21.88
			c-1.32,0-2.4-1.07-2.4-2.39v-17.85c0-1.32,1.08-2.39,2.4-2.39h21.88c1.32,0,2.4,1.07,2.4,2.39V341.7z M523.71,339.12
			c0,0.77-0.63,1.39-1.4,1.39h-31.52c-0.77,0-1.4-0.62-1.4-1.39v-3.25c0-0.77,0.63-1.39,1.4-1.39h31.52c0.77,0,1.4,0.62,1.4,1.39
			V339.12z M523.71,329.67c0,0.77-0.63,1.4-1.4,1.4h-31.52c-0.77,0-1.4-0.63-1.4-1.4v-3.24c0-0.77,0.63-1.4,1.4-1.4h31.52
			c0.77,0,1.4,0.63,1.4,1.4V329.67z"/>
	</g>
	<path class="st7" d="M471.82,257.26c-3.31,0-6.01,2.7-6.01,6v27.71h22.41l17.04,17.01v-17.01h6.95v-33.71H471.82z M482.34,278.79
		c-2.58,0-4.67-2.09-4.67-4.67c0-3.68,4.24-6.36,8.09-3.42C488.7,274.55,486.02,278.79,482.34,278.79z M495.68,278.79
		c-2.58,0-4.67-2.09-4.67-4.67c0-3.68,4.24-6.36,8.09-3.43C502.04,274.55,499.36,278.79,495.68,278.79z"/>
</g>
<path class="st4" d="M529.91,553.81c-2.99,0.02-5.82,1.35-7.74,3.64c-1.92-2.29-4.76-3.62-7.75-3.64c-5.17-0.06-9.4,4.08-9.46,9.25
	c0,0.09,0,0.18,0,0.27c0,6.62,5.85,11.91,14.69,20l2.52,2.25l2.49-2.25c8.85-8.14,14.7-13.42,14.7-20c0.09-5.17-4.03-9.43-9.19-9.51
	c0,0,0,0,0,0C530.08,553.81,529.99,553.81,529.91,553.81L529.91,553.81z"/>
<path class="st0" d="M261.81,177.96c-2.29,0.01-4.45,1.03-5.92,2.78c-1.47-1.75-3.64-2.77-5.93-2.78c-3.95-0.04-7.19,3.12-7.24,7.07
	c0,0.07,0,0.13,0,0.2c0,5.06,4.47,9.11,11.24,15.29l1.93,1.72l1.91-1.72c6.77-6.22,11.24-10.26,11.24-15.29
	c0.07-3.95-3.08-7.21-7.03-7.28c0,0,0,0,0,0C261.94,177.96,261.87,177.96,261.81,177.96L261.81,177.96z"/>
<g>
	<g>
		<g>
			<path class="st2" d="M459.24,407.79c0.01,0.1,0.01,0.19,0.01,0.29c-0.01,0.42-0.07,0.82-0.19,1.2c-0.15,0.5-0.39,0.97-0.71,1.38
				c-0.11,0.15-0.24,0.29-0.37,0.42c-0.79,0.78-1.88,1.26-3.08,1.24c-0.32,0-0.63-0.04-0.92-0.11c-0.14-0.03-0.27-0.07-0.41-0.11
				c-1.71-0.58-2.94-2.22-2.91-4.13c0.01-1.37,0.67-2.59,1.69-3.36c0.73-0.56,1.66-0.89,2.66-0.88c1.84,0.02,3.39,1.2,3.98,2.83
				C459.14,406.95,459.22,407.36,459.24,407.79z"/>
			<path class="st2" d="M494.62,396.77h-46.15c-2.11,0-3.82,1.71-3.82,3.82v14.87c0,2.11,1.71,3.82,3.82,3.82h46.15
				c2.11,0,3.82-1.71,3.82-3.82v-14.87C498.44,398.48,496.73,396.77,494.62,396.77z M460.68,407.81c0,0.1,0.01,0.19,0,0.29
				c0,0.15-0.01,0.3-0.02,0.46c-0.1,1.11-0.52,2.14-1.17,2.98c-0.67,0.85-1.57,1.52-2.61,1.89c-0.63,0.22-1.3,0.34-2,0.33
				c-0.62-0.01-1.21-0.12-1.77-0.3c-2.29-0.78-3.92-2.96-3.89-5.51c0.02-1.84,0.92-3.47,2.29-4.5c0.97-0.74,2.2-1.17,3.52-1.16
				c2.45,0.04,4.52,1.6,5.31,3.78c0.19,0.52,0.31,1.07,0.34,1.65V407.81z"/>
		</g>
		<g>
			<path class="st2" d="M494.62,427.99h-46.15c-2.28,0-4.14,1.85-4.14,4.13v16.01c0,2.28,1.86,4.14,4.14,4.14h46.15
				c2.28,0,4.13-1.86,4.13-4.14v-16.01C498.75,429.84,496.9,427.99,494.62,427.99z M498.12,448.13c0,1.93-1.57,3.5-3.5,3.5h-46.15
				c-1.93,0-3.5-1.57-3.5-3.5v-16.01c0-1.93,1.57-3.5,3.5-3.5h46.15c1.93,0,3.5,1.57,3.5,3.5V448.13z"/>
		</g>
		<g>
			<path class="st2" d="M433,434.64c0,0.1,0.01,0.19,0.01,0.29c-0.01,0.42-0.08,0.82-0.19,1.2c-0.16,0.5-0.4,0.97-0.71,1.38
				c-0.12,0.15-0.25,0.29-0.38,0.42c-0.79,0.78-1.88,1.26-3.08,1.24c-0.31,0-0.62-0.04-0.92-0.11c-0.14-0.03-0.27-0.07-0.4-0.11
				c-1.72-0.58-2.94-2.22-2.92-4.13c0.02-1.37,0.68-2.59,1.69-3.36c0.74-0.56,1.66-0.89,2.66-0.88c1.84,0.02,3.4,1.2,3.99,2.83
				C432.89,433.8,432.98,434.21,433,434.64z"/>
			<path class="st2" d="M468.28,422.96h-45.92c-2.18,0-3.94,1.76-3.94,3.93v15.98c0,2.17,1.76,3.93,3.94,3.93h45.92
				c2.17,0,3.93-1.76,3.93-3.93v-15.98C472.21,424.72,470.45,422.96,468.28,422.96z M434.41,435.43c-0.1,1.11-0.52,2.12-1.17,2.96
				c-0.65,0.84-1.53,1.49-2.54,1.86c-0.65,0.24-1.34,0.37-2.07,0.36c-0.61-0.01-1.21-0.12-1.76-0.3c-2.29-0.78-3.93-2.96-3.89-5.51
				c0.02-1.84,0.91-3.47,2.28-4.5c0.98-0.74,2.2-1.17,3.52-1.16c2.45,0.04,4.53,1.6,5.32,3.78c0.19,0.52,0.3,1.07,0.33,1.65v0.08
				c0.01,0.1,0.01,0.2,0.01,0.3C434.44,435.11,434.43,435.27,434.41,435.43z"/>
		</g>
	</g>
</g>
<g>
	<path class="st2" d="M323.91,359.34h-23.04v-34.21h-5.13v34.21h-0.56H162.93c0.35,0.38,0.68,0.77,1,1.16
		c0.87,1.04,1.67,2.14,2.4,3.28c0.33,0.51,0.64,1.04,0.94,1.57c0.72,1.25,1.35,2.55,1.89,3.89h154.75c2.24,0,4.05-1.81,4.05-4.04
		v-1.81C327.96,361.16,326.15,359.34,323.91,359.34z"/>
	<path class="st2" d="M82.05,359.34h30.74c-0.35,0.38-0.68,0.77-1,1.16c-0.87,1.04-1.67,2.14-2.4,3.28
		c-0.33,0.51-0.64,1.04-0.94,1.57c-0.72,1.25-1.35,2.55-1.89,3.89H53.88c-2.24,0-4.05-1.81-4.05-4.04v-1.81
		c0-2.23,1.81-4.05,4.05-4.05h23.03V242.46c1.01,0.54,2.04,1.05,3.08,1.53l2.06-4.46V359.34z"/>
	<path class="st2" d="M300.87,216.34v49.49h-5.13v-49.71H92.88l2.5-5.41h199.87C298.34,210.71,300.87,213.25,300.87,216.34z"/>
</g>
<g>
	<circle class="st2" cx="523.54" cy="408.41" r="3.08"/>
	<path class="st2" d="M535.87,411.5c-1.7,0-3.08-1.38-3.08-3.08s1.38-3.08,3.08-3.08s3.09,1.38,3.09,3.08S537.58,411.5,535.87,411.5
		z"/>
	<path class="st2" d="M511.2,411.5c-1.7,0-3.08-1.38-3.08-3.08s1.38-3.08,3.08-3.08c1.7,0,3.08,1.38,3.08,3.08
		S512.91,411.5,511.2,411.5z"/>
</g>
</svg>
