<?xml version="1.0" encoding="utf-8"?>
<!-- Generator: Adobe Illustrator 25.4.1, SVG Export Plug-In . SVG Version: 6.00 Build 0)  -->
<svg version="1.1" id="Layer_1" xmlns="http://www.w3.org/2000/svg" xmlns:xlink="http://www.w3.org/1999/xlink" x="0px" y="0px"
	 viewBox="0 0 1096.29 541.24" style="enable-background:new 0 0 1096.29 541.24;" xml:space="preserve">
<style type="text/css">
	.st0{fill:#F4FF66;}
	.st1{opacity:0.25;}
	.st2{fill:#B6FCF5;}
	.st3{fill:#124BD8;}
	.st4{fill:#112849;}
</style>
<g>
	<g>
		<g>
			<g>
				<path class="st0" d="M21.08,436.49l-1.83-2.83c-0.23-0.35-0.06-0.78,0.37-0.97c0.43-0.19,0.96-0.05,1.18,0.3l0,0l0.02,0.03
					l1.79,2.78l0.02,0.03c0.23,0.35,0.06,0.78-0.37,0.97C21.83,436.97,21.3,436.84,21.08,436.49z"/>
				<path class="st0" d="M15.64,426.78l-1.22-3.06c-0.15-0.38,0.1-0.79,0.57-0.91c0.46-0.12,0.96,0.08,1.12,0.46l0,0l0.02,0.04
					l1.18,2.98l0.02,0.04c0.15,0.38-0.1,0.79-0.57,0.91C16.28,427.36,15.79,427.16,15.64,426.78z"/>
				<path class="st0" d="M12.49,416.38c-0.17-1.07-0.3-2.14-0.38-3.21c-0.03-0.4,0.34-0.75,0.84-0.77c0.49-0.02,0.92,0.28,0.95,0.69
					l0,0c0.08,1.04,0.2,2.07,0.37,3.1c0.06,0.4-0.28,0.77-0.77,0.82C13,417.06,12.55,416.78,12.49,416.38z"/>
				<path class="st0" d="M12.36,405.65c0.15-1.07,0.36-2.13,0.62-3.19c0.1-0.4,0.57-0.66,1.06-0.58c0.49,0.08,0.8,0.47,0.71,0.87
					l0,0c-0.25,1.02-0.45,2.04-0.6,3.07c-0.06,0.4-0.51,0.69-1,0.64C12.65,406.42,12.3,406.05,12.36,405.65z"/>
				<path class="st0" d="M15.6,395.24c0.49-1,1.02-1.98,1.59-2.95c0.22-0.37,0.76-0.52,1.21-0.34c0.45,0.18,0.64,0.63,0.42,1l0,0
					c-0.56,0.93-1.07,1.89-1.54,2.85c-0.19,0.38-0.71,0.57-1.18,0.41C15.64,396.05,15.41,395.62,15.6,395.24z"/>
				<path class="st0" d="M21.84,385.82l2.35-2.58c0.3-0.33,0.88-0.4,1.28-0.15c0.41,0.25,0.49,0.72,0.19,1.05l0,0l-0.03,0.04
					l-2.28,2.51l-0.03,0.04c-0.3,0.33-0.88,0.4-1.28,0.15C21.63,386.62,21.54,386.15,21.84,385.82z"/>
				<path class="st0" d="M30.33,377.68l2.87-2.19c0.37-0.29,0.96-0.27,1.31,0.04c0.35,0.31,0.33,0.79-0.05,1.07l0,0l-0.03,0.02
					l-2.81,2.14l-0.03,0.02c-0.37,0.28-0.96,0.27-1.3-0.04C29.94,378.44,29.96,377.96,30.33,377.68z"/>
				<path class="st0" d="M40.32,370.81l3.21-1.83c0.42-0.24,1-0.16,1.3,0.19c0.29,0.35,0.19,0.82-0.23,1.06l0,0l-0.03,0.02
					l-3.15,1.79l-0.03,0.02c-0.42,0.24-1,0.15-1.3-0.19C39.79,371.53,39.9,371.05,40.32,370.81z"/>
				<path class="st0" d="M51.3,365.09l3.43-1.52c0.46-0.2,1.03-0.06,1.28,0.31c0.25,0.37,0.08,0.84-0.38,1.04l0,0l-0.03,0.01
					l-3.39,1.49l-0.03,0.01c-0.46,0.2-1.03,0.06-1.27-0.31C50.67,365.75,50.84,365.29,51.3,365.09z"/>
				<path class="st0" d="M62.93,360.34l3.59-1.25c0.48-0.17,1.04,0.02,1.25,0.41c0.21,0.39-0.02,0.85-0.5,1.02l0,0l-0.02,0.01
					l-3.54,1.23l-0.02,0.01c-0.48,0.17-1.04-0.02-1.24-0.41C62.23,360.97,62.45,360.51,62.93,360.34z"/>
				<path class="st0" d="M75.02,356.46l3.69-1.01c0.5-0.14,1.04,0.08,1.21,0.49c0.17,0.41-0.1,0.85-0.6,0.99l0,0l-0.02,0.01l-3.65,1
					l-0.02,0.01c-0.5,0.14-1.04-0.08-1.21-0.49C74.26,357.04,74.52,356.59,75.02,356.46z"/>
				<path class="st0" d="M87.43,353.33l3.77-0.8c0.52-0.11,1.04,0.14,1.18,0.57c0.13,0.42-0.18,0.85-0.69,0.96l0,0l-0.02,0
					l-3.73,0.79l-0.02,0c-0.51,0.11-1.04-0.14-1.17-0.57C86.61,353.87,86.91,353.44,87.43,353.33z"/>
				<path class="st0" d="M100.05,350.88l3.82-0.61c0.53-0.08,1.04,0.2,1.14,0.63c0.1,0.43-0.24,0.85-0.77,0.94l0,0l-0.02,0
					l-3.79,0.6l-0.02,0c-0.53,0.08-1.04-0.2-1.14-0.63C99.18,351.38,99.53,350.96,100.05,350.88z"/>
				<path class="st0" d="M112.83,349.05l3.85-0.43c0.54-0.06,1.03,0.25,1.11,0.69c0.07,0.44-0.3,0.85-0.84,0.91l0,0l-0.02,0
					l-3.82,0.42l-0.02,0c-0.54,0.06-1.03-0.25-1.1-0.69C111.92,349.52,112.29,349.11,112.83,349.05z"/>
				<path class="st0" d="M125.7,347.81l3.88-0.26c0.54-0.04,1.02,0.29,1.07,0.74c0.05,0.45-0.36,0.84-0.9,0.87h0l-0.02,0l-3.85,0.26
					l-0.02,0c-0.54,0.04-1.02-0.29-1.06-0.74C124.76,348.24,125.16,347.85,125.7,347.81z"/>
				<path class="st0" d="M138.64,347.13l3.89-0.1c0.55-0.01,1.01,0.34,1.03,0.79c0.02,0.45-0.41,0.83-0.97,0.84h0l-0.01,0l-3.86,0.1
					l-0.01,0c-0.55,0.01-1.01-0.34-1.03-0.79C137.66,347.52,138.09,347.14,138.64,347.13z"/>
				<path class="st0" d="M151.6,346.97l3.89,0.06c0.56,0.01,1,0.38,0.99,0.84c-0.01,0.45-0.47,0.82-1.02,0.81h0l-0.01,0l-3.86-0.06
					l-0.01,0c-0.55-0.01-0.99-0.38-0.98-0.84C150.59,347.32,151.05,346.96,151.6,346.97z"/>
				<path class="st0" d="M164.56,347.34l3.88,0.21c0.56,0.03,0.98,0.43,0.94,0.88s-0.52,0.8-1.08,0.77h0l-0.01,0l-3.85-0.21l-0.01,0
					c-0.56-0.03-0.98-0.43-0.94-0.88C163.52,347.65,164,347.31,164.56,347.34z"/>
				<path class="st0" d="M177.47,348.2l3.86,0.33c0.56,0.05,0.97,0.46,0.91,0.92c-0.06,0.46-0.56,0.79-1.12,0.75h0l-0.01,0
					l-3.85-0.33l-0.01,0c-0.56-0.05-0.97-0.46-0.91-0.92C176.41,348.48,176.91,348.15,177.47,348.2z"/>
				<path class="st0" d="M190.33,349.39l3.85,0.41c0.56,0.06,0.96,0.48,0.89,0.94c-0.07,0.46-0.59,0.79-1.15,0.73l0,0l-0.01,0
					l-3.83-0.41l-0.01,0c-0.56-0.06-0.96-0.48-0.88-0.94C189.26,349.66,189.77,349.33,190.33,349.39z"/>
				<path class="st0" d="M203.15,350.86l3.84,0.49c0.56,0.07,0.95,0.51,0.86,0.97c-0.09,0.46-0.62,0.78-1.18,0.71l0,0l-0.01,0
					l-3.82-0.49l-0.01,0c-0.56-0.07-0.95-0.51-0.86-0.97C202.06,351.1,202.59,350.78,203.15,350.86z"/>
				<path class="st0" d="M215.92,352.58l3.82,0.57c0.57,0.08,0.94,0.53,0.84,0.99c-0.1,0.46-0.64,0.77-1.21,0.69l0,0l-0.01,0
					l-3.8-0.57l-0.01,0c-0.56-0.08-0.94-0.53-0.84-0.99C214.81,352.8,215.35,352.5,215.92,352.58z"/>
				<path class="st0" d="M228.63,354.55l3.8,0.64c0.57,0.1,0.93,0.55,0.82,1.01c-0.12,0.46-0.67,0.76-1.24,0.67l0,0l-0.01,0
					l-3.79-0.64l-0.01,0c-0.57-0.1-0.93-0.55-0.81-1.01C227.51,354.76,228.06,354.46,228.63,354.55z"/>
				<path class="st0" d="M241.28,356.77l3.78,0.71c0.57,0.11,0.92,0.57,0.79,1.03c-0.13,0.46-0.69,0.76-1.26,0.65l0,0l-0.01,0
					l-3.77-0.71l-0.01,0c-0.57-0.11-0.92-0.57-0.79-1.03C240.15,356.95,240.72,356.66,241.28,356.77z"/>
				<path class="st0" d="M253.87,359.21l3.76,0.77c0.57,0.12,0.91,0.59,0.77,1.05c-0.14,0.47-0.72,0.75-1.29,0.63l0,0l-0.01,0
					l-3.75-0.77l-0.01,0c-0.57-0.12-0.91-0.59-0.77-1.05C252.73,359.37,253.31,359.09,253.87,359.21z"/>
				<path class="st0" d="M266.4,361.86l3.74,0.84c0.57,0.13,0.9,0.61,0.75,1.07c-0.15,0.47-0.74,0.74-1.31,0.61l-0.01,0l-3.73-0.84
					c-0.57-0.12-0.91-0.6-0.75-1.07C265.24,362.01,265.83,361.74,266.4,361.86z"/>
				<path class="st0" d="M278.85,364.72l3.72,0.89c0.57,0.14,0.89,0.63,0.73,1.09c-0.17,0.47-0.76,0.73-1.33,0.6l-0.01,0l-3.71-0.9
					c-0.57-0.13-0.9-0.62-0.73-1.09C277.69,364.85,278.28,364.59,278.85,364.72z"/>
				<path class="st0" d="M291.24,367.77l3.7,0.95c0.57,0.15,0.89,0.64,0.71,1.11c-0.18,0.47-0.78,0.73-1.35,0.58l-0.01,0l-3.69-0.95
					c-0.57-0.14-0.89-0.64-0.71-1.1C290.06,367.88,290.67,367.62,291.24,367.77z"/>
				<path class="st0" d="M303.56,370.99l3.68,1c0.57,0.15,0.88,0.66,0.69,1.12c-0.19,0.47-0.8,0.72-1.37,0.56l-0.01,0l-3.67-1
					c-0.57-0.15-0.88-0.65-0.69-1.12C302.37,371.09,302.99,370.84,303.56,370.99z"/>
				<path class="st0" d="M315.81,374.38l3.66,1.05c0.57,0.16,0.87,0.67,0.67,1.14c-0.2,0.47-0.82,0.71-1.39,0.55l-0.01,0l-3.65-1.05
					c-0.57-0.16-0.87-0.67-0.68-1.14C314.62,374.46,315.24,374.22,315.81,374.38z"/>
				<path class="st0" d="M328,377.92l3.64,1.09c0.57,0.17,0.86,0.69,0.66,1.16c-0.21,0.47-0.84,0.71-1.41,0.54l-0.01,0l-3.63-1.09
					c-0.57-0.17-0.87-0.68-0.66-1.15C326.8,377.99,327.43,377.75,328,377.92z"/>
				<path class="st0" d="M340.12,381.6l3.63,1.13c0.57,0.18,0.86,0.7,0.64,1.17c-0.22,0.47-0.86,0.7-1.43,0.52l-0.01,0l-3.62-1.13
					c-0.57-0.18-0.86-0.7-0.64-1.17C338.91,381.66,339.55,381.42,340.12,381.6z"/>
				<path class="st0" d="M352.19,385.41l3.61,1.17c0.57,0.18,0.85,0.71,0.63,1.18c-0.23,0.47-0.87,0.7-1.44,0.51l0,0l-3.6-1.17
					c-0.57-0.18-0.85-0.71-0.63-1.18C350.97,385.45,351.62,385.22,352.19,385.41z"/>
				<path class="st0" d="M364.19,389.33l3.59,1.2c0.57,0.19,0.85,0.73,0.61,1.2c-0.23,0.47-0.89,0.69-1.46,0.5l0,0l-3.58-1.2
					c-0.57-0.19-0.85-0.72-0.62-1.19C362.97,389.37,363.62,389.14,364.19,389.33z"/>
				<path class="st0" d="M376.15,393.36l3.58,1.23c0.57,0.2,0.84,0.74,0.6,1.21c-0.24,0.47-0.9,0.69-1.47,0.49l0,0l-3.57-1.23
					c-0.57-0.2-0.84-0.73-0.61-1.2C374.92,393.38,375.58,393.16,376.15,393.36z"/>
				<path class="st0" d="M388.05,397.48l3.56,1.25c0.57,0.2,0.84,0.75,0.59,1.22c-0.25,0.47-0.91,0.69-1.49,0.49l0,0l-3.56-1.25
					c-0.57-0.2-0.84-0.75-0.6-1.22C386.81,397.5,387.48,397.28,388.05,397.48z"/>
				<path class="st0" d="M399.92,401.68l3.55,1.27c0.58,0.21,0.84,0.76,0.59,1.23c-0.25,0.47-0.92,0.69-1.5,0.48l0,0l-3.55-1.28
					c-0.58-0.21-0.84-0.76-0.59-1.23C398.67,401.69,399.34,401.47,399.92,401.68z"/>
				<path class="st0" d="M411.74,405.95l3.54,1.29c0.58,0.21,0.84,0.77,0.58,1.24c-0.26,0.47-0.94,0.69-1.51,0.48l0,0l-3.54-1.29
					c-0.58-0.21-0.84-0.76-0.58-1.24C410.49,405.95,411.16,405.74,411.74,405.95z"/>
				<path class="st0" d="M423.53,410.28l3.53,1.31c0.58,0.21,0.84,0.77,0.58,1.25c-0.26,0.48-0.95,0.69-1.53,0.47l0,0l-3.53-1.31
					c-0.58-0.21-0.84-0.77-0.57-1.25C422.27,410.28,422.95,410.07,423.53,410.28z"/>
				<path class="st0" d="M435.3,414.66l3.52,1.32c0.58,0.22,0.84,0.78,0.57,1.26c-0.27,0.48-0.95,0.69-1.54,0.47l0,0l-3.52-1.32
					c-0.58-0.22-0.84-0.78-0.57-1.26C434.03,414.65,434.71,414.44,435.3,414.66z"/>
				<path class="st0" d="M447.04,419.07l3.52,1.33c0.58,0.22,0.84,0.79,0.57,1.27c-0.27,0.48-0.96,0.69-1.55,0.47l0,0l-3.52-1.33
					c-0.58-0.22-0.84-0.79-0.57-1.26C445.76,419.05,446.45,418.85,447.04,419.07z"/>
				<path class="st0" d="M458.76,423.5l3.52,1.33c0.59,0.22,0.84,0.79,0.57,1.27c-0.27,0.48-0.97,0.69-1.56,0.47l0,0l-3.51-1.33
					c-0.59-0.22-0.84-0.79-0.57-1.27C457.48,423.49,458.18,423.28,458.76,423.5z"/>
				<path class="st0" d="M470.49,427.94l3.52,1.33c0.59,0.22,0.85,0.8,0.58,1.28c-0.27,0.48-0.97,0.7-1.56,0.47l0,0l-3.52-1.33
					c-0.59-0.22-0.85-0.8-0.57-1.28C469.2,427.92,469.9,427.71,470.49,427.94z"/>
				<path class="st0" d="M482.21,432.37l3.52,1.33c0.59,0.22,0.86,0.8,0.58,1.29c-0.27,0.49-0.98,0.7-1.57,0.48l0,0l-3.52-1.33
					c-0.59-0.22-0.85-0.8-0.58-1.29C480.91,432.36,481.62,432.14,482.21,432.37z"/>
				<path class="st0" d="M493.94,436.78l3.52,1.32c0.6,0.22,0.86,0.8,0.59,1.29c-0.27,0.49-0.98,0.71-1.58,0.48l0,0l-3.52-1.32
					c-0.6-0.22-0.86-0.8-0.59-1.29C492.64,436.77,493.35,436.56,493.94,436.78z"/>
				<path class="st0" d="M505.69,441.16l3.53,1.31c0.6,0.22,0.87,0.8,0.6,1.3c-0.27,0.49-0.98,0.71-1.59,0.49l0,0l-3.53-1.31
					c-0.6-0.22-0.87-0.8-0.6-1.3C504.38,441.16,505.09,440.94,505.69,441.16z"/>
				<path class="st0" d="M517.46,445.5l3.54,1.29c0.61,0.22,0.88,0.8,0.61,1.3c-0.27,0.5-0.98,0.72-1.59,0.5l0,0l-3.54-1.3
					c-0.61-0.22-0.88-0.81-0.61-1.3C516.14,445.5,516.85,445.28,517.46,445.5z"/>
				<path class="st0" d="M529.26,449.79l3.55,1.27c0.61,0.22,0.89,0.8,0.63,1.31c-0.27,0.5-0.98,0.73-1.6,0.51l0,0l-3.55-1.28
					c-0.61-0.22-0.89-0.8-0.62-1.31C527.93,449.8,528.65,449.57,529.26,449.79z"/>
				<path class="st0" d="M541.09,454.01l3.56,1.25c0.62,0.22,0.91,0.8,0.64,1.31c-0.26,0.51-0.98,0.74-1.6,0.53l0,0l-3.56-1.26
					c-0.62-0.22-0.9-0.8-0.64-1.31C539.76,454.03,540.47,453.79,541.09,454.01z"/>
				<path class="st0" d="M552.96,458.15l3.57,1.23c0.62,0.21,0.92,0.8,0.66,1.31c-0.26,0.51-0.98,0.75-1.6,0.54l0,0l-3.57-1.23
					c-0.62-0.21-0.92-0.8-0.65-1.31C551.62,458.18,552.34,457.94,552.96,458.15z"/>
				<path class="st0" d="M564.88,462.21l3.58,1.2c0.63,0.21,0.94,0.8,0.68,1.31c-0.25,0.52-0.97,0.77-1.6,0.56l0,0l-3.59-1.2
					c-0.63-0.21-0.93-0.8-0.67-1.31C563.53,462.24,564.25,462,564.88,462.21z"/>
				<path class="st0" d="M576.84,466.16l3.6,1.16c0.64,0.2,0.95,0.79,0.7,1.31c-0.25,0.52-0.97,0.78-1.6,0.58l-0.01,0l-3.61-1.17
					c-0.63-0.21-0.95-0.79-0.69-1.31C575.49,466.21,576.21,465.95,576.84,466.16z"/>
				<path class="st0" d="M588.86,470l3.62,1.13c0.64,0.2,0.97,0.79,0.73,1.31c-0.24,0.53-0.96,0.79-1.6,0.6l-0.01,0l-3.62-1.13
					c-0.64-0.2-0.96-0.79-0.72-1.31C587.5,470.06,588.22,469.8,588.86,470z"/>
				<path class="st0" d="M600.93,473.71l3.63,1.09c0.65,0.19,0.99,0.78,0.75,1.31c-0.23,0.53-0.95,0.81-1.6,0.62l-0.01,0l-3.64-1.09
					c-0.65-0.19-0.98-0.78-0.74-1.31C599.57,473.78,600.29,473.51,600.93,473.71z"/>
				<path class="st0" d="M613.07,477.28l3.65,1.04c0.66,0.18,1.01,0.77,0.78,1.31c-0.23,0.54-0.94,0.82-1.6,0.64l-0.01,0l-3.66-1.05
					c-0.65-0.19-1-0.77-0.77-1.31C611.7,477.37,612.42,477.09,613.07,477.28z"/>
				<path class="st0" d="M625.27,480.7l3.67,1c0.66,0.18,1.03,0.76,0.81,1.31c-0.22,0.54-0.93,0.84-1.59,0.66l-0.01,0l-3.68-1
					c-0.66-0.18-1.02-0.77-0.8-1.31C623.89,480.81,624.61,480.52,625.27,480.7z"/>
				<path class="st0" d="M637.53,483.96l3.69,0.94l0.01,0c0.67,0.17,1.04,0.76,0.83,1.3c-0.21,0.55-0.92,0.86-1.59,0.68l0,0
					l-3.7-0.95c-0.67-0.17-1.04-0.75-0.83-1.3C636.15,484.09,636.86,483.79,637.53,483.96L637.53,483.96z"/>
				<path class="st0" d="M649.86,487.04l3.71,0.89l0.01,0c0.68,0.16,1.07,0.74,0.87,1.3c-0.2,0.55-0.91,0.87-1.58,0.71l0,0
					l-3.72-0.89c-0.68-0.16-1.06-0.74-0.87-1.3C648.47,487.19,649.18,486.88,649.86,487.04L649.86,487.04z"/>
				<path class="st0" d="M662.26,489.93l3.73,0.83l0.01,0c0.68,0.15,1.09,0.73,0.9,1.29c-0.19,0.56-0.89,0.89-1.58,0.74l0,0
					l-3.75-0.84c-0.68-0.15-1.09-0.73-0.9-1.29C660.86,490.11,661.57,489.78,662.26,489.93L662.26,489.93z"/>
				<path class="st0" d="M674.72,492.63l3.75,0.77l0.01,0c0.69,0.14,1.11,0.72,0.94,1.28c-0.17,0.57-0.87,0.91-1.57,0.77l0,0
					l-3.77-0.77c-0.69-0.14-1.11-0.72-0.94-1.28C673.32,492.83,674.02,492.49,674.72,492.63L674.72,492.63z"/>
				<path class="st0" d="M687.25,495.11l3.77,0.7l0.01,0c0.7,0.13,1.14,0.7,0.98,1.27c-0.16,0.57-0.85,0.93-1.55,0.8l0,0l-3.79-0.71
					c-0.7-0.13-1.13-0.7-0.97-1.27C685.85,495.34,686.54,494.98,687.25,495.11L687.25,495.11z"/>
				<path class="st0" d="M699.83,497.37l3.79,0.63l0.01,0c0.71,0.12,1.16,0.68,1.02,1.26c-0.14,0.58-0.83,0.95-1.54,0.83l0,0
					l-3.8-0.64c-0.7-0.12-1.16-0.68-1.01-1.26C698.43,497.62,699.12,497.25,699.83,497.37L699.83,497.37z"/>
				<path class="st0" d="M712.48,499.4l3.8,0.56l0.01,0c0.71,0.11,1.19,0.66,1.06,1.25c-0.13,0.58-0.81,0.97-1.52,0.87l0,0
					l-3.82-0.57c-0.71-0.11-1.18-0.66-1.05-1.25C711.08,499.68,711.76,499.29,712.48,499.4L712.48,499.4z"/>
				<path class="st0" d="M725.18,501.18l3.82,0.48l0.01,0c0.72,0.09,1.21,0.64,1.1,1.23c-0.11,0.59-0.78,0.99-1.5,0.9l0,0
					l-3.84-0.49c-0.72-0.09-1.21-0.64-1.1-1.23C723.78,501.49,724.45,501.09,725.18,501.18L725.18,501.18z"/>
				<path class="st0" d="M737.92,502.67l3.83,0.39l0.01,0c0.73,0.07,1.24,0.62,1.15,1.21c-0.09,0.59-0.75,1.02-1.48,0.94l0,0
					l-3.86-0.4c-0.72-0.07-1.24-0.62-1.15-1.21C736.53,503.02,737.19,502.6,737.92,502.67L737.92,502.67z"/>
				<path class="st0" d="M750.72,503.87l3.85,0.3l0.01,0c0.73,0.06,1.27,0.59,1.2,1.19c-0.07,0.6-0.72,1.04-1.45,0.98l0,0
					l-3.87-0.31c-0.73-0.06-1.27-0.59-1.19-1.19C749.33,504.25,749.98,503.81,750.72,503.87L750.72,503.87z"/>
				<path class="st0" d="M763.54,504.77l3.85,0.21l0.01,0c0.74,0.04,1.29,0.56,1.24,1.17c-0.05,0.6-0.69,1.06-1.42,1.02l0,0
					l-3.88-0.22c-0.74-0.04-1.29-0.56-1.24-1.17C762.16,505.18,762.8,504.73,763.54,504.77L763.54,504.77z"/>
				<path class="st0" d="M776.4,505.37l3.86,0.12l0.01,0c0.74,0.02,1.32,0.53,1.29,1.14c-0.03,0.61-0.65,1.08-1.39,1.06l0,0
					l-3.88-0.13c-0.74-0.02-1.32-0.54-1.29-1.14s0.65-1.08,1.39-1.05L776.4,505.37z"/>
				<path class="st0" d="M789.27,505.67l3.86,0.03l0.01,0c0.75,0.01,1.34,0.51,1.34,1.12c-0.01,0.61-0.62,1.1-1.36,1.09h0
					l-3.89-0.03c-0.74-0.01-1.34-0.51-1.33-1.12c0.01-0.61,0.62-1.1,1.36-1.09L789.27,505.67z"/>
				<path class="st0" d="M802.15,505.67l3.86-0.06l0.01,0c0.75-0.01,1.37,0.48,1.38,1.09c0.01,0.61-0.58,1.12-1.33,1.13h0
					l-3.89,0.06c-0.75,0.01-1.37-0.48-1.38-1.09c-0.01-0.61,0.58-1.12,1.33-1.13L802.15,505.67z"/>
				<path class="st0" d="M815.02,505.35l3.86-0.16l0.01,0c0.75-0.03,1.39,0.44,1.43,1.06c0.04,0.62-0.54,1.14-1.29,1.17h0
					l-3.88,0.15c-0.75,0.03-1.39-0.44-1.43-1.06c-0.04-0.62,0.54-1.14,1.29-1.17L815.02,505.35z"/>
				<path class="st0" d="M827.87,504.72l3.85-0.25l0.01,0c0.75-0.05,1.41,0.41,1.48,1.03c0.06,0.62-0.5,1.16-1.26,1.21h0l-3.88,0.25
					c-0.75,0.05-1.41-0.41-1.47-1.03c-0.06-0.62,0.5-1.16,1.26-1.21L827.87,504.72z"/>
				<path class="st0" d="M840.68,503.76l3.84-0.35l0.01,0c0.76-0.07,1.44,0.38,1.52,0.99c0.08,0.62-0.46,1.18-1.21,1.25l0,0
					l-3.86,0.35c-0.75,0.07-1.43-0.38-1.52-0.99c-0.08-0.62,0.46-1.17,1.21-1.24L840.68,503.76z"/>
				<path class="st0" d="M853.46,502.46l3.82-0.46l0.01,0c0.76-0.09,1.46,0.34,1.57,0.96c0.11,0.62-0.41,1.19-1.17,1.28l0,0
					l-3.85,0.46c-0.75,0.09-1.46-0.34-1.56-0.96c-0.11-0.62,0.41-1.19,1.17-1.28L853.46,502.46z"/>
				<path class="st0" d="M866.17,500.82l3.8-0.56l0.01,0c0.76-0.11,1.48,0.3,1.62,0.92c0.14,0.62-0.36,1.21-1.12,1.32l0,0
					l-3.83,0.56c-0.75,0.11-1.48-0.3-1.61-0.92c-0.14-0.62,0.37-1.21,1.12-1.32L866.17,500.82z"/>
				<path class="st0" d="M878.8,498.81l3.77-0.68l0.02,0c0.75-0.13,1.5,0.26,1.66,0.87c0.16,0.62-0.31,1.23-1.07,1.36l0,0l-3.8,0.68
					c-0.75,0.13-1.5-0.26-1.66-0.87c-0.16-0.62,0.31-1.22,1.07-1.36L878.8,498.81z"/>
				<path class="st0" d="M891.33,496.42l3.74-0.79l0.02,0c0.75-0.16,1.52,0.21,1.71,0.82c0.19,0.61-0.26,1.24-1.01,1.4l0,0
					l-3.77,0.8c-0.75,0.16-1.51-0.21-1.71-0.82c-0.19-0.61,0.26-1.24,1.01-1.4L891.33,496.42z"/>
				<path class="st0" d="M903.73,493.65l3.69-0.91l0.02,0c0.75-0.18,1.53,0.16,1.76,0.77c0.23,0.61-0.2,1.25-0.94,1.44l0,0
					l-3.73,0.92c-0.74,0.18-1.53-0.16-1.75-0.77c-0.22-0.61,0.2-1.25,0.94-1.44L903.73,493.65z"/>
				<path class="st0" d="M915.98,490.45l3.64-1.04l0.02,0c0.74-0.21,1.55,0.11,1.8,0.71c0.26,0.6-0.13,1.27-0.87,1.48l0,0
					l-3.68,1.05c-0.74,0.21-1.54-0.11-1.8-0.71c-0.26-0.6,0.13-1.26,0.87-1.47L915.98,490.45z"/>
				<path class="st0" d="M928.05,486.83l3.58-1.17l0.02-0.01c0.73-0.24,1.56,0.05,1.85,0.65c0.29,0.6-0.06,1.28-0.79,1.51l0,0
					l-3.62,1.18c-0.73,0.24-1.56-0.05-1.85-0.65c-0.29-0.6,0.06-1.27,0.79-1.51L928.05,486.83z"/>
				<path class="st0" d="M939.9,482.76l3.51-1.31l0.02-0.01c0.72-0.27,1.57-0.01,1.89,0.58c0.33,0.59,0.01,1.28-0.71,1.55l0,0
					l-3.55,1.32c-0.72,0.27-1.56,0.01-1.89-0.58c-0.33-0.59-0.01-1.28,0.71-1.55L939.9,482.76z"/>
				<path class="st0" d="M951.48,478.23l3.42-1.46l0.02-0.01c0.7-0.3,1.57-0.08,1.94,0.5c0.37,0.58,0.09,1.29-0.61,1.59l0,0
					l-3.46,1.47c-0.7,0.3-1.57,0.07-1.93-0.5c-0.36-0.58-0.09-1.28,0.61-1.58L951.48,478.23z"/>
				<path class="st0" d="M962.76,473.2l3.31-1.61l0.02-0.01c0.69-0.33,1.57-0.15,1.98,0.42c0.41,0.56,0.18,1.29-0.51,1.62l0,0
					l-3.36,1.62c-0.69,0.33-1.57,0.14-1.97-0.42c-0.4-0.56-0.18-1.28,0.51-1.62L962.76,473.2z"/>
				<path class="st0" d="M973.67,467.67l3.19-1.76l0.02-0.01c0.66-0.37,1.56-0.22,2.01,0.32c0.45,0.54,0.27,1.28-0.39,1.65l0,0
					l-3.24,1.78c-0.66,0.36-1.56,0.22-2.01-0.32c-0.45-0.54-0.27-1.28,0.4-1.64L973.67,467.67z"/>
				<path class="st0" d="M984.16,461.63l3.05-1.91l0.02-0.01c0.64-0.4,1.55-0.3,2.04,0.22c0.49,0.52,0.37,1.27-0.27,1.67l0,0
					l-3.1,1.94c-0.64,0.4-1.55,0.3-2.04-0.22c-0.49-0.52-0.37-1.27,0.27-1.67L984.16,461.63z"/>
				<path class="st0" d="M994.16,455.06l2.9-2.07l0.02-0.02c0.61-0.44,1.53-0.38,2.06,0.11c0.53,0.5,0.47,1.25-0.14,1.69l0,0
					l-2.94,2.1c-0.61,0.43-1.53,0.38-2.06-0.12c-0.53-0.5-0.47-1.25,0.14-1.69L994.16,455.06z"/>
				<path class="st0" d="M1003.61,447.97l2.72-2.23l0.02-0.02c0.57-0.47,1.5-0.47,2.08,0c0.57,0.47,0.57,1.23,0,1.7l0,0l-2.76,2.26
					c-0.57,0.47-1.5,0.47-2.07,0c-0.57-0.47-0.57-1.23,0-1.7L1003.61,447.97z"/>
				<path class="st0" d="M1012.46,440.38l2.53-2.37l0.02-0.02c0.54-0.5,1.47-0.55,2.08-0.12c0.61,0.44,0.68,1.2,0.14,1.7l0,0
					l-2.57,2.41c-0.54,0.5-1.47,0.55-2.08,0.11c-0.61-0.44-0.67-1.2-0.14-1.7L1012.46,440.38z"/>
				<path class="st0" d="M1020.66,432.31l2.33-2.51l0.02-0.02c0.5-0.53,1.43-0.64,2.08-0.23c0.65,0.41,0.78,1.17,0.28,1.7l0,0
					l-2.37,2.54c-0.5,0.53-1.42,0.63-2.07,0.23c-0.65-0.41-0.78-1.17-0.28-1.7L1020.66,432.31z"/>
				<path class="st0" d="M1028.17,423.81l2.12-2.63l0.02-0.02c0.45-0.56,1.38-0.72,2.06-0.35c0.69,0.37,0.88,1.13,0.42,1.69l0,0
					l-2.15,2.67c-0.45,0.56-1.38,0.71-2.06,0.34c-0.68-0.37-0.87-1.13-0.42-1.69L1028.17,423.81z"/>
				<path class="st0" d="M1034.98,414.92l1.9-2.74l0.01-0.02c0.41-0.59,1.32-0.79,2.04-0.46s0.97,1.08,0.56,1.67l0,0l-1.93,2.78
					c-0.41,0.59-1.32,0.79-2.04,0.46c-0.72-0.33-0.97-1.08-0.56-1.67L1034.98,414.92z"/>
				<path class="st0" d="M1041.07,405.68l1.68-2.83l0.01-0.02c0.36-0.61,1.26-0.86,2.01-0.57c0.75,0.3,1.06,1.03,0.69,1.64l0,0
					l-1.71,2.87c-0.36,0.61-1.26,0.86-2.01,0.57c-0.74-0.3-1.05-1.03-0.69-1.64L1041.07,405.68z"/>
				<path class="st0" d="M1046.42,396.14l1.46-2.91l0.01-0.02c0.32-0.63,1.2-0.93,1.97-0.67c0.77,0.26,1.14,0.98,0.82,1.61l0,0
					l-1.49,2.95c-0.32,0.63-1.2,0.93-1.97,0.67c-0.77-0.26-1.14-0.98-0.82-1.61L1046.42,396.14z"/>
				<path class="st0" d="M1051.04,386.35l1.24-2.98l0.01-0.02c0.27-0.65,1.13-0.99,1.92-0.77c0.79,0.22,1.21,0.93,0.94,1.58l0,0
					l-1.27,3.02c-0.27,0.65-1.13,0.99-1.92,0.77c-0.79-0.22-1.21-0.93-0.94-1.57L1051.04,386.35z"/>
				<path class="st0" d="M1054.94,376.34l1.03-3.04l0.01-0.02c0.22-0.66,1.06-1.05,1.87-0.87c0.81,0.18,1.28,0.87,1.06,1.53l0,0
					l-1.05,3.08c-0.23,0.66-1.06,1.05-1.87,0.86c-0.81-0.18-1.28-0.87-1.06-1.53L1054.94,376.34z"/>
				<path class="st0" d="M1058.12,366.16l0.82-3.08l0.01-0.02c0.18-0.68,0.99-1.1,1.82-0.96c0.82,0.15,1.35,0.81,1.17,1.49l0,0
					l-0.83,3.12c-0.18,0.67-0.99,1.1-1.82,0.95c-0.82-0.15-1.35-0.81-1.17-1.49L1058.12,366.16z"/>
				<path class="st0" d="M1060.6,355.85l0.61-3.11l0-0.02c0.13-0.69,0.92-1.15,1.76-1.04c0.84,0.11,1.41,0.75,1.27,1.44l0,0
					l-0.62,3.15c-0.13,0.68-0.92,1.15-1.76,1.04c-0.84-0.11-1.4-0.75-1.27-1.44L1060.6,355.85z"/>
				<path class="st0" d="M1062.39,345.45l0.4-3.14l0-0.02c0.09-0.69,0.85-1.2,1.69-1.12c0.85,0.07,1.46,0.69,1.37,1.39l0,0
					l-0.41,3.18c-0.09,0.69-0.85,1.19-1.69,1.12c-0.85-0.07-1.46-0.69-1.37-1.39L1062.39,345.45z"/>
				<path class="st0" d="M1063.51,334.98l0.2-3.15l0-0.02c0.05-0.7,0.77-1.24,1.63-1.2c0.85,0.04,1.51,0.63,1.46,1.33l0,0
					l-0.21,3.19c-0.05,0.7-0.77,1.23-1.63,1.2c-0.85-0.04-1.51-0.63-1.46-1.33L1063.51,334.98z"/>
				<path class="st0" d="M1063.96,324.47l0.01-3.15l0-0.02c0-0.7,0.7-1.27,1.56-1.27c0.86,0,1.55,0.57,1.55,1.28v0l-0.02,3.19
					c0,0.7-0.7,1.27-1.56,1.27c-0.86,0-1.55-0.57-1.55-1.28V324.47z"/>
				<path class="st0" d="M1063.79,313.96l-0.17-3.15l0-0.02c-0.04-0.71,0.63-1.3,1.49-1.33c0.86-0.03,1.59,0.51,1.63,1.22v0
					l0.17,3.19c0.04,0.7-0.63,1.3-1.49,1.33c-0.86,0.03-1.59-0.52-1.63-1.22L1063.79,313.96z"/>
				<path class="st0" d="M1062.99,303.46l-0.36-3.14l0-0.02c-0.08-0.71,0.55-1.33,1.42-1.4c0.86-0.07,1.63,0.45,1.71,1.16l0,0
					l0.36,3.18c0.08,0.71-0.55,1.33-1.42,1.39c-0.86,0.06-1.62-0.45-1.7-1.16L1062.99,303.46z"/>
				<path class="st0" d="M1061.59,293.01l-0.54-3.12l0-0.02c-0.12-0.71,0.48-1.36,1.34-1.46c0.86-0.1,1.66,0.39,1.78,1.1l0,0
					l0.54,3.16c0.12,0.7-0.48,1.35-1.34,1.45c-0.86,0.1-1.65-0.39-1.77-1.1L1061.59,293.01z"/>
				<path class="st0" d="M1059.6,282.62l-0.71-3.1l0-0.02c-0.16-0.7,0.4-1.38,1.26-1.51c0.86-0.13,1.68,0.33,1.85,1.03l0,0
					l0.72,3.14c0.16,0.7-0.4,1.38-1.26,1.51c-0.86,0.13-1.68-0.33-1.84-1.03L1059.6,282.62z"/>
				<path class="st0" d="M1057.02,272.32l-0.89-3.07l-0.01-0.02c-0.2-0.7,0.33-1.4,1.18-1.56c0.85-0.17,1.71,0.27,1.91,0.97l0,0
					l0.89,3.11c0.2,0.7-0.33,1.4-1.18,1.56c-0.85,0.16-1.71-0.27-1.91-0.97L1057.02,272.32z"/>
				<path class="st0" d="M1053.87,262.12l-1.05-3.04l-0.01-0.02c-0.24-0.69,0.25-1.42,1.1-1.61c0.85-0.2,1.73,0.21,1.97,0.9l0,0
					l1.06,3.07c0.24,0.69-0.25,1.41-1.1,1.61c-0.85,0.2-1.73-0.21-1.97-0.9L1053.87,262.12z"/>
				<path class="st0" d="M1050.16,252.05l-1.22-2.99l-0.01-0.02c-0.28-0.69,0.17-1.43,1.01-1.66c0.84-0.23,1.74,0.14,2.02,0.83l0,0
					l1.23,3.03c0.28,0.69-0.18,1.43-1.01,1.65c-0.84,0.23-1.74-0.14-2.02-0.83L1050.16,252.05z"/>
				<path class="st0" d="M1045.92,242.12l-1.37-2.95l-0.01-0.02c-0.32-0.68,0.1-1.44,0.93-1.7c0.83-0.26,1.76,0.08,2.07,0.76l0,0
					l1.39,2.98c0.32,0.68-0.1,1.44-0.93,1.7c-0.83,0.26-1.76-0.08-2.07-0.76L1045.92,242.12z"/>
				<path class="st0" d="M1041.16,232.35l-1.53-2.9l-0.01-0.02c-0.35-0.67,0.02-1.45,0.84-1.74c0.82-0.29,1.77,0.02,2.12,0.69l0,0
					l1.54,2.93c0.35,0.67-0.03,1.45-0.84,1.73c-0.82,0.29-1.77-0.02-2.12-0.69L1041.16,232.35z"/>
				<path class="st0" d="M1035.89,222.75l-1.68-2.84l-0.01-0.01c-0.39-0.66-0.05-1.45,0.75-1.77c0.81-0.32,1.77-0.04,2.16,0.62l0,0
					l1.69,2.87c0.39,0.66,0.05,1.45-0.76,1.77c-0.81,0.32-1.77,0.04-2.16-0.62L1035.89,222.75z"/>
				<path class="st0" d="M1030.14,213.35l-1.82-2.78l-0.01-0.01c-0.42-0.65-0.13-1.46,0.67-1.8c0.79-0.35,1.78-0.1,2.2,0.55l0,0
					l1.83,2.81c0.42,0.65,0.12,1.45-0.67,1.8c-0.79,0.35-1.78,0.1-2.2-0.55L1030.14,213.35z"/>
				<path class="st0" d="M1023.91,204.14l-1.96-2.72l-0.01-0.01c-0.46-0.64-0.2-1.46,0.58-1.83c0.78-0.37,1.78-0.16,2.24,0.47l0,0
					l1.97,2.75c0.46,0.64,0.2,1.46-0.58,1.83c-0.78,0.37-1.78,0.16-2.23-0.48L1023.91,204.14z"/>
				<path class="st0" d="M1017.24,195.15l-2.09-2.65l-0.01-0.01c-0.49-0.62-0.27-1.45,0.49-1.86c0.76-0.4,1.78-0.22,2.27,0.4l0,0
					l2.11,2.68c0.49,0.62,0.27,1.45-0.49,1.85c-0.76,0.4-1.77,0.22-2.26-0.4L1017.24,195.15z"/>
				<path class="st0" d="M1010.13,186.38l-2.21-2.58l-0.01-0.01c-0.52-0.61-0.34-1.45,0.4-1.88c0.74-0.43,1.77-0.28,2.29,0.33l0,0
					l2.23,2.61c0.52,0.61,0.34,1.45-0.4,1.88c-0.74,0.43-1.77,0.28-2.29-0.33L1010.13,186.38z"/>
				<path class="st0" d="M1002.6,177.86l-2.34-2.51l-0.01-0.01c-0.55-0.59-0.41-1.44,0.31-1.9c0.73-0.45,1.76-0.34,2.32,0.26l0,0
					l2.36,2.54c0.55,0.59,0.41,1.44-0.31,1.9s-1.76,0.34-2.31-0.26L1002.6,177.86z"/>
				<path class="st0" d="M994.67,169.57l-2.45-2.44l-0.01-0.01c-0.58-0.58-0.48-1.44,0.22-1.91c0.71-0.48,1.75-0.4,2.34,0.18l0,0
					l2.47,2.46c0.58,0.58,0.48,1.43-0.23,1.91c-0.71,0.48-1.75,0.39-2.33-0.18L994.67,169.57z"/>
				<path class="st0" d="M986.36,161.55l-2.57-2.36l-0.01-0.01c-0.61-0.56-0.55-1.43,0.13-1.93c0.69-0.5,1.74-0.45,2.35,0.11l0,0
					l2.59,2.38c0.61,0.56,0.55,1.42-0.14,1.92c-0.69,0.5-1.74,0.45-2.35-0.11L986.36,161.55z"/>
				<path class="st0" d="M977.69,153.78l-2.67-2.28L975,151.5c-0.64-0.55-0.62-1.41,0.05-1.94c0.67-0.52,1.73-0.51,2.37,0.04l0,0
					l2.7,2.3c0.64,0.55,0.62,1.41-0.05,1.94c-0.67,0.52-1.72,0.51-2.36-0.04L977.69,153.78z"/>
				<path class="st0" d="M968.66,146.29l-2.77-2.19l-0.01-0.01c-0.67-0.53-0.69-1.4-0.04-1.94c0.64-0.55,1.71-0.56,2.37-0.03l0,0
					l2.8,2.22c0.67,0.53,0.68,1.4,0.04,1.94c-0.64,0.55-1.71,0.56-2.37,0.03L968.66,146.29z"/>
				<path class="st0" d="M959.3,139.08l-2.87-2.11l-0.01-0.01c-0.69-0.51-0.75-1.38-0.13-1.95c0.62-0.57,1.69-0.61,2.38-0.11l0,0
					l2.89,2.13c0.69,0.51,0.75,1.38,0.13,1.95c-0.62,0.57-1.69,0.61-2.38,0.1L959.3,139.08z"/>
				<path class="st0" d="M949.62,132.15l-2.96-2.03l-0.01-0.01c-0.72-0.49-0.81-1.37-0.21-1.95c0.6-0.59,1.67-0.67,2.38-0.17l0,0
					l2.98,2.05c0.72,0.49,0.81,1.36,0.21,1.95c-0.6,0.59-1.67,0.66-2.38,0.17L949.62,132.15z"/>
				<path class="st0" d="M939.66,125.49l-3.04-1.94l-0.01-0.01c-0.74-0.47-0.87-1.35-0.3-1.95c0.58-0.61,1.64-0.71,2.38-0.24l0,0
					l3.07,1.96c0.74,0.47,0.87,1.35,0.29,1.95c-0.58,0.61-1.64,0.71-2.38,0.24L939.66,125.49z"/>
				<path class="st0" d="M929.43,119.12l-3.12-1.86l-0.01-0.01c-0.76-0.45-0.93-1.33-0.38-1.95c0.55-0.62,1.62-0.76,2.38-0.31l0,0
					l3.14,1.88c0.76,0.45,0.93,1.33,0.37,1.95c-0.55,0.62-1.62,0.76-2.38,0.31L929.43,119.12z"/>
				<path class="st0" d="M918.94,113.03l-3.19-1.77l-0.01-0.01c-0.78-0.43-0.99-1.31-0.46-1.95c0.53-0.64,1.6-0.81,2.38-0.37l0,0
					l3.22,1.79c0.78,0.44,0.98,1.31,0.45,1.95c-0.53,0.64-1.6,0.81-2.38,0.37L918.94,113.03z"/>
				<path class="st0" d="M908.22,107.21l-3.26-1.69l-0.01-0.01c-0.8-0.42-1.04-1.29-0.53-1.94c0.51-0.66,1.57-0.85,2.37-0.44l0,0
					l3.28,1.71c0.8,0.42,1.04,1.29,0.53,1.94c-0.51,0.66-1.57,0.85-2.37,0.43L908.22,107.21z"/>
				<path class="st0" d="M897.28,101.67l-3.32-1.61l-0.01-0.01c-0.82-0.4-1.09-1.26-0.61-1.94c0.48-0.67,1.54-0.89,2.36-0.5l0,0
					l3.35,1.62c0.82,0.4,1.09,1.26,0.6,1.93c-0.49,0.67-1.54,0.89-2.36,0.49L897.28,101.67z"/>
				<path class="st0" d="M886.14,96.41l-3.38-1.53l-0.01-0.01c-0.84-0.38-1.14-1.24-0.68-1.93c0.46-0.69,1.52-0.94,2.35-0.56l0,0
					l3.4,1.54c0.84,0.38,1.14,1.24,0.68,1.93c-0.46,0.69-1.51,0.93-2.35,0.56L886.14,96.41z"/>
				<path class="st0" d="M874.81,91.42l-3.43-1.44l-0.01-0.01c-0.85-0.36-1.19-1.22-0.75-1.92c0.44-0.7,1.49-0.98,2.34-0.62l0,0
					l3.46,1.46c0.85,0.36,1.19,1.22,0.75,1.92c-0.44,0.7-1.49,0.97-2.34,0.61L874.81,91.42z"/>
				<path class="st0" d="M863.31,86.7l-3.48-1.36l-0.01-0.01c-0.87-0.34-1.24-1.19-0.82-1.91c0.42-0.71,1.46-1.01,2.33-0.67l0,0
					l3.51,1.37c0.87,0.34,1.24,1.19,0.82,1.9c-0.42,0.71-1.46,1.01-2.33,0.67L863.31,86.7z"/>
			</g>
		</g>
	</g>
	<g class="st1">
		<g>
			<g>
				<path class="st2" d="M9.32,464.92l-1.9-3.03c-0.24-0.37-0.07-0.84,0.38-1.04c0.44-0.2,1-0.05,1.23,0.32l0,0l0.02,0.03l1.86,2.97
					l0.02,0.03c0.23,0.37,0.06,0.84-0.38,1.03C10.11,465.44,9.56,465.3,9.32,464.92z"/>
				<path class="st2" d="M3.67,454.55l-1.27-3.27c-0.16-0.41,0.11-0.84,0.59-0.98c0.48-0.13,1,0.09,1.16,0.5l0,0l0.02,0.04
					l1.23,3.18l0.02,0.04c0.16,0.41-0.11,0.84-0.59,0.97C4.34,455.17,3.83,454.95,3.67,454.55z"/>
				<path class="st2" d="M0.4,443.44c-0.18-1.14-0.32-2.28-0.4-3.43c-0.03-0.43,0.36-0.8,0.87-0.83c0.51-0.03,0.95,0.3,0.98,0.73
					l0,0c0.08,1.11,0.21,2.22,0.38,3.32c0.07,0.43-0.29,0.82-0.8,0.88C0.93,444.16,0.47,443.86,0.4,443.44z"/>
				<path class="st2" d="M0.26,431.97c0.16-1.14,0.38-2.28,0.64-3.41c0.1-0.43,0.59-0.7,1.1-0.62c0.51,0.09,0.84,0.5,0.73,0.93l0,0
					c-0.26,1.09-0.47,2.18-0.63,3.28c-0.06,0.43-0.53,0.74-1.04,0.69C0.57,432.79,0.2,432.4,0.26,431.97z"/>
				<path class="st2" d="M3.63,420.85c0.5-1.07,1.06-2.12,1.65-3.15c0.23-0.4,0.79-0.56,1.26-0.37c0.47,0.19,0.66,0.67,0.44,1.06
					l0,0c-0.58,1-1.11,2.01-1.6,3.05c-0.19,0.41-0.74,0.61-1.22,0.44C3.67,421.72,3.43,421.26,3.63,420.85z"/>
				<path class="st2" d="M10.12,410.78l2.44-2.76c0.31-0.36,0.91-0.43,1.33-0.16c0.42,0.26,0.51,0.77,0.19,1.12l0,0l-0.03,0.04
					l-2.37,2.68l-0.03,0.04c-0.31,0.35-0.91,0.43-1.33,0.16C9.89,411.63,9.81,411.13,10.12,410.78z"/>
				<path class="st2" d="M18.94,402.08l2.98-2.34c0.39-0.3,1-0.29,1.36,0.04c0.36,0.33,0.34,0.84-0.05,1.14l0,0l-0.03,0.03
					l-2.91,2.28l-0.03,0.03c-0.39,0.3-0.99,0.28-1.35-0.04C18.53,402.9,18.55,402.39,18.94,402.08z"/>
				<path class="st2" d="M29.32,394.75l3.33-1.96c0.44-0.26,1.04-0.17,1.35,0.2c0.31,0.37,0.2,0.88-0.24,1.14l0,0l-0.03,0.02
					l-3.28,1.92l-0.03,0.02c-0.44,0.26-1.04,0.17-1.35-0.2C28.77,395.51,28.88,395,29.32,394.75z"/>
				<path class="st2" d="M40.73,388.63l3.57-1.62c0.48-0.22,1.07-0.07,1.33,0.33c0.26,0.4,0.08,0.9-0.4,1.12l0,0l-0.03,0.01
					l-3.52,1.6l-0.03,0.01c-0.47,0.22-1.07,0.07-1.32-0.33C40.08,389.34,40.25,388.84,40.73,388.63z"/>
				<path class="st2" d="M52.82,383.56l3.73-1.34c0.5-0.18,1.08,0.02,1.29,0.44c0.21,0.42-0.02,0.91-0.52,1.09l0,0l-0.02,0.01
					l-3.68,1.32l-0.02,0.01c-0.5,0.18-1.08-0.02-1.29-0.44C52.09,384.22,52.32,383.74,52.82,383.56z"/>
				<path class="st2" d="M65.38,379.41l3.84-1.08c0.52-0.15,1.08,0.09,1.26,0.53c0.17,0.44-0.11,0.91-0.63,1.06l0,0l-0.02,0.01
					l-3.8,1.07l-0.02,0.01c-0.52,0.15-1.08-0.09-1.26-0.53C64.58,380.03,64.86,379.55,65.38,379.41z"/>
				<path class="st2" d="M78.27,376.06l3.92-0.86c0.54-0.12,1.08,0.15,1.22,0.6c0.14,0.45-0.18,0.91-0.72,1.03l0,0l-0.02,0
					l-3.88,0.85l-0.02,0c-0.53,0.12-1.08-0.15-1.22-0.6C77.42,376.64,77.74,376.18,78.27,376.06z"/>
				<path class="st2" d="M91.39,373.45l3.97-0.65c0.55-0.09,1.08,0.21,1.19,0.67c0.11,0.46-0.25,0.91-0.8,1l0,0l-0.02,0l-3.93,0.64
					l-0.02,0c-0.55,0.09-1.08-0.21-1.18-0.67C90.49,373.98,90.84,373.54,91.39,373.45z"/>
				<path class="st2" d="M104.67,371.5l4.01-0.46c0.56-0.06,1.07,0.26,1.15,0.73c0.08,0.47-0.31,0.9-0.87,0.97l0,0l-0.02,0
					l-3.97,0.45l-0.02,0c-0.56,0.06-1.07-0.26-1.14-0.73C103.72,371.99,104.11,371.56,104.67,371.5z"/>
				<path class="st2" d="M118.05,370.17l4.03-0.28c0.57-0.04,1.06,0.31,1.11,0.79c0.05,0.48-0.37,0.89-0.94,0.93h0l-0.02,0l-4,0.27
					l-0.02,0c-0.56,0.04-1.06-0.32-1.11-0.79C117.07,370.63,117.48,370.21,118.05,370.17z"/>
				<path class="st2" d="M131.49,369.44l4.04-0.11c0.57-0.02,1.05,0.36,1.07,0.84c0.02,0.48-0.43,0.88-1,0.9h0l-0.02,0l-4.01,0.1
					l-0.02,0c-0.57,0.01-1.05-0.36-1.07-0.84C130.47,369.85,130.92,369.45,131.49,369.44z"/>
				<path class="st2" d="M144.96,369.27l4.04,0.06c0.58,0.01,1.04,0.41,1.03,0.9c-0.01,0.49-0.49,0.87-1.06,0.86h0l-0.02,0
					l-4.01-0.06l-0.02,0c-0.58-0.01-1.03-0.41-1.02-0.89C143.91,369.65,144.39,369.26,144.96,369.27z"/>
				<path class="st2" d="M158.42,369.66l4.03,0.22c0.58,0.03,1.02,0.45,0.98,0.94s-0.54,0.86-1.12,0.83h0l-0.01,0l-4-0.23l-0.02,0
					c-0.58-0.03-1.02-0.45-0.98-0.94C157.35,370,157.85,369.63,158.42,369.66z"/>
				<path class="st2" d="M171.84,370.58l4.01,0.35c0.58,0.05,1.01,0.49,0.95,0.98c-0.06,0.49-0.58,0.85-1.16,0.8h0l-0.01,0l-4-0.35
					l-0.01,0c-0.58-0.05-1-0.49-0.94-0.98C170.74,370.89,171.26,370.53,171.84,370.58z"/>
				<path class="st2" d="M185.21,371.86l4,0.44c0.58,0.06,1,0.52,0.92,1.01c-0.08,0.49-0.61,0.84-1.2,0.78l0,0l-0.01,0l-3.98-0.44
					l-0.01,0c-0.58-0.06-0.99-0.52-0.92-1.01C184.09,372.14,184.62,371.79,185.21,371.86z"/>
				<path class="st2" d="M198.53,373.42l3.99,0.52c0.59,0.08,0.99,0.54,0.9,1.03c-0.09,0.49-0.64,0.83-1.23,0.75l0,0l-0.01,0
					l-3.97-0.53l-0.01,0c-0.59-0.08-0.98-0.54-0.89-1.03C197.39,373.68,197.94,373.34,198.53,373.42z"/>
				<path class="st2" d="M211.79,375.26l3.97,0.61c0.59,0.09,0.98,0.56,0.87,1.06c-0.11,0.49-0.67,0.82-1.26,0.73l0,0l-0.01,0
					l-3.95-0.61l-0.01,0c-0.59-0.09-0.98-0.56-0.87-1.06C210.65,375.5,211.21,375.17,211.79,375.26z"/>
				<path class="st2" d="M225,377.37l3.95,0.68c0.59,0.1,0.97,0.59,0.85,1.08c-0.12,0.5-0.7,0.82-1.28,0.71l0,0l-0.01,0l-3.94-0.68
					l-0.01,0c-0.59-0.1-0.97-0.59-0.84-1.08C223.84,377.59,224.42,377.27,225,377.37z"/>
				<path class="st2" d="M238.15,379.74l3.93,0.76c0.59,0.11,0.96,0.61,0.82,1.1c-0.13,0.5-0.72,0.81-1.31,0.69l0,0l-0.01,0
					l-3.92-0.76l-0.01,0c-0.59-0.11-0.96-0.61-0.82-1.1C236.98,379.93,237.56,379.63,238.15,379.74z"/>
				<path class="st2" d="M251.24,382.35l3.91,0.83c0.59,0.12,0.95,0.63,0.8,1.13c-0.15,0.5-0.75,0.8-1.34,0.67l0,0l-0.01,0
					l-3.9-0.83l-0.01,0c-0.59-0.13-0.95-0.63-0.8-1.12C250.05,382.52,250.65,382.22,251.24,382.35z"/>
				<path class="st2" d="M264.25,385.18l3.89,0.89c0.59,0.14,0.94,0.65,0.78,1.15c-0.16,0.5-0.77,0.79-1.36,0.66l-0.01,0l-3.88-0.89
					c-0.59-0.13-0.94-0.64-0.78-1.14C263.05,385.34,263.66,385.05,264.25,385.18z"/>
				<path class="st2" d="M277.19,388.24l3.87,0.96c0.59,0.15,0.93,0.67,0.76,1.17c-0.17,0.5-0.79,0.78-1.38,0.64l-0.01,0l-3.86-0.96
					c-0.59-0.14-0.93-0.66-0.76-1.16C275.98,388.38,276.6,388.09,277.19,388.24z"/>
				<path class="st2" d="M290.07,391.49l3.85,1.01c0.59,0.16,0.92,0.69,0.74,1.18c-0.19,0.5-0.81,0.78-1.41,0.62l-0.01,0l-3.84-1.01
					c-0.59-0.15-0.92-0.68-0.74-1.18C288.84,391.62,289.48,391.34,290.07,391.49z"/>
				<path class="st2" d="M302.87,394.94l3.83,1.07c0.59,0.17,0.91,0.7,0.72,1.2c-0.2,0.5-0.84,0.77-1.43,0.6l-0.01,0l-3.82-1.07
					c-0.59-0.16-0.91-0.7-0.72-1.2C301.64,395.04,302.28,394.77,302.87,394.94z"/>
				<path class="st2" d="M315.6,398.56l3.81,1.12c0.59,0.17,0.91,0.72,0.7,1.22c-0.21,0.5-0.85,0.76-1.45,0.59l-0.01,0l-3.8-1.12
					c-0.59-0.17-0.91-0.72-0.7-1.21C314.36,398.65,315.01,398.38,315.6,398.56z"/>
				<path class="st2" d="M328.27,402.34l3.79,1.16c0.59,0.18,0.9,0.74,0.68,1.23c-0.22,0.5-0.87,0.76-1.47,0.57l-0.01,0l-3.78-1.17
					c-0.59-0.18-0.9-0.73-0.68-1.23C327.02,402.42,327.67,402.16,328.27,402.34z"/>
				<path class="st2" d="M340.86,406.27l3.77,1.21c0.59,0.19,0.89,0.75,0.67,1.25c-0.23,0.5-0.89,0.75-1.48,0.56l-0.01,0l-3.76-1.21
					c-0.59-0.19-0.89-0.75-0.67-1.25C339.61,406.33,340.27,406.08,340.86,406.27z"/>
				<path class="st2" d="M353.4,410.34l3.75,1.25c0.59,0.2,0.89,0.76,0.65,1.26c-0.23,0.5-0.91,0.75-1.5,0.55l0,0l-3.74-1.25
					c-0.59-0.2-0.89-0.76-0.65-1.26C352.13,410.39,352.81,410.14,353.4,410.34z"/>
				<path class="st2" d="M365.88,414.53l3.73,1.28c0.6,0.2,0.88,0.78,0.64,1.28c-0.24,0.5-0.92,0.74-1.52,0.54l0,0l-3.72-1.28
					c-0.59-0.2-0.88-0.77-0.64-1.27C364.6,414.57,365.28,414.33,365.88,414.53z"/>
				<path class="st2" d="M378.3,418.84l3.72,1.31c0.6,0.21,0.88,0.79,0.63,1.29c-0.25,0.5-0.94,0.74-1.53,0.53l0,0l-3.71-1.31
					c-0.6-0.21-0.88-0.78-0.63-1.29C377.02,418.86,377.7,418.63,378.3,418.84z"/>
				<path class="st2" d="M390.67,423.24l3.7,1.34c0.6,0.22,0.87,0.8,0.62,1.3c-0.26,0.5-0.95,0.74-1.55,0.52l0,0l-3.7-1.34
					c-0.6-0.21-0.87-0.8-0.62-1.3C389.38,423.26,390.08,423.02,390.67,423.24z"/>
				<path class="st2" d="M403,427.73l3.69,1.36c0.6,0.22,0.87,0.81,0.61,1.31c-0.26,0.5-0.96,0.73-1.56,0.51l0,0l-3.68-1.36
					c-0.6-0.22-0.87-0.81-0.61-1.31C401.7,427.74,402.4,427.51,403,427.73z"/>
				<path class="st2" d="M415.29,432.29l3.68,1.38c0.6,0.23,0.87,0.82,0.6,1.32c-0.27,0.51-0.97,0.73-1.57,0.51l0,0l-3.67-1.38
					c-0.6-0.22-0.87-0.82-0.6-1.32C413.98,432.29,414.69,432.07,415.29,432.29z"/>
				<path class="st2" d="M427.54,436.92l3.67,1.4c0.6,0.23,0.87,0.83,0.6,1.33c-0.27,0.51-0.98,0.73-1.58,0.5l0,0l-3.67-1.4
					c-0.6-0.23-0.87-0.83-0.6-1.33C426.23,436.91,426.94,436.69,427.54,436.92z"/>
				<path class="st2" d="M439.76,441.59l3.66,1.41c0.61,0.23,0.87,0.83,0.59,1.34c-0.28,0.51-0.99,0.73-1.6,0.5l0,0l-3.66-1.41
					c-0.6-0.23-0.87-0.83-0.59-1.34C438.45,441.58,439.16,441.36,439.76,441.59z"/>
				<path class="st2" d="M451.97,446.31l3.66,1.42c0.61,0.24,0.87,0.84,0.59,1.35c-0.28,0.51-1,0.74-1.61,0.5l0,0l-3.65-1.42
					c-0.61-0.24-0.87-0.84-0.59-1.35C450.64,446.29,451.36,446.07,451.97,446.31z"/>
				<path class="st2" d="M464.15,451.04l3.65,1.42c0.61,0.24,0.88,0.85,0.59,1.36c-0.28,0.51-1.01,0.74-1.62,0.5l0,0l-3.65-1.43
					c-0.61-0.24-0.87-0.85-0.59-1.36C462.82,451.03,463.54,450.8,464.15,451.04z"/>
				<path class="st2" d="M476.33,455.78l3.65,1.42c0.61,0.24,0.88,0.85,0.6,1.37c-0.28,0.52-1.01,0.74-1.63,0.5l0,0l-3.65-1.43
					c-0.61-0.24-0.88-0.85-0.6-1.37C474.99,455.77,475.72,455.55,476.33,455.78z"/>
				<path class="st2" d="M488.51,460.52l3.66,1.42c0.62,0.24,0.89,0.86,0.61,1.38c-0.28,0.52-1.02,0.75-1.63,0.51l0,0l-3.66-1.42
					c-0.62-0.24-0.89-0.86-0.6-1.37C487.17,460.51,487.9,460.28,488.51,460.52z"/>
				<path class="st2" d="M500.71,465.23l3.66,1.41c0.62,0.24,0.9,0.86,0.61,1.38c-0.28,0.52-1.02,0.76-1.64,0.52l0,0l-3.66-1.41
					c-0.62-0.24-0.89-0.86-0.61-1.38C499.35,465.22,500.09,464.99,500.71,465.23z"/>
				<path class="st2" d="M512.92,469.92l3.67,1.4c0.63,0.24,0.91,0.86,0.62,1.39s-1.02,0.76-1.65,0.53l0,0l-3.67-1.4
					c-0.63-0.24-0.9-0.86-0.62-1.39C511.55,469.91,512.29,469.68,512.92,469.92z"/>
				<path class="st2" d="M525.15,474.56l3.67,1.38c0.63,0.24,0.92,0.86,0.64,1.39c-0.28,0.53-1.02,0.77-1.65,0.54l0,0l-3.68-1.39
					c-0.63-0.24-0.91-0.86-0.63-1.39C523.78,474.56,524.52,474.32,525.15,474.56z"/>
				<path class="st2" d="M537.41,479.14l3.68,1.36c0.64,0.23,0.93,0.86,0.65,1.4c-0.28,0.54-1.02,0.78-1.66,0.55l0,0l-3.69-1.37
					c-0.64-0.24-0.92-0.86-0.64-1.4C536.03,479.14,536.77,478.9,537.41,479.14z"/>
				<path class="st2" d="M549.7,483.65l3.7,1.34c0.64,0.23,0.94,0.86,0.67,1.4c-0.27,0.54-1.02,0.79-1.66,0.56l0,0l-3.7-1.34
					c-0.64-0.23-0.94-0.86-0.66-1.4C548.31,483.66,549.06,483.41,549.7,483.65z"/>
				<path class="st2" d="M562.04,488.07l3.71,1.31c0.65,0.23,0.96,0.85,0.69,1.4s-1.02,0.81-1.66,0.58l0,0l-3.71-1.32
					c-0.65-0.23-0.95-0.86-0.68-1.4C560.64,488.1,561.39,487.84,562.04,488.07z"/>
				<path class="st2" d="M574.42,492.4l3.72,1.28c0.66,0.22,0.97,0.85,0.71,1.4c-0.26,0.55-1.01,0.82-1.67,0.6l0,0l-3.73-1.28
					c-0.65-0.22-0.97-0.85-0.7-1.4S573.77,492.18,574.42,492.4z"/>
				<path class="st2" d="M586.85,496.63l3.74,1.24c0.66,0.22,0.99,0.85,0.73,1.4c-0.26,0.56-1,0.83-1.67,0.61l-0.01,0l-3.75-1.25
					c-0.66-0.22-0.98-0.85-0.72-1.4C585.44,496.68,586.19,496.41,586.85,496.63z"/>
				<path class="st2" d="M599.34,500.73l3.76,1.2c0.67,0.21,1.01,0.84,0.76,1.4c-0.25,0.56-1,0.85-1.67,0.64l-0.01,0l-3.77-1.21
					c-0.67-0.21-1-0.84-0.75-1.4C597.92,500.79,598.67,500.51,599.34,500.73z"/>
				<path class="st2" d="M611.89,504.69l3.78,1.16c0.68,0.21,1.03,0.83,0.78,1.4c-0.24,0.57-0.99,0.86-1.66,0.66l-0.01,0l-3.79-1.17
					c-0.67-0.21-1.02-0.84-0.77-1.4C610.47,504.77,611.22,504.48,611.89,504.69z"/>
				<path class="st2" d="M624.5,508.51l3.8,1.11c0.68,0.2,1.05,0.82,0.81,1.4c-0.23,0.57-0.98,0.88-1.66,0.68l-0.01,0l-3.81-1.12
					c-0.68-0.2-1.04-0.83-0.8-1.4C623.07,508.61,623.82,508.31,624.5,508.51z"/>
				<path class="st2" d="M637.18,512.16l3.82,1.06c0.69,0.19,1.07,0.81,0.84,1.39c-0.22,0.58-0.97,0.9-1.66,0.71l-0.01,0l-3.83-1.07
					c-0.69-0.19-1.06-0.82-0.83-1.4C635.74,512.28,636.49,511.97,637.18,512.16z"/>
				<path class="st2" d="M649.92,515.65l3.84,1.01l0.01,0c0.7,0.18,1.08,0.81,0.87,1.39c-0.22,0.59-0.96,0.91-1.65,0.73l0,0
					l-3.85-1.02c-0.7-0.18-1.08-0.81-0.86-1.39C648.48,515.79,649.22,515.46,649.92,515.65L649.92,515.65z"/>
				<path class="st2" d="M662.73,518.94l3.86,0.95l0.01,0c0.7,0.17,1.11,0.79,0.9,1.39c-0.21,0.59-0.94,0.93-1.65,0.76l0,0
					l-3.87-0.96c-0.7-0.17-1.11-0.79-0.9-1.39C661.29,519.1,662.02,518.76,662.73,518.94L662.73,518.94z"/>
				<path class="st2" d="M675.61,522.03l3.88,0.89l0.01,0c0.71,0.16,1.13,0.78,0.94,1.38c-0.19,0.6-0.93,0.95-1.64,0.79l0,0
					l-3.89-0.89c-0.71-0.16-1.13-0.78-0.94-1.38C674.17,522.22,674.9,521.87,675.61,522.03L675.61,522.03z"/>
				<path class="st2" d="M688.56,524.91l3.9,0.82l0.01,0c0.72,0.15,1.16,0.76,0.98,1.37c-0.18,0.61-0.91,0.97-1.63,0.82l0,0
					l-3.91-0.83c-0.72-0.15-1.15-0.76-0.97-1.37C687.11,525.12,687.84,524.76,688.56,524.91L688.56,524.91z"/>
				<path class="st2" d="M701.58,527.56l3.92,0.75l0.01,0c0.73,0.14,1.18,0.75,1.02,1.36c-0.17,0.61-0.89,0.99-1.61,0.86l0,0
					l-3.93-0.76c-0.72-0.14-1.18-0.75-1.01-1.36C700.13,527.8,700.85,527.42,701.58,527.56L701.58,527.56z"/>
				<path class="st2" d="M714.66,529.98l3.94,0.68l0.01,0c0.73,0.13,1.21,0.73,1.06,1.35c-0.15,0.62-0.87,1.02-1.6,0.89l0,0
					l-3.95-0.68c-0.73-0.13-1.2-0.73-1.05-1.35C713.21,530.25,713.92,529.85,714.66,529.98L714.66,529.98z"/>
				<path class="st2" d="M727.8,532.14l3.95,0.6l0.01,0c0.74,0.11,1.23,0.71,1.1,1.33c-0.13,0.62-0.84,1.04-1.58,0.93l0,0
					l-3.97-0.61c-0.74-0.11-1.23-0.71-1.1-1.33C726.35,532.44,727.05,532.03,727.8,532.14L727.8,532.14z"/>
				<path class="st2" d="M740.99,534.05l3.97,0.51l0.01,0c0.75,0.1,1.26,0.68,1.15,1.31c-0.11,0.63-0.81,1.06-1.56,0.96l0,0
					l-3.99-0.52c-0.75-0.1-1.26-0.69-1.14-1.31c0.12-0.63,0.81-1.06,1.56-0.96L740.99,534.05z"/>
				<path class="st2" d="M754.24,535.64l3.98,0.42l0.01,0c0.75,0.08,1.29,0.66,1.2,1.29c-0.09,0.64-0.78,1.09-1.53,1.01l0,0
					l-4.01-0.42c-0.75-0.08-1.29-0.66-1.19-1.29c0.09-0.63,0.78-1.08,1.53-1L754.24,535.64z"/>
				<path class="st2" d="M767.53,536.92l4,0.32l0.01,0c0.76,0.06,1.32,0.63,1.24,1.27c-0.07,0.64-0.75,1.11-1.51,1.05l0,0
					l-4.02-0.33c-0.76-0.06-1.31-0.63-1.24-1.27c0.07-0.64,0.75-1.11,1.51-1.05L767.53,536.92z"/>
				<path class="st2" d="M780.87,537.88l4.01,0.23l0.01,0c0.77,0.04,1.34,0.6,1.29,1.25c-0.05,0.64-0.71,1.13-1.48,1.09l0,0
					l-4.03-0.23c-0.76-0.04-1.34-0.6-1.29-1.25c0.05-0.64,0.71-1.13,1.48-1.09L780.87,537.88z"/>
				<path class="st2" d="M794.23,538.53l4.01,0.13l0.01,0c0.77,0.02,1.37,0.57,1.34,1.22c-0.03,0.65-0.68,1.15-1.45,1.13l0,0
					l-4.04-0.13c-0.77-0.03-1.37-0.57-1.34-1.22c0.03-0.65,0.68-1.15,1.45-1.13L794.23,538.53z"/>
				<path class="st2" d="M807.6,538.85l4.01,0.03l0.01,0c0.77,0.01,1.4,0.54,1.39,1.19c-0.01,0.65-0.64,1.18-1.42,1.17h0l-4.04-0.04
					c-0.77-0.01-1.39-0.54-1.39-1.19c0.01-0.65,0.64-1.17,1.42-1.17L807.6,538.85z"/>
				<path class="st2" d="M820.98,538.84l4.01-0.07l0.01,0c0.78-0.01,1.42,0.51,1.44,1.16c0.02,0.66-0.6,1.2-1.38,1.21h0l-4.04,0.06
					c-0.78,0.01-1.42-0.51-1.43-1.16c-0.01-0.65,0.6-1.2,1.38-1.21L820.98,538.84z"/>
				<path class="st2" d="M834.35,538.51l4.01-0.17l0.01,0c0.78-0.03,1.45,0.47,1.49,1.13c0.04,0.66-0.56,1.22-1.35,1.25h0
					l-4.03,0.16c-0.78,0.03-1.44-0.48-1.48-1.13c-0.04-0.66,0.56-1.22,1.34-1.25L834.35,538.51z"/>
				<path class="st2" d="M847.71,537.83l4-0.27l0.01,0c0.78-0.05,1.47,0.44,1.53,1.1c0.06,0.66-0.52,1.24-1.3,1.29h0l-4.03,0.27
					c-0.78,0.05-1.47-0.44-1.53-1.1s0.52-1.24,1.3-1.29L847.71,537.83z"/>
				<path class="st2" d="M861.03,536.8l3.99-0.38l0.01,0c0.78-0.07,1.49,0.4,1.58,1.06c0.09,0.66-0.48,1.26-1.26,1.33l0,0
					l-4.02,0.38c-0.78,0.07-1.49-0.4-1.58-1.06c-0.09-0.66,0.48-1.26,1.26-1.33L861.03,536.8z"/>
				<path class="st2" d="M874.3,535.42l3.97-0.49l0.01,0c0.79-0.1,1.52,0.36,1.63,1.02c0.11,0.66-0.43,1.28-1.21,1.37l0,0l-4,0.49
					c-0.78,0.1-1.51-0.36-1.63-1.02c-0.11-0.66,0.43-1.27,1.21-1.37L874.3,535.42z"/>
				<path class="st2" d="M887.51,533.66l3.95-0.6l0.01,0c0.78-0.12,1.54,0.32,1.68,0.98c0.14,0.66-0.38,1.29-1.16,1.41l0,0
					l-3.98,0.6c-0.78,0.12-1.53-0.32-1.67-0.98c-0.14-0.66,0.38-1.29,1.16-1.41L887.51,533.66z"/>
				<path class="st2" d="M900.63,531.51l3.92-0.72l0.02,0c0.78-0.14,1.56,0.27,1.73,0.93c0.17,0.66-0.32,1.31-1.11,1.45l0,0
					l-3.95,0.72c-0.78,0.14-1.55-0.27-1.72-0.93c-0.17-0.66,0.33-1.31,1.11-1.45L900.63,531.51z"/>
				<path class="st2" d="M913.65,528.97l3.88-0.85l0.02,0c0.78-0.17,1.57,0.22,1.78,0.88c0.2,0.66-0.27,1.33-1.05,1.5l0,0
					l-3.92,0.85c-0.78,0.17-1.57-0.23-1.77-0.88c-0.2-0.66,0.27-1.32,1.05-1.49L913.65,528.97z"/>
				<path class="st2" d="M926.54,526l3.84-0.98l0.02,0c0.77-0.2,1.59,0.17,1.83,0.82c0.23,0.65-0.2,1.34-0.98,1.54l0,0l-3.87,0.98
					c-0.77,0.2-1.59-0.17-1.82-0.82c-0.23-0.65,0.21-1.34,0.98-1.53L926.54,526z"/>
				<path class="st2" d="M939.28,522.59l3.78-1.11l0.02-0.01c0.77-0.23,1.61,0.12,1.87,0.76c0.27,0.65-0.14,1.35-0.9,1.58l0,0
					l-3.82,1.12c-0.77,0.22-1.6-0.12-1.87-0.76c-0.27-0.65,0.14-1.35,0.91-1.58L939.28,522.59z"/>
				<path class="st2" d="M951.82,518.72l3.72-1.25l0.02-0.01c0.76-0.26,1.62,0.06,1.92,0.69c0.3,0.64-0.07,1.36-0.82,1.62l0,0
					l-3.76,1.26c-0.76,0.25-1.62-0.06-1.92-0.69c-0.3-0.64,0.07-1.36,0.82-1.62L951.82,518.72z"/>
				<path class="st2" d="M964.13,514.37l3.64-1.4l0.02-0.01c0.75-0.29,1.63-0.01,1.97,0.62c0.34,0.63,0.01,1.37-0.73,1.66l0,0
					l-3.68,1.41c-0.75,0.29-1.62,0.01-1.96-0.62c-0.34-0.63-0.01-1.37,0.73-1.65L964.13,514.37z"/>
				<path class="st2" d="M976.17,509.52l3.55-1.56l0.02-0.01c0.73-0.32,1.63-0.08,2.01,0.53c0.38,0.62,0.1,1.37-0.64,1.69l0,0
					l-3.59,1.57c-0.73,0.32-1.63,0.08-2.01-0.54c-0.38-0.62-0.09-1.37,0.64-1.69L976.17,509.52z"/>
				<path class="st2" d="M987.88,504.15l3.44-1.72l0.02-0.01c0.71-0.35,1.63-0.16,2.05,0.44c0.42,0.6,0.19,1.37-0.53,1.73l0,0
					l-3.49,1.73c-0.71,0.35-1.63,0.15-2.05-0.45c-0.42-0.6-0.18-1.37,0.53-1.73L987.88,504.15z"/>
				<path class="st2" d="M999.22,498.24l3.32-1.88l0.02-0.01c0.69-0.39,1.63-0.24,2.09,0.34c0.46,0.58,0.28,1.37-0.41,1.76l0,0
					l-3.37,1.9c-0.69,0.39-1.62,0.23-2.09-0.35c-0.46-0.58-0.28-1.37,0.41-1.76L999.22,498.24z"/>
				<path class="st2" d="M1010.12,491.78l3.17-2.05l0.02-0.01c0.66-0.43,1.61-0.32,2.12,0.24c0.51,0.56,0.38,1.36-0.28,1.79l0,0
					l-3.22,2.07c-0.66,0.43-1.61,0.32-2.12-0.24c-0.51-0.56-0.38-1.36,0.28-1.78L1010.12,491.78z"/>
				<path class="st2" d="M1020.52,484.77l3.01-2.21l0.02-0.02c0.63-0.46,1.59-0.41,2.14,0.12c0.55,0.53,0.49,1.34-0.14,1.81l0,0
					l-3.06,2.25c-0.63,0.46-1.59,0.41-2.14-0.12c-0.55-0.53-0.49-1.34,0.15-1.8L1020.52,484.77z"/>
				<path class="st2" d="M1030.34,477.19l2.83-2.38l0.02-0.02c0.6-0.5,1.56-0.5,2.16,0c0.6,0.5,0.6,1.32,0,1.82l0,0l-2.87,2.41
					c-0.6,0.5-1.56,0.5-2.16,0c-0.59-0.5-0.59-1.31,0-1.82L1030.34,477.19z"/>
				<path class="st2" d="M1039.53,469.08l2.63-2.53l0.02-0.02c0.56-0.54,1.53-0.59,2.16-0.12c0.64,0.47,0.7,1.28,0.15,1.82l0,0
					l-2.67,2.57c-0.56,0.54-1.52,0.59-2.16,0.12c-0.64-0.47-0.7-1.28-0.14-1.82L1039.53,469.08z"/>
				<path class="st2" d="M1048.05,460.46l2.42-2.68l0.02-0.02c0.51-0.57,1.48-0.68,2.16-0.25c0.68,0.43,0.81,1.25,0.29,1.82l0,0
					l-2.46,2.72c-0.52,0.57-1.48,0.68-2.16,0.24c-0.68-0.43-0.81-1.25-0.29-1.82L1048.05,460.46z"/>
				<path class="st2" d="M1055.86,451.38l2.2-2.81l0.02-0.02c0.47-0.6,1.43-0.77,2.14-0.37c0.71,0.4,0.91,1.2,0.44,1.8l0,0
					l-2.24,2.85c-0.47,0.6-1.43,0.76-2.14,0.37c-0.71-0.4-0.91-1.2-0.44-1.8L1055.86,451.38z"/>
				<path class="st2" d="M1062.93,441.87l1.98-2.92l0.02-0.02c0.42-0.63,1.37-0.85,2.12-0.49c0.75,0.36,1.01,1.16,0.58,1.78l0,0
					l-2.01,2.97c-0.42,0.63-1.37,0.85-2.12,0.49c-0.74-0.36-1-1.16-0.58-1.78L1062.93,441.87z"/>
				<path class="st2" d="M1069.26,432l1.75-3.03l0.01-0.02c0.38-0.65,1.31-0.92,2.09-0.61c0.78,0.32,1.1,1.1,0.72,1.76l0,0
					l-1.78,3.07c-0.38,0.65-1.31,0.92-2.08,0.6c-0.77-0.32-1.09-1.1-0.72-1.75L1069.26,432z"/>
				<path class="st2" d="M1074.82,421.81l1.52-3.11l0.01-0.02c0.33-0.67,1.25-1,2.05-0.72c0.8,0.28,1.18,1.05,0.85,1.72l0,0
					l-1.55,3.16c-0.33,0.67-1.24,0.99-2.04,0.72c-0.8-0.28-1.18-1.05-0.85-1.72L1074.82,421.81z"/>
				<path class="st2" d="M1079.62,411.34l1.29-3.19l0.01-0.02c0.28-0.69,1.18-1.06,2-0.83c0.82,0.24,1.26,0.99,0.98,1.68l0,0
					l-1.32,3.23c-0.28,0.69-1.18,1.06-2,0.82c-0.82-0.24-1.26-0.99-0.98-1.68L1079.62,411.34z"/>
				<path class="st2" d="M1083.67,400.65l1.07-3.25l0.01-0.02c0.23-0.71,1.1-1.12,1.95-0.93c0.84,0.2,1.33,0.93,1.1,1.64l0,0
					l-1.09,3.29c-0.23,0.71-1.1,1.12-1.94,0.92c-0.84-0.2-1.33-0.93-1.1-1.64L1083.67,400.65z"/>
				<path class="st2" d="M1086.98,389.78l0.85-3.29l0.01-0.02c0.19-0.72,1.03-1.18,1.89-1.02c0.86,0.16,1.4,0.87,1.21,1.59l0,0
					l-0.86,3.33c-0.19,0.72-1.03,1.18-1.89,1.02c-0.86-0.16-1.4-0.87-1.21-1.59L1086.98,389.78z"/>
				<path class="st2" d="M1089.56,378.76l0.63-3.33l0-0.02c0.14-0.73,0.96-1.23,1.83-1.11c0.87,0.12,1.46,0.81,1.32,1.54l0,0
					l-0.64,3.37c-0.14,0.73-0.96,1.23-1.83,1.11c-0.87-0.12-1.46-0.81-1.32-1.54L1089.56,378.76z"/>
				<path class="st2" d="M1091.42,367.64l0.42-3.35l0-0.02c0.09-0.74,0.88-1.28,1.76-1.2c0.88,0.08,1.52,0.74,1.42,1.48l0,0
					l-0.43,3.39c-0.09,0.74-0.88,1.28-1.76,1.2c-0.88-0.08-1.51-0.74-1.42-1.48L1091.42,367.64z"/>
				<path class="st2" d="M1092.57,356.45l0.21-3.37l0-0.02c0.05-0.75,0.8-1.32,1.69-1.28c0.89,0.04,1.57,0.68,1.52,1.42l0,0
					l-0.22,3.41c-0.05,0.75-0.81,1.32-1.69,1.28c-0.89-0.04-1.56-0.68-1.52-1.42L1092.57,356.45z"/>
				<path class="st2" d="M1093.05,345.23l0.01-3.37l0-0.02c0-0.75,0.73-1.36,1.62-1.36c0.89,0,1.61,0.61,1.61,1.36v0l-0.02,3.41
					c0,0.75-0.73,1.36-1.62,1.35c-0.89,0-1.61-0.61-1.61-1.36V345.23z"/>
				<path class="st2" d="M1092.87,333.99l-0.18-3.37l0-0.02c-0.04-0.75,0.65-1.39,1.55-1.43c0.89-0.03,1.65,0.55,1.69,1.3v0
					l0.18,3.41c0.04,0.75-0.65,1.39-1.55,1.42c-0.89,0.03-1.65-0.55-1.69-1.3L1092.87,333.99z"/>
				<path class="st2" d="M1092.04,322.78l-0.37-3.36l0-0.02c-0.08-0.75,0.58-1.42,1.47-1.49c0.9-0.07,1.69,0.48,1.77,1.24l0,0
					l0.37,3.4c0.08,0.75-0.58,1.42-1.47,1.49c-0.89,0.07-1.69-0.49-1.77-1.24L1092.04,322.78z"/>
				<path class="st2" d="M1090.59,311.61l-0.56-3.34l0-0.02c-0.13-0.75,0.5-1.45,1.39-1.56c0.89-0.11,1.72,0.42,1.85,1.17l0,0
					l0.56,3.38c0.12,0.75-0.5,1.45-1.39,1.55c-0.89,0.11-1.72-0.42-1.84-1.17L1090.59,311.61z"/>
				<path class="st2" d="M1088.51,300.51l-0.74-3.31l0-0.02c-0.17-0.75,0.42-1.47,1.31-1.62c0.89-0.14,1.75,0.35,1.92,1.1l0,0
					l0.75,3.35c0.17,0.75-0.42,1.47-1.31,1.61c-0.89,0.14-1.75-0.35-1.91-1.1L1088.51,300.51z"/>
				<path class="st2" d="M1085.83,289.5l-0.92-3.28l-0.01-0.02c-0.21-0.75,0.34-1.49,1.23-1.67c0.89-0.18,1.78,0.29,1.98,1.03l0,0
					l0.93,3.32c0.21,0.75-0.34,1.49-1.23,1.67c-0.89,0.18-1.77-0.29-1.98-1.03L1085.83,289.5z"/>
				<path class="st2" d="M1082.56,278.61l-1.09-3.24l-0.01-0.02c-0.25-0.74,0.26-1.51,1.14-1.72c0.88-0.21,1.8,0.22,2.05,0.96l0,0
					l1.1,3.28c0.25,0.74-0.26,1.51-1.14,1.72c-0.88,0.21-1.79-0.22-2.04-0.96L1082.56,278.61z"/>
				<path class="st2" d="M1078.71,267.85l-1.26-3.2l-0.01-0.02c-0.29-0.73,0.18-1.53,1.05-1.77c0.87-0.24,1.81,0.15,2.1,0.89l0,0
					l1.27,3.24c0.29,0.73-0.18,1.53-1.05,1.77c-0.87,0.24-1.81-0.15-2.1-0.89L1078.71,267.85z"/>
				<path class="st2" d="M1074.3,257.24l-1.43-3.15l-0.01-0.02c-0.33-0.73,0.1-1.54,0.96-1.82c0.86-0.28,1.83,0.09,2.16,0.81l0,0
					l1.44,3.19c0.33,0.72-0.1,1.54-0.97,1.81c-0.86,0.28-1.82-0.09-2.15-0.81L1074.3,257.24z"/>
				<path class="st2" d="M1069.35,246.8l-1.59-3.1l-0.01-0.02c-0.37-0.72,0.02-1.55,0.87-1.86c0.85-0.31,1.84,0.02,2.2,0.74l0,0
					l1.6,3.13c0.37,0.72-0.03,1.55-0.88,1.85c-0.85,0.31-1.83-0.02-2.2-0.74L1069.35,246.8z"/>
				<path class="st2" d="M1063.88,236.54l-1.74-3.04l-0.01-0.02c-0.4-0.71-0.05-1.55,0.78-1.89c0.84-0.34,1.84-0.04,2.25,0.66l0,0
					l1.76,3.07c0.4,0.7,0.05,1.55-0.79,1.89c-0.84,0.34-1.84,0.04-2.24-0.66L1063.88,236.54z"/>
				<path class="st2" d="M1057.9,226.49l-1.89-2.97l-0.01-0.02c-0.44-0.69-0.13-1.56,0.69-1.93c0.82-0.37,1.85-0.11,2.29,0.58l0,0
					l1.91,3.01c0.44,0.69,0.13,1.55-0.69,1.92c-0.82,0.37-1.85,0.11-2.28-0.58L1057.9,226.49z"/>
				<path class="st2" d="M1051.43,216.65l-2.03-2.91l-0.01-0.02c-0.48-0.68-0.21-1.56,0.6-1.96c0.81-0.4,1.85-0.17,2.32,0.51l0,0
					l2.05,2.94c0.47,0.68,0.2,1.55-0.6,1.95c-0.81,0.4-1.85,0.17-2.32-0.51L1051.43,216.65z"/>
				<path class="st2" d="M1044.5,207.05l-2.17-2.84l-0.01-0.01c-0.51-0.67-0.28-1.55,0.51-1.98c0.79-0.43,1.85-0.24,2.36,0.43l0,0
					l2.19,2.87c0.51,0.67,0.28,1.55-0.51,1.98c-0.79,0.43-1.84,0.24-2.35-0.43L1044.5,207.05z"/>
				<path class="st2" d="M1037.11,197.68l-2.3-2.76l-0.01-0.01c-0.54-0.65-0.36-1.55,0.42-2.01c0.77-0.46,1.84-0.3,2.38,0.35l0,0
					l2.32,2.79c0.54,0.65,0.35,1.55-0.42,2c-0.77,0.46-1.84,0.3-2.38-0.35L1037.11,197.68z"/>
				<path class="st2" d="M1029.29,188.57l-2.43-2.68l-0.01-0.01c-0.58-0.64-0.43-1.54,0.32-2.03c0.75-0.48,1.83-0.36,2.41,0.27l0,0
					l2.45,2.71c0.57,0.64,0.43,1.54-0.33,2.03c-0.75,0.48-1.83,0.36-2.4-0.28L1029.29,188.57z"/>
				<path class="st2" d="M1021.05,179.72l-2.55-2.6l-0.01-0.01c-0.61-0.62-0.5-1.53,0.23-2.04c0.73-0.51,1.82-0.42,2.43,0.2l0,0
					l2.57,2.63c0.6,0.62,0.5,1.53-0.23,2.04c-0.73,0.51-1.82,0.42-2.42-0.2L1021.05,179.72z"/>
				<path class="st2" d="M1012.41,171.14l-2.67-2.52l-0.01-0.01c-0.64-0.6-0.57-1.52,0.14-2.06c0.71-0.54,1.81-0.48,2.44,0.12l0,0
					l2.69,2.55c0.63,0.6,0.57,1.52-0.14,2.06c-0.71,0.53-1.81,0.48-2.44-0.12L1012.41,171.14z"/>
				<path class="st2" d="M1003.39,162.85l-2.78-2.43l-0.01-0.01c-0.67-0.58-0.64-1.51,0.05-2.07c0.69-0.56,1.79-0.54,2.46,0.04l0,0
					l2.8,2.46c0.66,0.58,0.64,1.51-0.05,2.07c-0.69,0.56-1.79,0.54-2.46-0.04L1003.39,162.85z"/>
				<path class="st2" d="M994.01,154.84l-2.88-2.34l-0.01-0.01c-0.69-0.56-0.71-1.49-0.04-2.08c0.67-0.58,1.77-0.6,2.47-0.04l0,0
					l2.91,2.37c0.69,0.56,0.71,1.49,0.04,2.08c-0.67,0.58-1.77,0.6-2.46,0.03L994.01,154.84z"/>
				<path class="st2" d="M984.28,147.13l-2.98-2.25l-0.01-0.01c-0.72-0.54-0.78-1.48-0.13-2.08c0.65-0.61,1.75-0.66,2.47-0.11l0,0
					l3.01,2.28c0.72,0.54,0.78,1.48,0.13,2.08c-0.65,0.61-1.75,0.65-2.47,0.11L984.28,147.13z"/>
				<path class="st2" d="M974.23,139.73l-3.08-2.16l-0.01-0.01c-0.75-0.52-0.84-1.46-0.22-2.09c0.62-0.63,1.73-0.71,2.48-0.19l0,0
					l3.1,2.19c0.74,0.52,0.84,1.46,0.22,2.08c-0.62,0.63-1.73,0.71-2.48,0.18L974.23,139.73z"/>
				<path class="st2" d="M963.88,132.62l-3.16-2.07l-0.01-0.01c-0.77-0.5-0.91-1.44-0.31-2.09c0.6-0.65,1.71-0.76,2.48-0.26l0,0
					l3.19,2.1c0.77,0.5,0.9,1.44,0.3,2.09c-0.6,0.65-1.71,0.76-2.48,0.26L963.88,132.62z"/>
				<path class="st2" d="M953.24,125.81l-3.24-1.98l-0.01-0.01c-0.79-0.48-0.97-1.42-0.39-2.09c0.58-0.67,1.68-0.81,2.48-0.33l0,0
					l3.27,2c0.79,0.48,0.96,1.42,0.39,2.08c-0.58,0.67-1.68,0.81-2.47,0.33L953.24,125.81z"/>
				<path class="st2" d="M942.35,119.3l-3.32-1.9l-0.01-0.01c-0.81-0.46-1.03-1.4-0.47-2.08c0.55-0.68,1.66-0.86,2.47-0.4l0,0
					l3.34,1.91c0.81,0.46,1.02,1.4,0.47,2.08c-0.55,0.68-1.66,0.86-2.47,0.4L942.35,119.3z"/>
				<path class="st2" d="M931.21,113.08l-3.39-1.81l-0.01-0.01c-0.83-0.44-1.08-1.37-0.55-2.08c0.53-0.7,1.63-0.91,2.47-0.47l0,0
					l3.41,1.82c0.83,0.44,1.08,1.37,0.55,2.07c-0.53,0.7-1.63,0.91-2.46,0.46L931.21,113.08z"/>
				<path class="st2" d="M919.84,107.16l-3.45-1.72l-0.01-0.01c-0.85-0.42-1.14-1.35-0.63-2.07c0.5-0.72,1.6-0.96,2.46-0.53l0,0
					l3.48,1.74c0.85,0.42,1.13,1.35,0.63,2.07c-0.5,0.72-1.6,0.95-2.45,0.53L919.84,107.16z"/>
				<path class="st2" d="M908.26,101.54l-3.51-1.63l-0.01-0.01c-0.87-0.4-1.19-1.33-0.71-2.06c0.48-0.73,1.57-1,2.45-0.6l0,0
					l3.54,1.65c0.87,0.4,1.18,1.33,0.7,2.06c-0.48,0.73-1.57,1-2.44,0.59L908.26,101.54z"/>
				<path class="st2" d="M896.49,96.21l-3.57-1.54l-0.01-0.01c-0.89-0.38-1.24-1.3-0.78-2.05c0.46-0.75,1.54-1.04,2.43-0.66l0,0
					l3.59,1.56c0.89,0.38,1.24,1.3,0.78,2.05c-0.46,0.75-1.54,1.04-2.43,0.66L896.49,96.21z"/>
				<path class="st2" d="M884.54,91.17l-3.62-1.45l-0.01-0.01c-0.9-0.36-1.29-1.28-0.86-2.04c0.43-0.76,1.51-1.08,2.42-0.72l0,0
					l3.65,1.47c0.9,0.36,1.28,1.27,0.85,2.03c-0.43,0.76-1.51,1.08-2.42,0.72L884.54,91.17z"/>
				<path class="st2" d="M872.41,86.42l-3.67-1.37l-0.01-0.01c-0.92-0.34-1.34-1.25-0.93-2.02c0.41-0.77,1.48-1.12,2.4-0.78l0,0
					l3.69,1.38c0.92,0.34,1.33,1.25,0.92,2.02c-0.41,0.77-1.48,1.12-2.4,0.78L872.41,86.42z"/>
			</g>
		</g>
	</g>
	<g>
		<g>
			<g>
				<g>
					<path class="st0" d="M689.61,41.63l101.83,71.14c1.95,1.36,4.37,1.87,6.7,1.41c2.33-0.46,4.38-1.85,5.67-3.85L871.38,5.41
						c0.77-1.2,0.74-2.75-0.08-3.92s-2.27-1.72-3.66-1.4L689.61,41.63z"/>
				</g>
			</g>
		</g>
	</g>
</g>
<polygon class="st3" points="846.34,44.26 689.61,41.63 835.48,61.22 828.97,71.23 850.15,78.62 "/>
<polygon class="st4" points="835.48,61.22 850.15,78.62 828.97,71.23 "/>
</svg>
