<?xml version="1.0" encoding="utf-8"?>
<!-- Generator: Adobe Illustrator 25.4.1, SVG Export Plug-In . SVG Version: 6.00 Build 0)  -->
<svg version="1.1" id="Layer_1" xmlns="http://www.w3.org/2000/svg" xmlns:xlink="http://www.w3.org/1999/xlink" x="0px" y="0px"
	 viewBox="0 0 1851.1 1080" style="enable-background:new 0 0 1851.1 1080;" xml:space="preserve">
<style type="text/css">
	.st0{fill:#EBE9E1;}
	.st1{fill:#112849;}
	.st2{fill:#F4FF66;}
	.st3{fill:#124BD8;}
	.st4{fill:#8BCDEA;}
</style>
<g id="Artwork_59_1_">
	<g>
		<polygon class="st0" points="1234.1,308.5 1234.1,154.4 1388.2,154.4 		"/>
		<polygon class="st1" points="1388.2,0 1388.2,154.4 1542.6,154.4 		"/>
		<polygon class="st2" points="1234.1,0 1079.8,154.4 1234.1,154.4 		"/>
		<polygon class="st3" points="1388.2,308.5 1388.2,462.8 1542.6,308.5 		"/>
	</g>
</g>
<polygon class="st3" points="925.4,0 925.4,154.4 1079.8,154.4 "/>
<polygon class="st2" points="462.6,463.1 308.3,617.5 462.6,617.5 "/>
<polygon class="st3" points="153.9,463.1 153.9,617.5 308.3,617.5 "/>
<g id="Artwork_59_2_">
	<g>
		<polygon class="st2" points="462.8,0 308.5,154.4 462.8,154.4 		"/>
	</g>
</g>
<polygon class="st3" points="154.1,0 154.1,154.4 308.5,154.4 "/>
<polygon class="st3" points="1851.3,154.4 1696.9,154.4 1696.9,0 "/>
<polygon class="st2" points="925.4,1080 1079.8,925.6 925.4,925.6 "/>
<polygon class="st4" points="616.9,1080 771.3,925.6 616.9,925.6 "/>
<polygon class="st1" points="-0.2,1080 154.1,925.6 -0.2,925.6 "/>
<polygon class="st4" points="1696.9,1080 1851.3,925.6 1696.9,925.6 "/>
<polygon class="st3" points="1234.1,1080 1234.1,925.6 1079.8,925.6 "/>
<polygon class="st2" points="771.3,0 616.9,154.4 771.3,154.4 "/>
<g>
	<g id="Artwork_69_4_">
		<g>
			<polygon class="st1" points="1234.1,771.3 1234.1,617.2 1388.2,617.2 			"/>
			<polygon class="st2" points="1388.2,462.8 1234.1,462.8 1234.1,308.7 			"/>
			<polygon class="st2" points="1388.2,925.6 1542.6,771.3 1388.2,771.3 			"/>
			<polygon class="st4" points="1542.6,617.2 1388.2,462.8 1388.2,617.2 			"/>
		</g>
	</g>
</g>
<polygon class="st0" points="154.1,771.5 154.1,617.4 0,617.4 "/>
<polygon class="st4" points="154.1,925.6 154.1,771.5 0,771.5 "/>
<polygon class="st4" points="0,308.5 154.1,308.5 154.1,154.4 "/>
<polygon class="st2" points="308.5,1080 154.1,925.6 308.5,925.6 "/>
<g>
	<g id="Artwork_69_2_">
		<g>
			<polygon class="st0" points="1542.6,925.6 1388.2,1080 1388.2,925.6 			"/>
		</g>
	</g>
</g>
<polygon class="st4" points="1542.6,308.5 1542.6,154.4 1696.7,154.4 "/>
<polygon class="st3" points="1542.6,771.3 1542.6,925.6 1696.9,925.6 "/>
<polygon class="st2" points="1696.9,308.5 1542.6,462.8 1696.9,462.8 "/>
<polygon class="st1" points="1696.9,617.2 1851.3,462.8 1696.9,462.8 "/>
<polygon class="st0" points="1542.6,617.2 1696.9,771.5 1696.9,617.2 "/>
<polygon class="st2" points="1696.9,771.5 1696.9,925.9 1851.3,771.5 "/>
<polygon class="st0" points="925.4,771.8 925.4,925.9 771.3,925.9 "/>
<polygon class="st3" points="925.7,771.8 925.7,617.5 771.3,771.8 "/>
<g>
	<g id="Artwork_69_00000147193107413884170220000000864205109114305430_">
		<g>
			<polygon class="st1" points="1079.8,309 1079.8,463.1 925.7,463.1 			"/>
			<polygon class="st1" points="308.5,463.1 308.5,309 462.6,309 			"/>
			<polygon class="st2" points="925.7,617.5 1079.8,617.5 1079.8,771.6 			"/>
			<polygon class="st2" points="925.7,154.7 771.3,309 925.7,309 			"/>
			<polygon class="st4" points="771.3,463.1 925.7,617.5 925.7,463.1 			"/>
		</g>
	</g>
</g>
<polygon class="st4" points="462.6,771.8 462.6,925.9 308.5,925.9 "/>
<polygon class="st3" points="771.3,309 771.3,154.7 617,154.7 "/>
<polygon class="st2" points="617,771.8 771.3,617.5 617,617.5 "/>
<polygon class="st1" points="617,463.1 462.6,617.5 617,617.5 "/>
<polygon class="st0" points="771.3,463.1 617,308.8 617,463.1 "/>
<polygon class="st0" points="1234.1,617.5 1079.8,463.2 1079.8,617.5 "/>
<polygon class="st2" points="617,308.8 617,154.4 462.6,308.8 "/>
</svg>
