<?xml version="1.0" encoding="utf-8"?>
<!-- Generator: Adobe Illustrator 25.4.1, SVG Export Plug-In . SVG Version: 6.00 Build 0)  -->
<svg version="1.1" id="Layer_1" xmlns="http://www.w3.org/2000/svg" xmlns:xlink="http://www.w3.org/1999/xlink" x="0px" y="0px"
	 viewBox="0 0 663.39 204.81" style="enable-background:new 0 0 663.39 204.81;" xml:space="preserve">
<style type="text/css">
	.st0{fill:#124BD8;}
</style>
<g>
	<path class="st0" d="M197.35,0h-57.38v48.26l-61.71-0.01l-52.83,52.83l43.71,43.71H0v57.38h87.01l52.82-52.83l-43.7-43.7h43.84
		v96.53h57.39V96.52h-41.83l41.83-41.82L197.35,0z M130.94,150.36L84.7,196.59H5.58v-46.24H130.94z M191.79,151.79v44.8h-44.81
		L191.79,151.79z M144.11,100.07H34.32l46.24-46.25h109.8L144.11,100.07z M145.54,50.38V5.58h44.82L145.54,50.38z"/>
	<path class="st0" d="M288.93,180.45c-0.76,0.54-8.97,6.92-20.51,6.92c-9.99,0-17.43-4.87-17.43-22.05V93.56h43.02V77.41h-43.02
		V31.02L231.52,50.5v26.91h-23.13v16.15h23.13v71.26c0,29.22,13.07,39.99,35.11,39.99c13.58,0,23.84-5.9,28.71-9.23
		c0,0,1.68-1.07,2.17-1.42c0.13-0.09,0.34-0.24,0.58-0.41l-7.19-14.73C290.15,179.56,289.35,180.15,288.93,180.45z"/>
	<path class="st0" d="M361.34,74.85c-35.63,0-62.79,28.97-62.79,65.1c0,39.47,29.98,64.85,65.36,64.85
		c17.17,0,33.83-5.9,47.15-16.41l-8.45-14.35c-10.25,8.46-24.35,13.33-38.45,13.33c-23.07,0-42.29-15.63-45.37-40.49h101.76
		c0-0.25,0.52-4.1,0.52-7.69C421.06,103.56,394.66,74.85,361.34,74.85z M318.79,132.01c2.83-23.32,20.25-39.72,41.53-39.72
		c21.78,0,39.47,16.65,41.52,39.72H318.79z"/>
	<path class="st0" d="M498.37,185.83c-27.43,0-46.39-19.99-46.39-45.88c0-26.66,19.74-46.13,45.88-46.13
		c13.08,0,24.36,4.35,32.04,11.53l12.31-13.84C530.41,81,514.77,74.85,497.6,74.85c-36.65,0-65.61,28.71-65.61,65.1
		c0,36.4,28.96,64.85,65.61,64.85c18.71,0,35.63-6.92,47.67-18.46l-11.27-14.61C525.28,180.45,512.47,185.83,498.37,185.83z"/>
	<path class="st0" d="M618.02,74.85c-18.45,0-34.35,8.71-43.06,23.84v-67h-19.48v170.56h19.48v-70.48
		c0-19.74,14.35-37.93,37.17-37.93c22.55,0,31.52,12.3,31.52,35.37v70.67l19.74-19.74v-53.5C663.39,93.05,648.78,74.85,618.02,74.85
		z"/>
</g>
</svg>
