<?xml version="1.0" encoding="utf-8"?>
<!-- Generator: Adobe Illustrator 25.4.1, SVG Export Plug-In . SVG Version: 6.00 Build 0)  -->
<svg version="1.1" id="Layer_1" xmlns="http://www.w3.org/2000/svg" xmlns:xlink="http://www.w3.org/1999/xlink" x="0px" y="0px"
	 viewBox="0 0 1011.12 208.78" style="enable-background:new 0 0 1011.12 208.78;" xml:space="preserve">
<style type="text/css">
	.st0{fill:#124BD8;}
</style>
<g>
	<g>
		<path class="st0" d="M750.44,77.61c-7.55-2.03-13.3-2.94-13.3-6.66c0-2.36,2.25-4.39,7.44-4.39c5.86,0,9.01,2.7,9.01,6.53v0.11
			h16.46v-0.67c0-12.4-11.72-18.72-26.03-18.72c-14.44,0-24.12,6.32-24.12,17.59c0,10.49,8.22,15.89,20.63,18.94
			c5.97,1.46,13.87,2.71,13.87,6.88c0,2.48-2.82,3.94-7.78,3.94c-6.99,0-10.04-2.92-11.16-7.09l-16.01,4.5
			c2.15,10.37,12.96,15.33,27.06,15.33c14.87,0,25.13-5.4,25.13-17.58C771.63,84.82,762.38,80.76,750.44,77.61z"/>
		<path class="st0" d="M823.35,83.13l15-28.07h-18.82l-11.27,21.42h-8.57V33.76h-17.59v78.91h17.59V91.25h8.78l11.84,21.42h19.95
			L823.35,83.13z"/>
		<path class="st0" d="M855.85,28.69c-5.86,0-10.49,4.62-10.49,10.37c0,5.75,4.63,10.36,10.49,10.36c5.75,0,10.49-4.62,10.49-10.36
			C866.33,33.3,861.59,28.69,855.85,28.69z M847.05,55.06v57.61h17.59V55.06H847.05z"/>
		<path class="st0" d="M878.03,33.76v78.91h17.58V33.76H878.03z"/>
		<path class="st0" d="M909,33.76v78.91h17.59V33.76H909z"/>
		<path class="st0" d="M940.87,95.88v16.79h58.91V95.88H940.87z"/>
		<path class="st0" d="M722.8,187.4v16.79h58.91V187.4H722.8z"/>
		<path class="st0" d="M834.14,145.34c-8.34,0-14.43,3.5-18.15,8.91v-28.97h-17.58v78.91h17.58v-30.33
			c0-6.42,5.07-12.85,12.29-12.85c4.4,0,9.01,2.48,9.01,10.71v32.46h17.59v-34.84C854.89,152.22,845.98,145.34,834.14,145.34z"/>
		<path class="st0" d="M907.85,146.58v30.33c0,6.42-5.07,12.96-12.28,12.96c-4.4,0-9.02-2.48-9.02-10.83v-32.46h-17.59v34.94
			c0,17.03,8.91,23.91,20.74,23.91c8.35,0,14.32-3.39,18.15-8.8v7.55h17.59v-57.61H907.85z"/>
		<path class="st0" d="M975.81,145.34c-7.78,0-13.52,3.16-17.36,8.35v-28.41h-17.58v78.91h17.58v-6.99
			c3.84,5.19,9.58,8.24,17.36,8.24c15.79,0,25.7-13.08,25.7-30C1001.51,158.42,991.6,145.34,975.81,145.34z M970.97,189.88
			c-7.55,0-12.96-5.97-12.96-14.44c0-8.45,5.41-14.54,12.96-14.54c7.66,0,12.96,6.09,12.96,14.54
			C983.93,183.79,978.63,189.88,970.97,189.88z"/>
	</g>
	<g>
		<path class="st0" d="M206.96,1.98h-57.38v48.26l-61.71-0.01l-52.83,52.83l43.71,43.71H9.61v57.38h87.01l52.82-52.83l-43.7-43.7
			h43.84v96.53h57.39V98.5h-41.83l41.83-41.82L206.96,1.98z M140.55,152.34l-46.24,46.23H15.19v-46.24h125.36V152.34z M201.4,153.77
			v44.8h-44.81L201.4,153.77z M153.72,102.05H43.93L90.17,55.8h109.8L153.72,102.05z M155.15,52.36V7.56h44.82L155.15,52.36z"/>
		<path class="st0" d="M298.54,182.43c-0.76,0.54-8.97,6.92-20.51,6.92c-9.99,0-17.43-4.87-17.43-22.05V95.54h43.02V79.39H260.6V33
			l-19.47,19.48v26.91H218v16.15h23.13v71.26c0,29.22,13.07,39.99,35.11,39.99c13.58,0,23.84-5.9,28.71-9.23
			c0,0,1.68-1.07,2.17-1.42c0.13-0.09,0.34-0.24,0.58-0.41L300.51,181C299.76,181.54,298.96,182.13,298.54,182.43z"/>
		<path class="st0" d="M370.95,76.83c-35.63,0-62.79,28.97-62.79,65.1c0,39.47,29.98,64.85,65.36,64.85
			c17.17,0,33.83-5.9,47.15-16.41l-8.45-14.35c-10.25,8.46-24.35,13.33-38.45,13.33c-23.07,0-42.29-15.63-45.37-40.49h101.76
			c0-0.25,0.52-4.1,0.52-7.69C430.67,105.54,404.27,76.83,370.95,76.83z M328.4,133.99c2.83-23.32,20.25-39.72,41.53-39.72
			c21.78,0,39.47,16.65,41.52,39.72H328.4z"/>
		<path class="st0" d="M507.98,187.81c-27.43,0-46.39-19.99-46.39-45.88c0-26.66,19.74-46.13,45.88-46.13
			c13.08,0,24.36,4.35,32.04,11.53l12.31-13.84c-11.8-10.51-27.44-16.66-44.61-16.66c-36.65,0-65.61,28.71-65.61,65.1
			c0,36.4,28.96,64.85,65.61,64.85c18.71,0,35.63-6.92,47.67-18.46l-11.27-14.61C534.89,182.43,522.08,187.81,507.98,187.81z"/>
		<path class="st0" d="M627.63,76.83c-18.45,0-34.35,8.71-43.06,23.84v-67h-19.48v170.56h19.48v-70.48
			c0-19.74,14.35-37.93,37.17-37.93c22.55,0,31.52,12.3,31.52,35.37v70.67L673,182.12v-53.5C673,95.03,658.39,76.83,627.63,76.83z"
			/>
	</g>
</g>
</svg>
