<?xml version="1.0" encoding="utf-8"?>
<!-- Generator: Adobe Illustrator 25.3.1, SVG Export Plug-In . SVG Version: 6.00 Build 0)  -->
<svg version="1.1" id="Layer_1" xmlns="http://www.w3.org/2000/svg" xmlns:xlink="http://www.w3.org/1999/xlink" x="0px" y="0px"
	 viewBox="0 0 100 100" style="enable-background:new 0 0 100 100;" xml:space="preserve">
<style type="text/css">
	.st0{fill:#124BD8;}
	.st1{fill:#112849;}
	.st2{fill:#B6FCF5;}
	.st3{fill:#F4FF66;}
</style>
<polygon class="st0" points="66.8,33.4 66.7,33.4 66.7,33.3 "/>
<g id="Group_196" transform="translate(-449.296 -440.289)">
	<polygon class="st0" points="549.3,507 515.9,540.3 482.6,507 	"/>
	<polygon class="st0" points="549.3,473.6 549.3,507 516,473.6 449.3,473.6 482.6,440.3 516,440.3 	"/>
	<path id="Path_218" class="st1" d="M482.6,540.3L482.6,540.3L482.6,540.3L482.6,540.3z"/>
	<path id="Path_219" class="st2" d="M449.3,473.7h33.3V507L449.3,473.7z"/>
	<path id="Path_220" class="st3" d="M449.3,507L449.3,507v-33.3l33.3,33.3l0,0l0,0H449.3z"/>
	<path id="Path_221" class="st1" d="M515.9,507v33.3h-33.3l0,0L449.3,507h33.3l0,0l0,0H515.9z"/>
	<path id="Path_222" class="st1" d="M482.6,507L482.6,507L482.6,507L482.6,507z"/>
	<path id="Path_223" class="st1" d="M482.6,473.6L482.6,473.6h-33.3l33.3-33.3l0,0V473.6z"/>
	<path id="Path_224" class="st1" d="M516,473.7h33.3V507L516,473.6V473.7z"/>
	<path id="Path_225" class="st2" d="M549.3,507H516v-33.4L549.3,507z"/>
</g>
</svg>
